<?xml version="1.0" encoding="utf-8"?>
<!-- Generator: Adobe Illustrator 16.0.0, SVG Export Plug-In . SVG Version: 6.00 Build 0)  -->
<!DOCTYPE svg PUBLIC "-//W3C//DTD SVG 1.1//EN" "http://www.w3.org/Graphics/SVG/1.1/DTD/svg11.dtd">
<svg version="1.1" id="Layer_1" xmlns="http://www.w3.org/2000/svg" xmlns:xlink="http://www.w3.org/1999/xlink" x="0px" y="0px"
	 width="400px" height="100px" viewBox="0 0 400 100" enable-background="new 0 0 400 100" xml:space="preserve">
<symbol  id="blanc" viewBox="-22.7 -22.7 45.4 45.4">
	<g>
		<g>
			<g>
				<g>
					<path fill="#FFFFFF" d="M12.7,10.7C9.9,9.1,9.1,8.9,6,7.1C7.8,9,8.4,9.9,9.5,11.5c-2.8-0.1-6.9-0.5-9.8-1.1l0,0l0,0l0,0
						C2.2,11.8,7.3,13.3,9.9,13.6C9.3,14.4,4.3,17.1,3.1,17.7l0,0l0,0l0,0c3.9-0.3,8.8-1.8,11.1-3.2c0.9,0.3,1.9,0.3,3.6,0.5l0,0
						l0,0l0,0c-0.4-0.7-0.5-1.2-2.1-2.3l0,0l0,0l0,0c0.5-1.2-0.6-8.101-1.6-9.9l0,0l0,0l0,0C14,5.6,13.8,9.2,12.7,10.7z"/>
					<path fill="#FFFFFF" d="M-7.8-13.8c-1.6,0.6-2.8,1.3-4,2.5l0,0l0,0l0,0l0,0l0,0l0,0l0,0l0,0l0,0l0,0l0,0l0,0l0,0l0,0l0,0l0,0
						l0,0l0,0l0,0l0,0l0,0l0,0l0,0l0,0l0,0l0,0l0,0l0,0l0,0l0,0l0,0C-11.4-10.2-11-9.4-10.3-8.4l0,0l0,0l0,0l0,0l0,0l0,0l0,0l0,0
						l0,0l0,0l0,0l0,0l0,0l0,0l0,0l0,0l0,0l0,0l0,0l0,0l0,0l0,0l0,0l0,0l0,0l0,0l0,0l0,0l0,0l0,0l0,0C-11.6-8.6-12.6-8.7-13.7-9l0,0
						l0,0l0,0l0,0l0,0l0,0l0,0l0,0l0,0l0,0l0,0l0,0l0,0l0,0l0,0l0,0l0,0l0,0l0,0l0,0l0,0l0,0l0,0l0,0l0,0l0,0l0,0l0,0l0,0l0,0l0,0
						c-0.9,1.6-1.3,3.2-1.8,5.3l0,0l0,0l0,0l0,0l0,0l0,0l0,0l0,0l0,0l0,0l0,0l0,0l0,0l0,0l0,0c-0.2-2.3-0.3-3.899,0-5.7l0,0l0,0l0,0
						l0,0l0,0l0,0l0,0l0,0l0,0l0,0l0,0l0,0l0,0l0,0l0,0l0,0l0,0l0,0l0,0l0,0l0,0l0,0l0,0l0,0l0,0l0,0l0,0l0,0l0,0l0,0l0,0
						c-1-0.3-1.8-0.5-2.6-0.899l0,0l0,0l0,0l0,0l0,0l0,0l0,0l0,0l0,0l0,0l0,0l0,0l0,0l0,0l0,0l0,0l0,0l0,0l0,0l0,0l0,0l0,0l0,0l0,0
						l0,0l0,0l0,0l0,0l0,0l0,0l0,0c1.2-0.7,2.2-1.3,3.5-1.9l0,0l0,0l0,0l0,0l0,0l0,0l0,0l0,0l0,0l0,0l0,0l0,0l0,0l0,0l0,0l0,0l0,0
						l0,0l0,0l0,0l0,0l0,0l0,0l0,0l0,0l0,0l0,0l0,0l0,0l0,0l0,0c0.7-1.5,1.5-2.6,2.7-3.8l0,0l0,0l0,0l0,0l0,0l0,0l0,0l0,0l0,0l0,0
						l0,0l0,0l0,0l0,0l0,0l0,0l0,0l0,0l0,0l0,0l0,0l0,0l0,0l0,0l0,0l0,0l0,0l0,0l0,0l0,0l0,0c-0.3,1-0.4,1.8-0.2,2.9l0,0l0,0l0,0
						l0,0l0,0l0,0l0,0l0,0l0,0l0,0l0,0l0,0l0,0l0,0l0,0l0,0l0,0l0,0l0,0l0,0l0,0l0,0l0,0l0,0l0,0l0,0l0,0l0,0l0,0l0,0l0,0
						C-10.8-13.5-9.5-13.7-7.8-13.8z"/>
					<path fill="#FFFFFF" d="M-3.6,8.9L-3.6,8.9L-3.6,8.9L-3.6,8.9L-3.6,8.9C-4.1,8.2-4.7,7-4.8,6.5l0,0l0,0l0,0
						C-0.7,6,2.6,3.8,2.6,3.8l0,0l0,0l0,0l0,0l0,0l0,0l0,0C-1,4.5-2.9,4.4-4.3,4.3l0,0l0,0l0,0C-5.6,4.1-5.9,4-5.9,4l0,0l0,0l0,0
						l0,0l0,0l0,0l0,0c-1-2.1-1.6-5.8-1.6-5.8l0,0l0,0l0,0l0,0l0,0l0,0l0,0C-8.2-0.2-9.1,3-9.1,3l0,0l0,0l0,0l0,0l0,0l0,0l0,0
						c-1.8-1-6-4.9-6-4.9l0,0l0,0l0,0l0,0l0,0l0,0l0,0c2.3,4.601,4.7,6.7,4.7,6.7l0,0l0,0l0,0l0,0l0,0l0,0l0,0
						c-0.8,0.8-3,1.2-4.5,1.2l0,0l0,0l0,0c0.8,0.3,2.9,0.7,4.5,0.8l0,0l0,0l0,0l0,0l0,0l0,0l0,0c1.6,0,2.5,0,2.5,0l0,0l0,0l0,0
						C-6.5,7.9-4.3,8.8-3.6,8.9z"/>
					<path fill="#FFFFFF" d="M0.8-10.9c-0.7-1-1.4-1.8-2.2-2.699l0,0l0,0l0,0l0,0l0,0l0,0l0,0l0,0l0,0l0,0l0,0l0,0l0,0l0,0l0,0l0,0
						l0,0l0,0l0,0l0,0l0,0l0,0l0,0l0,0l0,0l0,0l0,0l0,0l0,0l0,0l0,0c-1.4-0.4-2.5-0.5-3.9-0.5l0,0l0,0l0,0l0,0l0,0l0,0l0,0l0,0l0,0
						l0,0l0,0l0,0l0,0l0,0l0,0l0,0l0,0l0,0l0,0l0,0l0,0l0,0l0,0l0,0l0,0l0,0l0,0l0,0l0,0l0,0l0,0c0.8-0.4,1.6-0.7,2.5-0.9l0,0l0,0
						l0,0l0,0l0,0l0,0l0,0l0,0l0,0l0,0l0,0l0,0l0,0l0,0l0,0l0,0l0,0l0,0l0,0l0,0l0,0l0,0l0,0l0,0l0,0l0,0l0,0l0,0l0,0l0,0l0,0
						c-0.9-0.8-1.6-1.3-2.5-1.9l0,0l0,0l0,0l0,0l0,0l0,0l0,0l0,0l0,0l0,0l0,0l0,0l0,0l0,0l0,0l0,0l0,0l0,0l0,0l0,0l0,0l0,0l0,0l0,0
						l0,0l0,0l0,0l0,0l0,0l0,0l0,0C-3.9-16.6-2-16-0.6-15.1l0,0l0,0l0,0l0,0l0,0l0,0l0,0l0,0l0,0l0,0l0,0l0,0l0,0l0,0l0,0l0,0l0,0
						l0,0l0,0l0,0l0,0l0,0l0,0l0,0l0,0l0,0l0,0l0,0l0,0l0,0l0,0c0.7,0,1.4,0,1.9,0.1l0,0l0,0l0,0l0,0l0,0l0,0l0,0l0,0l0,0l0,0l0,0
						l0,0l0,0l0,0l0,0l0,0l0,0l0,0l0,0l0,0l0,0l0,0l0,0l0,0l0,0l0,0l0,0l0,0l0,0l0,0l0,0c-0.1,0.4-0.2,0.7-0.3,1.3l0,0l0,0l0,0l0,0
						l0,0l0,0l0,0l0,0l0,0l0,0l0,0l0,0l0,0l0,0l0,0l0,0l0,0l0,0l0,0l0,0l0,0l0,0l0,0l0,0l0,0l0,0l0,0l0,0l0,0l0,0l0,0
						c1.3,1,2.3,1.9,3.3,3l0,0l0,0l0,0l0,0l0,0l0,0l0,0l0,0l0,0l0,0l0,0l0,0l0,0l0,0l0,0l0,0l0,0l0,0l0,0l0,0l0,0l0,0l0,0l0,0l0,0
						l0,0l0,0l0,0l0,0l0,0l0,0c-1.2-0.8-2.2-1.399-3.5-2l0,0l0,0l0,0l0,0l0,0l0,0l0,0l0,0l0,0l0,0l0,0l0,0l0,0l0,0l0,0l0,0l0,0l0,0
						l0,0l0,0l0,0l0,0l0,0l0,0l0,0l0,0l0,0l0,0l0,0l0,0l0,0C0.9-12.1,0.8-11.6,0.8-10.9z"/>
				</g>
			</g>
		</g>
	</g>
	<g>
		<path fill="#FFFFFF" d="M-22.7,22.7v-45.4h45.4v45.4H-22.7z M21.7,21.7c0-0.9,0-42.4,0-43.4c-0.9,0-42.5,0-43.4,0
			c0,0.9,0,42.5,0,43.4C-20.8,21.7,20.8,21.7,21.7,21.7z"/>
	</g>
</symbol>
<g>
	
		<linearGradient id="SVGID_1_" gradientUnits="userSpaceOnUse" x1="2729.0566" y1="1996.207" x2="2729.0566" y2="2010.8875" gradientTransform="matrix(1 0 0 1 -2530.5 -1992.5)">
		<stop  offset="0" style="stop-color:#46BDD5"/>
		<stop  offset="1" style="stop-color:#117FAA"/>
	</linearGradient>
	<path fill="url(#SVGID_1_)" d="M205.025,3.634h-12.94c-0.329,0-0.6,0.285-0.6,0.632v12.872c0,0.348,0.271,0.631,0.6,0.631h2.319
		l2.878,3.295c0.109,0.117,0.2,0.077,0.2-0.087v-3.208h7.543c0.33,0,0.602-0.282,0.602-0.631V4.268
		C205.628,3.92,205.355,3.634,205.025,3.634z"/>
	<g>
		<g>
			<rect x="193.888" y="6.318" fill="#1A6282" width="1.404" height="0.183"/>
			<rect x="195.292" y="9.811" fill="#1A6282" width="3.81" height="0.184"/>
			<rect x="199.102" y="6.318" fill="#1A6282" width="1.404" height="0.183"/>
		</g>
		<g>
			<rect x="195.292" y="11.363" fill="#5DC2DB" width="3.81" height="0.185"/>
			<rect x="193.888" y="14.905" fill="#5DC2DB" width="1.404" height="0.184"/>
			<rect x="199.102" y="14.905" fill="#5DC2DB" width="1.404" height="0.184"/>
		</g>
		<path fill="#FFFFFF" d="M193.888,6.5h1.404v3.494h3.81V6.5h1.404v8.405h-1.404v-3.542h-3.81v3.542h-1.404V6.5z"/>
		<rect x="201.846" y="6.208" fill="#1A6282" width="1.379" height="0.183"/>
		<rect x="201.846" y="12.921" fill="#5DC2DB" width="1.379" height="0.184"/>
		<path fill="#FFFFFF" d="M201.846,6.39h1.379v6.531h-1.379V6.39z"/>
		<rect x="201.846" y="13.546" fill="#1A6282" width="1.379" height="0.185"/>
		<rect x="201.846" y="15.015" fill="#5DC2DB" width="1.379" height="0.185"/>
		<path fill="#FFFFFF" d="M201.846,13.731h1.379v1.283h-1.379V13.731z"/>
	</g>
</g>
<g>
	
		<linearGradient id="SVGID_2_" gradientUnits="userSpaceOnUse" x1="2747.8457" y1="1996.207" x2="2747.8457" y2="2010.8875" gradientTransform="matrix(1 0 0 1 -2530.5 -1992.5)">
		<stop  offset="0" style="stop-color:#9C9C9C"/>
		<stop  offset="1" style="stop-color:#636363"/>
	</linearGradient>
	<path fill="url(#SVGID_2_)" d="M223.814,3.634h-12.939c-0.329,0-0.602,0.285-0.602,0.632v12.872c0,0.348,0.271,0.631,0.602,0.631
		h2.318l2.879,3.295c0.107,0.117,0.199,0.077,0.199-0.087v-3.208h7.543c0.33,0,0.603-0.282,0.603-0.631V4.268
		C224.418,3.92,224.146,3.634,223.814,3.634z"/>
	<g>
		<g>
			<rect x="212.68" y="6.318" fill="#1A6282" width="1.402" height="0.183"/>
			<rect x="214.082" y="9.811" fill="#1A6282" width="3.811" height="0.184"/>
			<rect x="217.893" y="6.318" fill="#1A6282" width="1.403" height="0.183"/>
		</g>
		<g>
			<rect x="214.082" y="11.363" fill="#5DC2DB" width="3.811" height="0.185"/>
			<rect x="212.68" y="14.905" fill="#5DC2DB" width="1.402" height="0.184"/>
			<rect x="217.893" y="14.905" fill="#5DC2DB" width="1.403" height="0.184"/>
		</g>
		<path fill="#FFFFFF" d="M212.68,6.5h1.402v3.494h3.811V6.5h1.403v8.405h-1.403v-3.542h-3.811v3.542h-1.402V6.5z"/>
		<rect x="220.637" y="6.208" fill="#1A6282" width="1.379" height="0.183"/>
		<rect x="220.637" y="12.921" fill="#5DC2DB" width="1.379" height="0.184"/>
		<path fill="#FFFFFF" d="M220.637,6.39h1.379v6.531h-1.379V6.39z"/>
		<rect x="220.637" y="13.546" fill="#1A6282" width="1.379" height="0.185"/>
		<rect x="220.637" y="15.015" fill="#5DC2DB" width="1.379" height="0.185"/>
		<path fill="#FFFFFF" d="M220.637,13.731h1.379v1.283h-1.379V13.731z"/>
	</g>
</g>
<image overflow="visible" enable-background="new    " width="82" height="78" id="Nz2Rcf" xlink:href="694448528FF36EEE.jpg"  transform="matrix(0.7298 0.0531 -0.0563 0.7736 232.7754 0.0093)">
</image>
<g>
	<path fill="none" d="M137.426,12.568c0-0.299-0.101-0.699-0.4-1c-0.5-0.699-1.6-1-2.8-1h-0.6l0.6-1.6h0.1
		c1,0.1,1.9-0.199,2.301-0.699c0.199-0.201,0.3-0.5,0.3-0.801c0-1.199-0.9-1.699-3.101-1.699c-0.399,0-0.8,0-1.1,0
		c-0.1,1.5-0.1,3.299-0.1,4.1c0,0.6,0,2.9,0.1,4.6c0.4,0,1,0,1.4,0C136.326,14.468,137.426,13.869,137.426,12.568z"/>
	<path fill="none" d="M89.126,25.083c-1.4,0-2.301,1.4-2.301,3.9s0.9,3.899,2.301,3.899c1.399,0,2.3-1.3,2.3-3.899
		C91.426,26.483,90.526,25.083,89.126,25.083z"/>
	<path fill="none" d="M91.826,9.769c1.5,0,3.4-0.301,3.4-2c0-0.4-0.1-0.701-0.3-1c-0.5-0.601-1.601-0.9-3.101-0.9
		c-0.399,0-0.699,0-0.899,0c0,0.8,0,1.699,0,2.4c0,0.6,0,1.1,0,1.5c0.1,0,0.3,0,0.3,0H91.826z"/>
	<path fill="none" d="M75.426,9.769c1.5,0,3.4-0.301,3.4-2c0-0.4-0.1-0.701-0.3-1c-0.5-0.601-1.6-0.9-3.1-0.9c-0.4,0-0.7,0-0.9,0
		c0,0.8,0,1.699,0,2.4c0,0.6,0,1.1,0,1.5c0.1,0,0.3,0,0.3,0H75.426z"/>
	<path fill="none" d="M148.426,11.769c0,0,0.1,0,0.201,0c-0.801-1.801-1.4-3.4-1.701-3.9c-0.5,1.1-1.1,2.4-1.6,3.9
		c0.301,0,1.699,0,1.699,0H148.426z"/>
	<path fill="none" d="M104.726,11.769c0,0,0.1,0,0.2,0c-0.8-1.801-1.4-3.4-1.7-3.9c-0.5,1.1-1.1,2.4-1.6,3.9
		c0.199,0,1.699,0,1.699,0H104.726z"/>
	<path fill="none" d="M53.026,12.568c0-0.299-0.1-0.699-0.4-1c-0.5-0.699-1.6-1-2.8-1h-0.6l0.6-1.6h0.1c1,0.1,1.9-0.199,2.3-0.699
		c0.2-0.201,0.3-0.5,0.3-0.801c0-1.199-0.9-1.699-3.1-1.699c-0.3,0-0.8,0-1,0c-0.1,1.5-0.1,3.299-0.1,4.1c0,0.6,0,2.9,0.1,4.6
		c0.3,0,0.9,0,1.3,0C51.926,14.468,53.026,13.869,53.026,12.568z"/>
	<rect x="45.326" y="19.269" fill="#E53517" width="117.801" height="1.809"/>
	<path d="M56.026,12.769c0-1.5-1.1-2.5-3-3.101c1.4-0.399,2.4-1.399,2.4-2.601c0-1.899-2.2-2.6-4.2-2.699h-5.9v0.199
		c0.1,1.201,0.2,4.201,0.2,5.4c0,1,0,4.4-0.2,5.9v0.1h5.3C53.226,15.968,56.026,15.168,56.026,12.769z M48.426,14.468
		c-0.1-1.699-0.1-4-0.1-4.6c0-0.801,0-2.6,0.1-4.1c0.2,0,0.7,0,1,0c2.2,0,3.1,0.5,3.1,1.699c0,0.301-0.1,0.6-0.3,0.801
		c-0.4,0.5-1.3,0.799-2.3,0.699h-0.1l-0.6,1.6h0.6c1.2,0,2.3,0.301,2.8,1c0.3,0.301,0.4,0.701,0.4,1c0,1.301-1.1,1.9-3.3,1.9
		C49.326,14.468,48.726,14.468,48.426,14.468z"/>
	<path d="M60.826,15.869c-0.1-2.801-0.1-5.6-0.1-8.4c0.1,0.301,0.2,0.6,0.6,1.301c0,0.1,4.7,6.799,4.9,7.199h2.2v-0.1
		c-0.2-1.5-0.2-4.9-0.2-5.9c0-1.1,0.1-4.1,0.2-5.4l-0.1-0.1h-2.6l0.1,2.9c0,1.4,0.1,2.9,0.2,4.3c-0.2-0.399-0.3-0.7-1.1-1.8
		c0,0-2.7-4.2-3.7-5.4h-3v0.1c0.1,1.201,0.1,4.201,0.1,5.4c0,1,0,4.4-0.2,5.9v0.1h2.7V15.869z"/>
	<line fill="none" x1="71.426" y1="4.568" x2="71.526" y2="4.568"/>
	<path d="M71.526,15.869v0.1h3.2v-0.1c-0.1-1.1-0.2-3.1-0.2-4.6c0.1,0,0.6,0,0.6,0h0.5c4.1,0,6.1-1.101,6.1-3.4
		c0-2.7-2.9-3.301-5.3-3.301h-4.9c0.1,1.201,0.2,4.201,0.2,5.4C71.726,10.968,71.726,14.369,71.526,15.869z M74.526,8.269
		c0-0.701,0-1.601,0-2.4c0.2,0,0.5,0,0.9,0c1.5,0,2.6,0.3,3.1,0.9c0.2,0.299,0.3,0.6,0.3,1c0,1.699-1.9,2-3.4,2h-0.6
		c0,0-0.2,0-0.3,0C74.526,9.369,74.526,8.869,74.526,8.269z"/>
	<path d="M91.126,15.869c-0.101-1.1-0.101-3.1-0.2-4.6c0.1,0,0.6,0,0.6,0h0.5c4.2,0,6.3-1.101,6.3-3.5
		c0-2.701-2.899-3.301-5.3-3.301h-5l-0.1,0.1c0.1,1.201,0.2,4.201,0.2,5.4c0,1,0,4.4-0.2,5.9v0.1h3.2V15.869z M90.926,8.269
		c0-0.701,0-1.601,0-2.4c0.2,0,0.5,0,0.899,0c1.5,0,2.601,0.3,3.101,0.9c0.2,0.299,0.3,0.6,0.3,1c0,1.699-1.9,2-3.4,2h-0.6
		c0,0-0.2,0-0.3,0C90.926,9.369,90.926,8.869,90.926,8.269z"/>
	<path d="M97.226,15.968h2.7v-0.1c0.2-0.801,0.5-1.7,0.899-2.6c0.101,0,2.301,0,2.301,0h1.899c0,0,0.3,0,0.4,0
		c0.5,1.199,0.899,2.199,1,2.6v0.1h3.2l-5.101-11.5h-2.1c-0.7,1.7-4.5,10.1-5.101,11.301L97.226,15.968z M103.226,7.869
		c0.3,0.5,0.9,2.1,1.7,3.9c-0.101,0-0.2,0-0.2,0h-1.4c0,0-1.5,0-1.699,0C102.126,10.269,102.726,8.968,103.226,7.869z"/>
	<path d="M111.226,9.968c0,1,0,4.4-0.2,5.9v0.1h3.2v-0.1c-0.2-1.5-0.2-4.9-0.2-5.9c0-0.8,0-2.6,0.101-4c0.3,0,0.6-0.1,0.899-0.1
		c1.5,0,2.601,0.3,3.101,0.9c0.199,0.299,0.3,0.6,0.3,1c0,1.299-1.2,2-2.4,2.1c-0.399,0-0.7,0-0.7,0h-0.199l0.1,0.199
		c1.1,1.701,2.8,4.5,3.5,5.9h3.4l-0.101-0.199c-0.1-0.201-2.399-3.5-3.3-4.9c0,0,0,0-0.1-0.1c1.699-0.5,2.6-1.5,2.6-3
		c0-2.701-2.9-3.301-5.3-3.301h-5l0.1,0.1C111.126,5.769,111.226,8.769,111.226,9.968z"/>
	<path d="M126.826,15.869c-0.199-1.5-0.199-4.9-0.199-5.9c0-1.1,0.1-4.1,0.199-5.4l-0.1-0.1h-3.1v0.1
		c0.1,1.201,0.199,4.201,0.199,5.4c0,1,0,4.4-0.199,5.9v0.1h3.199L126.826,15.869L126.826,15.869z"/>
	<path d="M140.426,12.769c0-1.5-1.101-2.5-3-3.101c1.5-0.399,2.399-1.399,2.399-2.601c0-1.899-2.199-2.6-4.199-2.699h-5.9v0.199
		c0.1,1.201,0.2,4.201,0.2,5.4c0,1,0,4.4-0.2,5.9v0.1h5.3C137.626,15.968,140.426,15.168,140.426,12.769z M132.726,14.468
		c-0.1-1.699-0.1-4-0.1-4.6c0-0.801,0-2.6,0.1-4.1c0.3,0,0.7,0,1.1,0c2.2,0,3.101,0.5,3.101,1.699c0,0.301-0.101,0.6-0.3,0.801
		c-0.4,0.5-1.301,0.799-2.301,0.699h-0.1l-0.6,1.6h0.6c1.2,0,2.3,0.301,2.8,1c0.3,0.301,0.4,0.701,0.4,1c0,1.301-1.101,1.9-3.3,1.9
		C133.726,14.468,133.126,14.468,132.726,14.468z"/>
	<path d="M143.627,15.968c0.199-0.8,0.5-1.699,0.898-2.6c0.102,0,2.301,0,2.301,0h1.9c0,0,0.299,0,0.4,0
		c0.5,1.199,0.898,2.199,1,2.6v0.1h3.199l-5.1-11.6h-2.201v0.1c-0.6,1.701-4.7,10.5-5,11.301l-0.1,0.199h2.701v-0.1H143.627z
		 M146.926,7.869c0.301,0.5,0.9,2.1,1.701,3.9c-0.102,0-0.201,0-0.201,0h-1.4c0,0-1.398,0-1.699,0
		C145.826,10.269,146.426,8.968,146.926,7.869z"/>
	<path d="M158.127,11.068c1.398,0.601,2.799,1.101,2.799,2.101c0,0.3-0.1,0.5-0.199,0.7c-0.301,0.4-1,0.6-2.1,0.5
		c-1.102-0.1-2.301-0.4-3.602-1l-0.6-0.301v0.4v2.1l0.4,0.101h0.199c0.701,0.2,2,0.5,3.201,0.5c3.4,0,5.4-1.3,5.4-3.601
		c0-2.1-2.102-2.899-3.9-3.6c-1.4-0.5-2.801-1.1-2.801-2c0-0.3,0-1,1.701-1c1.299,0,2.6,0.5,3.299,0.801l0.701,0.299v-0.4v-2.1
		l-0.701-0.1c-0.699-0.1-1.699-0.3-2.9-0.3c-2.699-0.101-4.699,1.3-4.699,3.3S156.326,10.269,158.127,11.068z"/>
	<path d="M74.426,28.783c0,0.8,0,3.6-0.1,5.1h3.3c-0.1-1.2-0.2-2.8-0.2-4v-0.2h3.4v-1.5l-3.4,0.101c0-0.7,0-1.8,0-2.7
		c0.2,0,0.5,0,0.7,0c0,0,2.6,0,4.1,0.1v-1.6h-7.9C74.426,25.182,74.426,27.882,74.426,28.783z"/>
	<path d="M89.126,23.783c-3.101,0-5.4,2.1-5.4,5.2s2.3,5.199,5.4,5.199s5.399-2.1,5.3-5.199
		C94.426,25.882,92.126,23.783,89.126,23.783z M89.126,32.882c-1.4,0-2.301-1.399-2.301-3.899s0.9-3.9,2.301-3.9
		c1.399,0,2.3,1.4,2.3,3.9C91.426,31.583,90.526,32.882,89.126,32.882z"/>
	<path d="M106.326,27.083c0-2.2-2.6-3-4.699-3v-0.1h-4.9c0.2,1,0.2,3,0.2,4.699c0,2,0,3.7-0.2,5.2h3.2c-0.2-1.5-0.2-4.3-0.2-5.2
		c0-0.699,0-2.1,0.1-3.3c0.301,0,0.9,0,1.2,0c0.7,0,2.2,0.4,2.2,1.7s-1.2,2-2.6,1.8c1.199,1.8,2.399,3.8,3,5h3.5
		c-0.4-0.5-2.801-3.6-3.101-4.1C105.426,29.182,106.326,28.283,106.326,27.083z"/>
	<path d="M107.726,25.682c1.5-0.1,2.1-0.199,3.2-0.199c0,1,0.1,2.699,0.1,3.3c0,0.899,0,3.7-0.2,5.2h3.301c-0.2-1.5-0.2-4.4-0.2-5.2
		c0-0.601,0-2.2,0.1-3.3c1.101,0,1.7,0.1,3.101,0.199v-1.6h-9.4v1.6H107.726z"/>
	<path d="M119.526,24.083c0,1.1,0.101,3.8,0.101,4.7c0,0.8,0,3.6-0.2,5.1h3.2c-0.101-1.3-0.101-4.2-0.101-5.1c0-1,0-3.601,0.101-4.7
		H119.526z"/>
	<path d="M128.126,26.483c0-0.4,0.1-0.801,1.199-0.801c1.4,0,2.4,0.5,3.5,1.101v-2.5c-0.699-0.2-1.899-0.4-3.199-0.4
		c-2.601,0-4.301,1-4.4,2.7c0,3.2,5.6,3,5.6,4.9c0,0.699-0.5,1-1.3,1c-1,0-2-0.301-4.1-1.301v2.4c0.899,0.3,2.2,0.6,3.5,0.6
		c3,0,4.8-1.199,4.8-3.1C133.726,28.182,128.126,28.182,128.126,26.483z"/>
	
		<radialGradient id="SVGID_3_" cx="778.1025" cy="653.6377" r="53.0115" gradientTransform="matrix(0.7827 0 0 0.7827 -578.2676 -504.388)" gradientUnits="userSpaceOnUse">
		<stop  offset="0" style="stop-color:#73BA80"/>
		<stop  offset="0.0724" style="stop-color:#61B47A"/>
		<stop  offset="0.3639" style="stop-color:#1B9C63"/>
		<stop  offset="0.5" style="stop-color:#00925B"/>
		<stop  offset="0.727" style="stop-color:#008753"/>
		<stop  offset="1" style="stop-color:#007E4D"/>
	</radialGradient>
	<path fill="url(#SVGID_3_)" d="M1.726,36.382h34.8V1.568h-34.8V36.382z M22.526,27.283l-0.1,0.2
		c-0.861,0.765-1.545,1.44-2.477,2.197c0.027,0.299,0.095,0.558,0.177,0.803c-0.006,0.002-0.016,0.001-0.022,0.003
		c-0.029,0.054-0.078,0.196-0.078,0.196c-0.4,0.101-0.9,0.101-1.5,0.101c-1.1,0.7-2.5,1.1-3.6,1.399l0.1-0.199
		c0.629-0.36,1.104-0.729,1.701-1.232c-0.578-0.19-1.232-0.384-1.801-0.668l0.1-0.2c0.277-0.03,0.575-0.032,0.878-0.029
		c0.7-0.047,1.335-0.155,2.122-0.37c0.7-0.7,1.1-1.301,1.7-2.101c0,0.5,0,0.9,0.1,1.4c1-0.5,1.8-1,2.7-1.601
		c-0.201,0.179-0.389,0.351-0.575,0.521C22.15,27.56,22.345,27.418,22.526,27.283z M18.926,11.068
		c0.311-0.154,0.675-0.309,1.06-0.462c1.925-0.907,4.677-1.677,6.401-1.978c-0.975-0.834-4.147-2.498-4.96-2.859l0.1-0.201
		c0.099,0.011,0.206,0.031,0.306,0.045c-0.119-0.059-0.227-0.109-0.306-0.145c3,0.2,6.7,1.4,8.5,2.5c0.7-0.3,1.4-0.3,2.7-0.4
		c-0.055,0.11-0.1,0.209-0.145,0.305c0.017-0.002,0.028-0.003,0.044-0.004c0,0-0.196,0.74-1.453,1.686
		c0.236,1.199-0.429,5.189-1.051,6.932c-0.1,0.318-0.2,0.59-0.296,0.783c-0.1-2.301-0.3-5.101-1.1-6.301
		c-2.1,1.301-2.8,1.4-5.1,2.801l0.1-0.301c0.866-0.938,1.418-1.513,1.96-2.209c0.077-0.104,0.157-0.209,0.237-0.316
		c0.131-0.18,0.264-0.366,0.403-0.574c-2.2,0.1-5.3,0.4-7.5,0.9L18.926,11.068z M7.526,14.568l0.2-0.199
		c0.066-0.02,0.147-0.037,0.229-0.054c0.671-0.28,2.143-0.546,3.271-0.546c1.2,0,1.9,0,1.9,0c1-0.9,2.7-1.601,3.2-1.701
		c-0.048,0.061-0.095,0.141-0.143,0.211c0.013-0.002,0.031-0.008,0.042-0.01c0,0-0.44,0.71-0.742,1.708
		c2.072,0.271,3.84,1.077,4.82,1.606c0.413,0.166,0.735,0.305,0.922,0.385l-0.1,0.2c-2.8-0.5-4.2-0.399-5.3-0.3
		c-1,0.1-1.2,0.199-1.2,0.199c-0.6,1.301-0.9,3.402-1.1,4.207l-0.09,0.136c-0.005,0.038-0.009,0.065-0.009,0.065
		c-0.004-0.01-0.009-0.021-0.013-0.032l-0.087,0.132c-0.5-1.206-1.2-3.707-1.2-3.707c-1.4,0.8-4.6,3.807-4.6,3.807
		c1.555-3.206,3.175-4.803,3.445-5.055c0.021-0.021,0.035-0.035,0.053-0.054C10.422,14.967,8.725,14.568,7.526,14.568z
		 M5.226,26.882c0.029-0.018,0.064-0.024,0.094-0.04c-0.032-0.021-0.062-0.038-0.094-0.06c0.56-0.279,1.125-0.472,1.847-0.659
		c-0.213-1.267-0.129-2.487,0.053-4.041l0.075-0.149c0.009-0.088,0.015-0.162,0.025-0.252c0.4,1.701,0.7,2.901,1.4,4.102
		c0.9-0.101,1.6-0.2,2.6-0.4c-0.028,0.043-0.048,0.078-0.076,0.119c0.026-0.005,0.049-0.014,0.076-0.019l-0.1,0.199
		c-0.333,0.444-0.569,0.827-0.769,1.216c-0.117,0.252-0.227,0.505-0.332,0.784c1,0.9,1.9,1.4,3.1,1.9l-0.1,0.2
		c-1.234,0-2.202-0.184-3.323-0.458c-0.036,0.636,0.054,1.178,0.224,1.857c-0.068-0.068-0.124-0.134-0.188-0.201
		c0.029,0.099,0.058,0.195,0.088,0.302l-0.1,0.2c-0.9-0.9-1.5-1.7-2-2.9c-1-0.5-1.7-0.9-2.6-1.5L5.226,26.882z"/>
	<path fill="#1A171B" d="M31.126,9.369c0.02,0.049,0.034,0.116,0.047,0.186c1.257-0.945,1.453-1.686,1.453-1.686
		c-0.017,0.001-0.028,0.002-0.044,0.004C32.382,8.296,32.188,8.633,31.126,9.369z"/>
	<path fill="#1A171B" d="M28.826,10.769c-2.2,1.299-2.8,1.399-5.1,2.799c0.964-1.032,1.454-1.641,1.96-2.309
		c-0.542,0.696-1.094,1.271-1.96,2.209l-0.1,0.301c2.3-1.4,3-1.5,5.1-2.801c0.8,1.2,1,4,1.1,6.301
		c0.096-0.193,0.196-0.465,0.296-0.783c-0.066,0.186-0.132,0.354-0.196,0.482C29.826,14.668,29.726,11.968,28.826,10.769z"/>
	<path fill="#1A171B" d="M25.923,10.943c0.156-0.209,0.318-0.428,0.503-0.674c-2.2,0.1-5.3,0.399-7.5,0.899
		c0.303-0.191,0.67-0.378,1.06-0.562c-0.384,0.153-0.749,0.308-1.06,0.462l-0.1,0.201c2.2-0.5,5.3-0.801,7.5-0.9
		C26.187,10.577,26.055,10.763,25.923,10.943z"/>
	<path fill="#1A171B" d="M21.832,5.613c-0.101-0.014-0.208-0.034-0.306-0.045l-0.1,0.201c0.813,0.361,3.986,2.025,4.96,2.859
		c0.111-0.019,0.237-0.045,0.339-0.061C26.27,7.929,23.074,6.212,21.832,5.613z"/>
	<path fill="#1A171B" d="M9.703,29.325c1.121,0.274,2.089,0.458,3.323,0.458l0.1-0.2c-1.3-0.1-2.3-0.2-3.4-0.6
		C9.711,29.103,9.709,29.211,9.703,29.325z"/>
	<path fill="#1A171B" d="M11.126,25.682l0.1-0.199c-0.026,0.005-0.049,0.014-0.076,0.019c-0.346,0.527-0.59,0.961-0.793,1.396
		C10.557,26.509,10.793,26.126,11.126,25.682z"/>
	<path fill="#1A171B" d="M9.726,31.483l0.1-0.2c-0.031-0.106-0.059-0.203-0.088-0.302c-0.791-0.82-1.35-1.589-1.812-2.698
		c-0.964-0.482-1.745-0.876-2.606-1.44c-0.03,0.016-0.065,0.022-0.094,0.04l-0.1,0.2c0.9,0.6,1.6,1,2.6,1.5
		C8.226,29.783,8.826,30.583,9.726,31.483z"/>
	<path fill="#1A171B" d="M7.201,21.933l-0.075,0.149c-0.183,1.554-0.266,2.774-0.053,4.041c0.052-0.014,0.099-0.027,0.153-0.041
		C6.941,24.752,7.021,23.588,7.201,21.933z"/>
	<path fill="#1A171B" d="M15.826,15.769c-1,0.1-1.2,0.199-1.2,0.199c-0.733,1.467-1.129,4.023-1.19,4.442l0.09-0.136
		c0.2-0.805,0.5-2.906,1.1-4.207c0,0,0.2-0.1,1.2-0.199c1.1-0.1,2.5-0.2,5.3,0.3l0.1-0.2c-0.187-0.08-0.509-0.219-0.922-0.385
		c0.52,0.281,0.822,0.484,0.822,0.484C18.326,15.568,16.926,15.668,15.826,15.769z"/>
	<path fill="#1A171B" d="M15.484,13.977c0.302-0.998,0.742-1.708,0.742-1.708c-0.012,0.002-0.03,0.008-0.042,0.01
		c-0.348,0.515-0.67,1.25-0.757,1.689C15.446,13.97,15.465,13.974,15.484,13.977z"/>
	<path fill="#1A171B" d="M7.626,20.576c1.403-2.812,2.794-4.39,3.345-4.955c-0.27,0.252-1.89,1.849-3.445,5.055
		c0,0,3.2-3.007,4.6-3.807c0,0,0.7,2.501,1.2,3.707l0.087-0.132c-0.499-1.218-1.188-3.675-1.188-3.675
		C10.826,17.568,7.626,20.576,7.626,20.576z"/>
	<path fill="#1A171B" d="M11.226,15.369c-0.6-0.6-2.2-0.9-3.4-1c0.036-0.019,0.086-0.036,0.128-0.054
		c-0.081,0.017-0.162,0.034-0.229,0.054l-0.2,0.199c1.199,0,2.896,0.399,3.498,0.999C11.143,15.447,11.226,15.369,11.226,15.369z"/>
	<path fill="#1A171B" d="M15.026,31.983l-0.1,0.199c1.1-0.3,2.5-0.699,3.6-1.399c0.6,0,1.1,0,1.5-0.101c0,0,0.048-0.143,0.078-0.196
		c-0.396,0.095-0.887,0.097-1.478,0.097C17.526,31.283,16.126,31.682,15.026,31.983z"/>
	<path fill="#1A171B" d="M15.026,29.882l-0.1,0.2c0.568,0.284,1.223,0.478,1.801,0.668c0.067-0.057,0.128-0.107,0.199-0.168
		C16.326,30.382,15.626,30.182,15.026,29.882z"/>
	<path fill="#1A171B" d="M15.026,29.882c0.313,0,0.6-0.011,0.878-0.029C15.601,29.85,15.303,29.852,15.026,29.882z"/>
	<path fill="#1A171B" d="M19.949,29.68c0.932-0.757,1.616-1.433,2.477-2.197l0.1-0.2c-0.181,0.136-0.375,0.277-0.575,0.421
		c-0.649,0.595-1.247,1.157-2.024,1.779C19.926,29.556,19.943,29.613,19.949,29.68z"/>
	<path fill="#FFFFFF" d="M26.426,10.269c-0.185,0.246-0.347,0.465-0.503,0.674c-0.08,0.107-0.16,0.213-0.237,0.316
		c-0.506,0.668-0.996,1.276-1.96,2.309c2.3-1.399,2.9-1.5,5.1-2.799c0.9,1.199,1,3.899,1.1,6.199
		c0.064-0.128,0.13-0.297,0.196-0.482c0.622-1.742,1.287-5.732,1.051-6.932c-0.013-0.069-0.027-0.137-0.047-0.186
		c1.062-0.735,1.256-1.072,1.456-1.496c0.045-0.096,0.09-0.194,0.145-0.305c-1.3,0.101-2,0.101-2.7,0.4c-1.8-1.1-5.5-2.3-8.5-2.5
		c0.079,0.035,0.187,0.086,0.306,0.145c1.242,0.6,4.438,2.316,4.894,2.955c-0.102,0.016-0.228,0.042-0.339,0.061
		c-1.724,0.301-4.476,1.07-6.401,1.978c-0.39,0.185-0.756,0.371-1.06,0.562C21.126,10.668,24.226,10.369,26.426,10.269z"/>
	<path fill="#FFFFFF" d="M9.738,30.981c0.064,0.067,0.12,0.133,0.188,0.201c-0.17-0.68-0.26-1.222-0.224-1.857
		c0.006-0.113,0.008-0.222,0.023-0.342c1.1,0.399,2.1,0.5,3.4,0.6c-1.2-0.5-2.1-1-3.1-1.9c0.104-0.279,0.214-0.532,0.332-0.784
		c0.203-0.436,0.447-0.869,0.793-1.396c0.027-0.041,0.047-0.076,0.076-0.119c-1,0.2-1.7,0.3-2.6,0.4c-0.7-1.2-1-2.4-1.4-4.102
		c-0.01,0.09-0.016,0.164-0.025,0.252c-0.18,1.655-0.259,2.819,0.025,4.149c-0.054,0.014-0.101,0.027-0.153,0.041
		c-0.721,0.188-1.287,0.38-1.847,0.659c0.032,0.021,0.062,0.038,0.094,0.06c0.861,0.564,1.642,0.958,2.606,1.44
		C8.388,29.392,8.947,30.161,9.738,30.981z"/>
	<path fill="#FFFFFF" d="M7.626,20.576c0,0,3.2-3.008,4.6-3.807c0,0,0.688,2.457,1.188,3.675c0.004,0.011,0.009,0.022,0.013,0.032
		c0,0,0.004-0.027,0.009-0.065c0.062-0.419,0.458-2.976,1.19-4.442c0,0,0.2-0.1,1.2-0.199c1.1-0.101,2.5-0.201,5.3,0.299
		c0,0-0.302-0.203-0.822-0.484c-0.979-0.529-2.748-1.336-4.82-1.606c-0.02-0.003-0.039-0.007-0.058-0.009
		c0.087-0.439,0.41-1.175,0.757-1.689c0.048-0.07,0.094-0.15,0.143-0.211c-0.5,0.101-2.2,0.801-3.2,1.701c0,0-0.7,0-1.9,0
		c-1.129,0-2.6,0.266-3.271,0.546c-0.042,0.018-0.093,0.035-0.128,0.054c1.2,0.1,2.8,0.4,3.4,1c0,0-0.083,0.078-0.202,0.198
		c-0.019,0.019-0.033,0.032-0.053,0.054C10.42,16.186,9.029,17.763,7.626,20.576z"/>
	<path fill="#FFFFFF" d="M19.826,28.783c-0.1-0.5-0.1-0.9-0.1-1.4c-0.6,0.8-1,1.4-1.7,2.101c-0.787,0.215-1.422,0.323-2.122,0.37
		c-0.278,0.019-0.565,0.029-0.878,0.029c0.6,0.3,1.3,0.5,1.9,0.7c-0.071,0.061-0.132,0.111-0.199,0.168
		c-0.597,0.504-1.072,0.872-1.701,1.232c1.1-0.301,2.5-0.7,3.6-1.4c0.59,0,1.081-0.002,1.478-0.097
		c0.007-0.002,0.016-0.001,0.022-0.003c-0.082-0.245-0.15-0.504-0.177-0.803c-0.006-0.067-0.023-0.124-0.023-0.197
		c0.777-0.622,1.375-1.185,2.024-1.779c0.187-0.171,0.375-0.343,0.575-0.521C21.626,27.783,20.826,28.283,19.826,28.783z"/>
</g>
<g id="noms">
	<g>
		
			<use xlink:href="#blanc"  width="45.4" height="45.4" x="-22.7" y="-22.7" transform="matrix(0.5473 0 0 -0.5367 14.4248 51.8174)" overflow="visible"/>
		<g>
			<g>
				<rect x="33.265" y="52.205" fill="#FFFFFF" width="84.016" height="1.234"/>
			</g>
			<g>
				<path fill="#FFFFFF" d="M33.265,41.954c0.055,0.858,0.109,2.952,0.109,3.757c0,0.698,0,3.113-0.109,4.133v0.107h3.832
					c1.86,0,3.832-0.59,3.832-2.2c0-1.021-0.767-1.771-2.19-2.201c1.04-0.269,1.751-0.966,1.751-1.771
					c0-1.342-1.532-1.825-3.01-1.879h-4.214V41.954z M36.22,42.76c1.587,0,2.189,0.322,2.189,1.18c0,0.215-0.055,0.43-0.219,0.592
					c-0.329,0.375-0.93,0.536-1.642,0.482h-0.055l-0.438,1.127h0.438c0.876,0,1.642,0.269,2.025,0.697
					c0.164,0.215,0.274,0.482,0.274,0.752c0,0.912-0.822,1.342-2.354,1.342c-0.274,0-0.711,0-0.985,0
					C35.4,47.751,35.4,46.141,35.4,45.711c0-0.537,0-1.824,0.055-2.898C35.673,42.76,35.947,42.76,36.22,42.76z"/>
				<path fill="#FFFFFF" d="M49.74,41.848h-1.861l0.055,2.039c0.055,1.02,0.055,2.039,0.109,3.059l0,0l0,0
					c-0.109-0.322-0.219-0.482-0.766-1.287c0-0.055-1.916-2.953-2.627-3.758l0,0h-2.135v0.054c0.055,0.858,0.11,2.952,0.11,3.757
					c0,0.698,0,3.113-0.11,4.133v0.107h1.916v-0.054c-0.109-1.985-0.109-3.972-0.109-5.851l0,0c0.055,0.215,0.165,0.43,0.438,0.859
					c0.054,0.054,3.338,4.776,3.502,5.045v0.053h1.533v-0.106c-0.109-1.021-0.109-3.435-0.109-4.132
					c0-0.806,0.055-2.898,0.109-3.758v-0.054H49.74V41.848z"/>
				<path fill="#FFFFFF" d="M51.929,41.954c0.054,0.858,0.109,2.952,0.109,3.757c0,0.698,0,3.113-0.109,4.133v0.107h2.299v-0.107
					c-0.055-0.752-0.11-2.146-0.11-3.221c0.11,0,0.438,0,0.438,0h0.329c3.01,0,4.488-0.805,4.488-2.414
					c0-1.879-2.025-2.309-3.777-2.309h-3.558L51.929,41.954z M54.72,42.812c1.094,0,1.807,0.215,2.189,0.645
					c0.165,0.215,0.219,0.43,0.219,0.752c0,1.18-1.314,1.395-2.462,1.395h-0.438c0,0-0.11,0-0.165,0c0-0.268,0-0.59,0-1.02
					c0-0.537,0-1.127,0-1.664C54.228,42.867,54.501,42.812,54.72,42.812z"/>
				<path fill="#FFFFFF" d="M63.643,41.954c0.054,0.858,0.108,2.952,0.108,3.757c0,0.698,0,3.113-0.108,4.133v0.107h2.298v-0.107
					c-0.055-0.752-0.108-2.146-0.108-3.221c0.108,0,0.437,0,0.437,0h0.328c3.011,0,4.489-0.805,4.489-2.414
					c0-1.879-2.026-2.309-3.777-2.309h-3.558L63.643,41.954z M66.433,42.812c1.041,0,1.807,0.215,2.189,0.645
					c0.164,0.215,0.22,0.43,0.22,0.752c0,1.18-1.314,1.395-2.464,1.395H65.94c0,0-0.108,0-0.164,0c0-0.268,0-0.644,0-1.02
					c0-0.537,0-1.073,0.056-1.664C65.94,42.867,66.214,42.812,66.433,42.812z"/>
				<path fill="#FFFFFF" d="M74.04,41.848L74.04,41.848L74.04,41.848c-0.491,1.18-3.228,7.029-3.611,7.942l-0.055,0.107h1.97v-0.054
					c0.165-0.537,0.384-1.182,0.657-1.824c0.055,0,1.643,0,1.643,0h1.313c0,0,0.218,0,0.274,0c0.326,0.857,0.601,1.502,0.711,1.824
					v0.054h2.243l-3.667-8.05h-0.055H74.04z M74.589,44.209c0.163,0.375,0.656,1.449,1.204,2.736c-0.056,0-0.165,0-0.165,0h-0.984
					c0,0-1.041,0-1.204,0C73.821,45.926,74.205,45.014,74.589,44.209z"/>
				<path fill="#FFFFFF" d="M80.117,41.954c0.053,0.858,0.109,2.952,0.109,3.757c0,0.698,0,3.113-0.109,4.133v0.107h2.298v-0.107
					c-0.109-1.02-0.109-3.435-0.109-4.133c0-0.537,0-1.824,0.055-2.791c0.164,0,0.438-0.053,0.602-0.053
					c1.04,0,1.807,0.215,2.189,0.644c0.164,0.215,0.273,0.429,0.273,0.751c0,0.912-0.875,1.396-1.696,1.449
					c-0.273,0-0.492,0-0.492,0h-0.165l0.11,0.162c0.82,1.18,2.024,3.166,2.517,4.131v0.055h2.464l-0.055-0.107
					c-0.108-0.107-1.696-2.415-2.354-3.436c0,0,0-0.053-0.056-0.053c1.259-0.376,1.861-1.074,1.861-2.094
					c0-1.879-2.024-2.308-3.776-2.308h-3.557L80.117,41.954z"/>
				<path fill="#FFFFFF" d="M91.337,41.848h-2.189V41.9c0.054,0.859,0.109,2.952,0.109,3.758c0,0.697,0,3.111-0.109,4.132v0.107
					h2.299V49.79c-0.109-1.021-0.109-3.435-0.109-4.132c0-0.806,0.054-2.898,0.109-3.758v-0.053H91.337z"/>
				<path fill="#FFFFFF" d="M93.471,41.954c0.056,0.858,0.11,2.952,0.11,3.757c0,0.698,0,3.113-0.11,4.133v0.107h3.832
					c1.86,0,3.831-0.59,3.831-2.2c0-1.021-0.766-1.771-2.189-2.201c1.04-0.269,1.751-0.966,1.751-1.771
					c0-1.342-1.532-1.825-3.01-1.879h-4.215V41.954z M96.427,42.76L96.427,42.76c1.588,0,2.189,0.322,2.189,1.18
					c0,0.215-0.055,0.43-0.219,0.592c-0.273,0.375-0.932,0.536-1.642,0.482H96.7l-0.438,1.127H96.7c0.876,0,1.642,0.269,2.025,0.697
					c0.164,0.215,0.273,0.482,0.273,0.752c0,0.912-0.821,1.342-2.354,1.342c-0.273,0-0.711,0-0.984,0
					c-0.056-1.181-0.056-2.791-0.056-3.273c0-0.537,0-1.826,0.056-2.898C95.824,42.76,96.153,42.76,96.427,42.76z"/>
				<path fill="#FFFFFF" d="M106.717,41.848h-1.532V41.9c-0.438,1.234-3.339,7.354-3.559,7.89l-0.054,0.107h1.97v-0.054
					c0.164-0.537,0.384-1.182,0.657-1.824c0.054,0,1.587,0,1.587,0h1.313c0,0,0.219,0,0.273,0c0.329,0.857,0.603,1.502,0.711,1.824
					v0.054h2.245L106.717,41.848L106.717,41.848z M105.786,44.209c0.163,0.375,0.657,1.449,1.204,2.736c-0.055,0-0.164,0-0.164,0
					h-0.986c0,0-1.039,0-1.203,0C105.02,45.926,105.403,45.014,105.786,44.209z"/>
				<path fill="#FFFFFF" d="M111.04,43.939c0,1.396,1.479,1.986,2.737,2.47c0.984,0.375,2.025,0.805,2.025,1.448
					c0,0.215-0.056,0.376-0.165,0.483c-0.219,0.269-0.711,0.376-1.478,0.376c-0.767-0.055-1.587-0.269-2.572-0.697l-0.384-0.162
					v0.322v1.449l0.273,0.054l0.165,0.054c0.493,0.107,1.368,0.322,2.299,0.322c2.407,0,3.831-0.912,3.831-2.469
					c0-1.449-1.478-2.04-2.792-2.522c-0.984-0.376-1.97-0.751-1.97-1.396c0-0.161,0-0.697,1.259-0.697
					c0.931,0,1.807,0.375,2.299,0.59l0.493,0.215v-0.322V41.9l-0.548-0.107c-0.438-0.107-1.259-0.215-2.024-0.215
					C112.409,41.578,111.04,42.545,111.04,43.939z"/>
			</g>
			<g>
				<g>
					<g>
						<path fill="#FFFFFF" d="M59.646,55.586v1.127c-1.04-0.054-2.956-0.106-2.956-0.106c-0.164,0-0.328,0-0.493,0
							c0,0.644,0,1.395,0,1.878l2.409-0.054v1.073h-2.409v0.161c0,0.805,0.056,1.985,0.11,2.791h-2.299
							c0.109-1.02,0.109-3.006,0.109-3.596c0-0.645,0-2.522-0.055-3.274H59.646z"/>
						<path fill="#FFFFFF" d="M64.518,62.617c-2.189,0-3.831-1.449-3.831-3.596s1.642-3.596,3.831-3.596
							c2.188,0,3.832,1.449,3.832,3.596S66.706,62.617,64.518,62.617z M64.518,56.284c-0.985,0-1.643,0.966-1.643,2.737
							c0,1.771,0.657,2.736,1.643,2.736s1.641-0.966,1.641-2.736C66.158,57.25,65.558,56.284,64.518,56.284z"/>
						<path fill="#FFFFFF" d="M73.439,55.586c1.531,0,3.338,0.537,3.338,2.147c0,0.858-0.656,1.449-1.641,1.878
							c0.218,0.376,1.915,2.522,2.243,2.898h-2.518c-0.438-0.805-1.26-2.254-2.135-3.488c0.984,0.106,1.861-0.322,1.861-1.288
							c0-0.913-1.04-1.182-1.588-1.182c-0.219,0-0.657,0-0.82,0c-0.056,0.859-0.056,1.825-0.056,2.309c0,0.59,0,2.576,0.109,3.596
							h-2.354c0.109-1.02,0.164-2.255,0.164-3.596c0-1.181,0-2.576-0.108-3.274H73.439z"/>
						<path fill="#FFFFFF" d="M84.495,55.586v1.127c-1.04-0.106-1.424-0.161-2.244-0.161c-0.055,0.806-0.055,1.879-0.055,2.309
							c0,0.59,0,2.576,0.109,3.596h-2.354c0.109-1.02,0.109-3.006,0.109-3.596c0-0.43-0.056-1.557-0.056-2.309
							c-0.82,0-1.257,0.055-2.243,0.161v-1.127H84.495z"/>
						<path fill="#FFFFFF" d="M88.437,55.586c-0.056,0.752-0.11,2.63-0.11,3.274c0,0.59,0,2.63,0.11,3.596h-2.3
							c0.109-1.02,0.109-3.006,0.109-3.596c0-0.645-0.054-2.522-0.109-3.274H88.437z"/>
						<path fill="#FFFFFF" d="M93.417,55.371c0.875,0,1.751,0.107,2.298,0.269v1.771c-0.766-0.43-1.532-0.805-2.518-0.805
							c-0.766,0-0.821,0.321-0.821,0.536c0,1.181,3.996,1.181,3.996,3.221c0,1.342-1.259,2.2-3.448,2.2
							c-0.986,0-1.86-0.215-2.519-0.43V60.47c1.479,0.698,2.245,0.913,2.901,0.913c0.548,0,0.931-0.269,0.931-0.698
							c0-1.288-3.995-1.181-3.995-3.435C90.296,56.069,91.556,55.371,93.417,55.371z"/>
					</g>
				</g>
			</g>
		</g>
	</g>
</g>
</svg>
