<?xml version="1.0" standalone="no"?>
<!DOCTYPE svg PUBLIC "-//W3C//DTD SVG 1.1//EN" "http://www.w3.org/Graphics/SVG/1.1/DTD/svg11.dtd" >
<svg xmlns="http://www.w3.org/2000/svg">
<metadata></metadata>
<defs>
<font id="bnpp_sans_condensedregular" horiz-adv-x="706" >
<font-face units-per-em="2048" ascent="1536" descent="-512" />
<missing-glyph horiz-adv-x="296" />
<glyph unicode="&#xfb01;" horiz-adv-x="704" d="M-72 -160q51 -14 76 -14q105 0 105 139v987h-93v133h93v144q0 114 52.5 159.5t145.5 45.5h103v-138h-80q-38 0 -52 -14.5t-14 -56.5v-140h348v-1085h-153v952h-195v-979q0 -77 -20.5 -134t-56 -88t-76.5 -45.5t-88 -14.5q-44 0 -95 14v135zM459 1229v205h153v-205h-153z " />
<glyph unicode="&#xfb02;" horiz-adv-x="704" d="M-72 -160q51 -14 76 -14q105 0 105 139v987h-93v133h93v144q0 114 52.5 159.5t145.5 45.5h103v-138h-80q-38 0 -52 -14.5t-14 -56.5v-140h142v-133h-142v-979q0 -77 -20.5 -134t-56 -88t-76.5 -45.5t-88 -14.5q-44 0 -95 14v135zM459 0v1434l153 30v-1464h-153z" />
<glyph unicode="&#xfb03;" horiz-adv-x="1054" d="M-72 -160q51 -14 76 -14q105 0 105 139v987h-93v133h93v144q0 114 52.5 159.5t145.5 45.5h103v-138h-80q-38 0 -52 -14.5t-14 -56.5v-140h195v144q0 114 52.5 159.5t145.5 45.5h103v-138h-80q-38 0 -52 -14.5t-14 -56.5v-140h349v-1085h-154v952h-195v-979 q0 -77 -20.5 -134t-56 -88t-76.5 -45.5t-88 -14.5q-43 0 -94 14v135q51 -14 75 -14q105 0 105 139v987h-195v-979q0 -77 -20.5 -134t-56 -88t-76.5 -45.5t-88 -14.5q-44 0 -95 14v135zM809 1229v205h154v-205h-154z" />
<glyph unicode="&#xfb04;" horiz-adv-x="1054" d="M-72 -160q51 -14 76 -14q105 0 105 139v987h-93v133h93v144q0 114 52.5 159.5t145.5 45.5h103v-138h-80q-38 0 -52 -14.5t-14 -56.5v-140h195v144q0 114 52.5 159.5t145.5 45.5h103v-138h-80q-38 0 -52 -14.5t-14 -56.5v-140h142v-133h-142v-979q0 -77 -20.5 -134 t-56 -88t-76.5 -45.5t-88 -14.5q-43 0 -94 14v135q51 -14 75 -14q105 0 105 139v987h-195v-979q0 -77 -20.5 -134t-56 -88t-76.5 -45.5t-88 -14.5q-44 0 -95 14v135zM809 0v1434l154 30v-1464h-154z" />
<glyph horiz-adv-x="0" />
<glyph horiz-adv-x="682" />
<glyph unicode=" "  horiz-adv-x="296" />
<glyph unicode="&#x09;" horiz-adv-x="296" />
<glyph unicode="&#xa0;" horiz-adv-x="296" />
<glyph unicode="!" horiz-adv-x="362" d="M102 1434h158l-12 -1129h-135zM106 0v186h150v-186h-150z" />
<glyph unicode="&#x22;" horiz-adv-x="479" d="M68 948v486h141v-486h-141zM270 948v486h142v-486h-142z" />
<glyph unicode="#" horiz-adv-x="786" d="M4 369l6 141h152l43 403h-150l6 142h158l39 379h133l-39 -379h154l39 379h133l-39 -379h139l-6 -142h-149l-41 -403h145l-6 -141h-156l-37 -369h-133l37 369h-153l-37 -369h-133l36 369h-141zM295 510h154l43 403h-156z" />
<glyph unicode="$" d="M66 307v103l159 34v-129q0 -139 131 -139q58 0 93.5 38t35.5 103v99q0 37 -15 70t-27.5 47.5t-39.5 41.5l-186 173q-65 60 -100 120t-35 140v102q0 118 63 189t162 87v150h109v-154q94 -18 155.5 -90.5t61.5 -181.5v-117l-160 -32v139q0 137 -117 137q-56 0 -85 -36 t-29 -103v-70q0 -49 21 -82.5t69 -79.5l188 -176q58 -52 91.5 -108t33.5 -129v-148q0 -113 -66 -184t-163 -90v-211h-109v207q-105 14 -173 88.5t-68 191.5z" />
<glyph unicode="%" horiz-adv-x="1048" d="M78 860v402q0 108 44 152t126 44q79 0 123.5 -44.5t44.5 -151.5v-402q0 -196 -168 -196q-81 0 -125.5 45t-44.5 151zM188 854q0 -53 14.5 -71.5t45.5 -18.5q28 0 42.5 18.5t14.5 71.5v416q0 50 -14.5 69t-42.5 19q-30 0 -45 -18.5t-15 -69.5v-416zM197 0l544 1434h115 l-547 -1434h-112zM631 172v401q0 108 44.5 152.5t125.5 44.5q168 0 168 -197v-401q0 -197 -168 -197q-81 0 -125.5 45.5t-44.5 151.5zM741 166q0 -53 14.5 -71.5t45.5 -18.5q28 0 42.5 18.5t14.5 71.5v416q0 50 -14.5 69t-42.5 19q-30 0 -45 -18.5t-15 -69.5v-416z" />
<glyph unicode="&#x26;" horiz-adv-x="862" d="M57 283v190q0 68 28.5 127.5t63 95t87.5 76.5q-39 64 -60.5 103t-40 94.5t-18.5 105.5v113q0 126 70 198t192 72q123 0 192.5 -72t69.5 -198v-107q0 -50 -17.5 -96t-54.5 -88.5t-69 -72t-86 -72.5l221 -383q8 70 8 112q0 114 -33 226h138q28 -80 28 -195q0 -163 -55 -291 l131 -221h-156l-55 96q-96 -121 -250 -121q-159 0 -246.5 81.5t-87.5 226.5zM203 281q0 -86 50.5 -130.5t139.5 -44.5q114 0 176 105l-264 451q-49 -42 -75.5 -86t-26.5 -103v-192zM268 1079q0 -88 80 -223q74 62 107.5 110t33.5 113v107q0 143 -112 143q-109 0 -109 -143 v-107z" />
<glyph unicode="'" horiz-adv-x="276" d="M68 948v486h141v-486h-141z" />
<glyph unicode="(" horiz-adv-x="434" d="M57 604q0 141 16 269.5t37 217t57 181t61 143t65 121.5h141q-49 -84 -84.5 -160t-76.5 -192.5t-63 -264t-22 -315.5t22 -315.5t63 -264t76.5 -192.5t84.5 -160h-141q-40 72 -65 121.5t-61 142.5t-57 181t-37 216.5t-16 270.5z" />
<glyph unicode=")" horiz-adv-x="434" d="M0 -328q49 84 84.5 160t76.5 192.5t63 264t22 315.5t-22 315.5t-63 264t-76.5 192.5t-84.5 160h141q40 -71 65 -121.5t61 -143t57 -181t37 -217t16 -269.5q0 -142 -16 -270.5t-37 -216.5t-57 -181t-61 -142.5t-65 -121.5h-141z" />
<glyph unicode="*" horiz-adv-x="487" d="M47 1194l123 45l-123 47l57 100l103 -83l-21 131h117l-22 -131l102 83l57 -100l-123 -47l123 -45l-57 -102l-102 84l22 -129h-117l21 129l-103 -84z" />
<glyph unicode="+" horiz-adv-x="677" d="M55 610v140h213v290h140v-290h217v-140h-217v-286h-140v286h-213z" />
<glyph unicode="," horiz-adv-x="253" d="M-27 -270l95 456h153l-121 -456h-127z" />
<glyph unicode="-" horiz-adv-x="430" d="M47 606v146h336v-146h-336z" />
<glyph unicode="." horiz-adv-x="286" d="M68 0v186h151v-186h-151z" />
<glyph unicode="/" horiz-adv-x="444" d="M-20 -162l374 1616h111l-375 -1616h-110z" />
<glyph unicode="0" horiz-adv-x="716" d="M76 326v782q0 190 73 270t209 80q135 0 210 -80t75 -270v-782q0 -190 -75 -270.5t-210 -80.5q-136 0 -209 80t-73 271zM229 326q0 -114 31.5 -156.5t97.5 -42.5q67 0 98 42.5t31 156.5v782q0 114 -31 155.5t-98 41.5q-66 0 -97.5 -41.5t-31.5 -155.5v-782z" />
<glyph unicode="1" horiz-adv-x="438" d="M37 1247v142l299 45v-1434h-156v1270z" />
<glyph unicode="2" horiz-adv-x="692" d="M72 0v147q0 98 21.5 183.5t55.5 146.5t75.5 114.5t82.5 98t75 86t55.5 89.5t21.5 98v202q0 65 -30 102.5t-87 37.5t-87 -35.5t-30 -102.5v-168l-153 35v88q0 32 4 86q10 113 85.5 181.5t180.5 68.5q107 0 187 -65.5t89 -184.5q5 -31 5 -80v-147q0 -45 -9 -86 q-10 -59 -43.5 -117t-75 -102.5t-89 -99t-86 -106t-64 -123.5t-25.5 -152v-45h390v-150h-549z" />
<glyph unicode="3" horiz-adv-x="684" d="M68 258v141l149 35v-168q0 -137 117 -137q56 0 85.5 36t29.5 103v199q0 103 -34.5 149t-107.5 46h-92v141h100q65 0 99.5 40t34.5 132v190q0 67 -29.5 103.5t-85.5 36.5q-57 0 -87 -35.5t-30 -102.5v-168l-149 35v142q0 128 75.5 205t188.5 77q115 0 195.5 -73.5 t80.5 -206.5v-195q0 -82 -34 -140.5t-105 -101.5v-2q77 -31 108 -83.5t31 -176.5v-223q0 -137 -80 -209t-196 -72q-113 0 -188.5 77.5t-75.5 205.5z" />
<glyph unicode="4" horiz-adv-x="669" d="M20 317v138l336 979h201v-967h88v-150h-88v-317h-156v317h-381zM150 467h251v747z" />
<glyph unicode="5" horiz-adv-x="677" d="M68 311v88l149 35v-168q0 -137 117 -137q56 0 85.5 36t29.5 103v307q0 105 -51.5 151.5t-127.5 39.5q-52 -3 -114 -33l-62 70v631h500v-150h-356v-387q47 12 94 12q119 0 197.5 -79t78.5 -234v-281q0 -63 -4 -92q-4 -62 -28.5 -111t-62.5 -78t-84 -44t-97 -15 q-106 0 -178.5 68t-81.5 182q-4 54 -4 86z" />
<glyph unicode="6" horiz-adv-x="708" d="M68 326v782q0 190 75 270t211 80q117 0 188 -65.5t79 -178.5q4 -62 4 -92v-88l-158 -35v168q0 138 -115 138q-66 0 -96.5 -41.5t-30.5 -155.5v-336q37 40 100 59t126 9q81 -12 134.5 -76t53.5 -182v-256q0 -190 -75 -270.5t-210 -80.5t-210.5 81.5t-75.5 269.5zM225 340 q0 -122 30.5 -167.5t98.5 -45.5t98.5 45.5t30.5 167.5v227q0 73 -40.5 109t-100.5 33q-71 -7 -117 -56v-313z" />
<glyph unicode="7" horiz-adv-x="614" d="M25 1284v150h575v-140l-369 -1294h-163l376 1284h-419z" />
<glyph unicode="8" horiz-adv-x="714" d="M68 256v223q0 106 28 164.5t90 89.5q-61 43 -89.5 99.5t-28.5 144.5v201q0 134 82.5 207t207.5 73t207 -73t82 -207v-201q0 -88 -29 -144.5t-90 -99.5q63 -31 91 -89.5t28 -164.5v-223q0 -137 -83 -209t-206 -72q-124 0 -207 72t-83 209zM225 262q0 -139 133 -139 q65 0 98 36t33 103v207q0 101 -30 144.5t-101 43.5t-102 -43.5t-31 -144.5v-207zM225 973q0 -168 133 -168q131 0 131 168v198q0 67 -33.5 103.5t-97.5 36.5q-65 0 -99 -36.5t-34 -103.5v-198z" />
<glyph unicode="9" horiz-adv-x="708" d="M70 852v256q0 190 74.5 270t209.5 80q136 0 211.5 -81t75.5 -269v-782q0 -190 -75.5 -270.5t-211.5 -80.5q-117 0 -187.5 65.5t-78.5 178.5q-4 62 -4 92v88l158 35v-168q0 -137 114 -137q66 0 96.5 41.5t30.5 155.5v336q-37 -40 -99.5 -59t-125.5 -9q-81 12 -134.5 76 t-53.5 182zM225 866q0 -72 41 -108t101 -33q71 7 116 55v314q0 122 -30.5 167.5t-98.5 45.5t-98.5 -45.5t-30.5 -167.5v-228z" />
<glyph unicode=":" horiz-adv-x="301" d="M74 0v186h151v-186h-151zM74 899v186h151v-186h-151z" />
<glyph unicode=";" horiz-adv-x="305" d="M-12 -270l94 456h154l-121 -456h-127zM78 899v186h151v-186h-151z" />
<glyph unicode="&#x3c;" horiz-adv-x="624" d="M61 598v162l494 338v-164l-375 -256l375 -248v-166z" />
<glyph unicode="=" horiz-adv-x="665" d="M68 449v139h528v-139h-528zM68 772v139h528v-139h-528z" />
<glyph unicode="&#x3e;" horiz-adv-x="624" d="M70 264v166l374 248l-374 256v164l493 -338v-162z" />
<glyph unicode="?" horiz-adv-x="616" d="M31 1034v142q0 128 74.5 205t187.5 77q115 0 196.5 -74t81.5 -206v-179q0 -55 -23 -110.5t-55.5 -101.5t-65.5 -92t-56 -100t-23 -108v-184h-149v182q0 71 21.5 134t52.5 109t61.5 88t52 89t21.5 94v166q0 67 -29.5 103.5t-85.5 36.5t-80.5 -34.5t-24.5 -103.5v-168z M199 0v186h149v-186h-149z" />
<glyph unicode="@" horiz-adv-x="1091" d="M96 129v639q0 95 23.5 170t64 124.5t98 81.5t122 46t139.5 14q94 0 174 -23.5t144 -71t100 -127t36 -183.5v-500q0 -109 -57 -168t-143 -59q-105 0 -148 86q-35 -52 -83 -75t-95 -17q-56 8 -92.5 54t-36.5 120v462q0 100 56.5 147.5t140.5 47.5q121 0 206 -72v-549 q0 -46 14 -67t48 -21q63 0 63 111v489q0 82 -25.5 142t-71.5 94t-104 50t-130 16q-56 0 -101 -8.5t-86.5 -31t-69.5 -58.5t-44.5 -92.5t-16.5 -131.5v-627q0 -80 26 -136.5t74.5 -88t110 -45.5t141.5 -14q171 0 336 57v-123q-169 -49 -348 -49q-465 0 -465 387zM469 270 q0 -51 23.5 -68t54.5 1q35 11 67 61v490q-25 18 -50.5 22t-46.5 -5.5t-34.5 -37t-13.5 -69.5v-394z" />
<glyph unicode="A" horiz-adv-x="755" d="M16 0l250 1434h219l254 -1434h-170l-55 344h-285l-55 -344h-158zM248 481h246l-121 754h-6z" />
<glyph unicode="B" horiz-adv-x="786" d="M106 0v1434h287q134 0 207.5 -62.5t73.5 -210.5v-209q0 -155 -137 -217v-2q74 -27 115.5 -76t41.5 -147v-242q0 -132 -82 -200t-221 -68h-285zM270 147h121q58 0 95.5 29.5t37.5 89.5v254q0 66 -39.5 101.5t-99.5 35.5h-115v-510zM270 801h119q55 0 89 37.5t34 103.5v211 q0 133 -129 133h-113v-485z" />
<glyph unicode="C" horiz-adv-x="747" d="M72 326v782q0 95 24 164.5t67.5 109t97 58t120.5 18.5q64 0 117.5 -18.5t97 -58t68 -109t24.5 -164.5v-72l-164 -35v107q0 110 -37 153.5t-106 43.5t-107 -43.5t-38 -153.5v-784q0 -108 38 -152.5t107 -44.5t106 44t37 153v108l164 35v-141q0 -95 -24.5 -165t-68 -109.5 t-97 -58t-117.5 -18.5q-67 0 -120.5 18.5t-97 58t-67.5 109.5t-24 165z" />
<glyph unicode="D" horiz-adv-x="790" d="M106 0v1434h304q65 0 118.5 -18.5t97.5 -58t68.5 -109.5t24.5 -165v-733q0 -95 -24.5 -164.5t-68.5 -109t-97.5 -58t-118.5 -18.5h-304zM270 154h140q69 0 107 44t38 152v733q0 108 -38 152.5t-107 44.5h-140v-1126z" />
<glyph unicode="E" horiz-adv-x="614" d="M106 0v1434h435v-150h-271v-481h236v-152h-236v-501h289v-150h-453z" />
<glyph unicode="F" horiz-adv-x="585" d="M106 0v1434h435v-150h-271v-489h224v-150h-224v-645h-164z" />
<glyph unicode="G" horiz-adv-x="802" d="M72 324v784q0 95 24 164.5t67.5 109t97 58t120.5 18.5q65 0 119 -18.5t99.5 -57.5t71 -109t25.5 -165v-72l-164 -35v107q0 108 -39.5 152.5t-109.5 44.5q-147 0 -147 -197v-784q0 -197 149 -197q152 0 152 223v279h-172v149h331v-778h-151v74q-69 -99 -195 -99 q-127 0 -202.5 87t-75.5 262z" />
<glyph unicode="H" horiz-adv-x="843" d="M106 0v1434h164v-643h303v643h164v-1434h-164v639h-303v-639h-164z" />
<glyph unicode="I" horiz-adv-x="374" d="M106 0v1434h164v-1434h-164z" />
<glyph unicode="J" horiz-adv-x="425" d="M8 6v154q44 -23 86 -23q38 0 51 25t13 78v1194h161v-1198q0 -129 -50 -195t-142 -66q-55 0 -119 31z" />
<glyph unicode="K" horiz-adv-x="737" d="M106 0v1434h164v-674l279 674h170l-266 -607l270 -827h-174l-205 641l-74 -174v-467h-164z" />
<glyph unicode="L" horiz-adv-x="550" d="M98 0v1434h164v-1284h252v-150h-416z" />
<glyph unicode="M" horiz-adv-x="1097" d="M86 0l59 1434h211l197 -1100l186 1100h213l60 -1434h-164l-35 1137l-178 -1022h-170l-184 1020l-31 -1135h-164z" />
<glyph unicode="N" horiz-adv-x="864" d="M106 0v1434h197l293 -1121v1121h156v-1434h-197l-295 1112v-1112h-154z" />
<glyph unicode="O" horiz-adv-x="759" d="M72 326v782q0 95 24 164.5t67.5 109t97 58t120.5 18.5q64 0 117.5 -18.5t97 -58t68 -109t24.5 -164.5v-782q0 -95 -24.5 -165t-68 -109.5t-97 -58t-117.5 -18.5q-67 0 -120.5 18.5t-97 58t-67.5 109.5t-24 165zM236 326q0 -110 38 -153.5t107 -43.5t106 43.5t37 153.5 v782q0 110 -37 153.5t-106 43.5t-107 -43.5t-38 -153.5v-782z" />
<glyph unicode="P" horiz-adv-x="737" d="M106 0v1434h269q135 0 215 -69.5t80 -219.5v-330q0 -150 -84.5 -220.5t-223.5 -70.5h-92v-524h-164zM270 678h97q139 0 139 137v330q0 69 -36 105t-101 36h-99v-608z" />
<glyph unicode="Q" horiz-adv-x="759" d="M72 326v782q0 95 24 164.5t67.5 109t97 58t120.5 18.5q64 0 117.5 -18.5t97 -58t68 -109t24.5 -164.5v-782q0 -260 -180 -328l121 -244h-162l-90 221q-138 2 -221.5 85t-83.5 266zM236 326q0 -109 38 -154t107 -45q68 0 105.5 45t37.5 154v782q0 109 -37 153t-106 44 t-107 -44.5t-38 -152.5v-782z" />
<glyph unicode="R" horiz-adv-x="743" d="M106 0v1434h273q65 0 115.5 -13.5t90.5 -44t61.5 -85t21.5 -130.5v-250q0 -76 -37 -134.5t-105 -84.5v-2q67 -27 103.5 -79.5t36.5 -159.5v-451h-168v455q0 75 -35.5 117t-97.5 42h-95v-614h-164zM270 764h99q58 0 97.5 35t39.5 106v248q0 67 -36 100t-101 33h-99v-522z " />
<glyph unicode="S" horiz-adv-x="739" d="M78 258v143l162 35v-168q0 -139 129 -139q59 0 94 37.5t35 103.5v146q0 38 -15 71t-28 47t-41 41l-187 173q-65 60 -100 120t-35 140v170q0 132 82.5 206t196.5 74q116 0 196 -77.5t80 -204.5v-142l-160 -35v168q0 67 -30 102.5t-86 35.5q-115 0 -115 -140v-118 q0 -60 22.5 -96.5t71.5 -80.5l191 -176q121 -108 121 -241v-195q0 -131 -89 -207t-204 -76q-123 0 -207 77t-84 206z" />
<glyph unicode="T" horiz-adv-x="614" d="M20 1284v150h574v-150h-205v-1284h-164v1284h-205z" />
<glyph unicode="U" horiz-adv-x="798" d="M98 326v1108h164v-1108q0 -110 34.5 -154.5t100.5 -44.5t100.5 44.5t34.5 154.5v1108h166v-1108q0 -95 -23 -165t-65.5 -109.5t-95 -58t-117.5 -18.5q-137 0 -218 83t-81 268z" />
<glyph unicode="V" horiz-adv-x="751" d="M16 1434h172l193 -1229h6l191 1229h155l-250 -1434h-211z" />
<glyph unicode="W" horiz-adv-x="1146" d="M20 1434h170l144 -1162l147 1162h195l145 -1160l133 1160h172l-194 -1434h-207l-147 1210l-152 -1210h-207z" />
<glyph unicode="X" horiz-adv-x="753" d="M20 0l265 729l-250 705h174l178 -512l168 512h166l-252 -703l264 -731h-174l-188 545l-185 -545h-166z" />
<glyph unicode="Y" horiz-adv-x="722" d="M20 1434h177l176 -689l172 689h157l-258 -885v-549h-163v549z" />
<glyph unicode="Z" horiz-adv-x="729" d="M45 0v121l455 1155h-432v158h616v-123l-455 -1153h453v-158h-637z" />
<glyph unicode="[" horiz-adv-x="393" d="M98 -328v1864h269v-117h-140v-1630h140v-117h-269z" />
<glyph unicode="\" horiz-adv-x="464" d="M0 1454h111l374 -1616h-110z" />
<glyph unicode="]" horiz-adv-x="393" d="M27 -211h139v1630h-139v117h268v-1864h-268v117z" />
<glyph unicode="^" horiz-adv-x="665" d="M41 719l221 715h139l222 -715h-138l-153 532l-154 -532h-137z" />
<glyph unicode="_" horiz-adv-x="641" d="M0 -16h641v-127h-641v127z" />
<glyph unicode="`" horiz-adv-x="1024" d="M377 1434h162l106 -250h-104z" />
<glyph unicode="a" horiz-adv-x="675" d="M51 229v150q0 113 73 173t185 60h107v234q0 133 -101 133q-100 0 -100 -133v-96l-147 20v72q0 116 67 192t182 76q127 0 189.5 -72t62.5 -245v-619q0 -38 7 -54t28 -16q19 0 51 19v-111q-56 -37 -108 -37q-45 0 -77 25t-38 68q-67 -93 -178 -93q-203 0 -203 254zM199 211 q0 -54 23.5 -81.5t64.5 -27.5q33 0 67 22.5t60 57.5v316h-99q-56 0 -86 -30.5t-30 -88.5v-168z" />
<glyph unicode="b" horiz-adv-x="720" d="M92 0v1434l154 30v-442q80 88 182 88q103 0 158 -68.5t55 -205.5v-580q0 -128 -67 -204.5t-162 -76.5q-97 0 -170 86v-61h-150zM246 182q25 -34 60 -56t67 -22q48 0 81 39.5t33 112.5v571q0 78 -30 115t-80 37q-35 0 -70.5 -20.5t-60.5 -53.5v-723z" />
<glyph unicode="c" horiz-adv-x="694" d="M78 264v557q0 77 23.5 134.5t63.5 90.5t87.5 48.5t101.5 15.5q53 0 100 -15.5t87.5 -48.5t64 -90.5t23.5 -134.5v-69l-154 -21v96q0 78 -33 115t-88 37q-56 0 -88.5 -37t-32.5 -115v-569q0 -78 32.5 -115t88.5 -37q55 0 88 37t33 115v92l154 23v-109q0 -77 -23.5 -134.5 t-64 -90.5t-87.5 -48.5t-100 -15.5q-54 0 -101.5 15.5t-87.5 48.5t-63.5 90.5t-23.5 134.5z" />
<glyph unicode="d" horiz-adv-x="712" d="M78 250v586q0 129 63 201.5t160 72.5q86 0 166 -66v390l154 30v-1464h-150v63q-84 -88 -174 -88q-95 0 -157 72.5t-62 202.5zM231 281q0 -177 113 -177q66 0 123 78v750q-71 47 -131 47q-47 0 -76 -36t-29 -116v-546z" />
<glyph unicode="e" d="M78 264v557q0 77 23.5 134.5t63.5 90.5t87.5 48.5t101.5 15.5q53 0 100 -15.5t87.5 -48.5t64 -90.5t23.5 -134.5v-252h-396v-311q0 -78 32.5 -115t88.5 -37q55 0 88 37t33 115v92l154 23v-109q0 -77 -23.5 -134.5t-64 -90.5t-87.5 -48.5t-100 -15.5q-54 0 -101.5 15.5 t-87.5 48.5t-63.5 90.5t-23.5 134.5zM233 680h242v147q0 78 -33 115t-88 37q-56 0 -88.5 -37t-32.5 -115v-147z" />
<glyph unicode="f" horiz-adv-x="372" d="M-72 -162q44 -12 74 -12q107 0 107 139v987h-93v133h93v134q0 77 21.5 134t59 88t80 45.5t90.5 14.5q44 0 95 -14v-137q-43 12 -78 12q-57 0 -86 -35.5t-29 -101.5v-140h156v-133h-156v-979q0 -77 -20.5 -134t-55.5 -88t-75.5 -45.5t-87.5 -14.5q-44 0 -95 14v133z" />
<glyph unicode="g" horiz-adv-x="702" d="M78 248v588q0 134 60.5 204t162.5 70q53 0 97.5 -25.5t72.5 -62.5v63h154v-1087q0 -141 -86 -224t-232 -83q-83 0 -174 33v133q95 -31 164 -31q81 0 127.5 38t46.5 109v88q-30 -36 -77.5 -56.5t-94.5 -20.5q-90 0 -155.5 69.5t-65.5 194.5zM233 276q0 -167 113 -167 q33 0 67 19t58 52v721q-63 78 -137 78q-55 0 -78 -39t-23 -133v-531z" />
<glyph unicode="h" horiz-adv-x="722" d="M92 0v1434l154 30v-442q30 37 79 62.5t107 25.5q88 0 147.5 -65t59.5 -191v-854h-156v838q0 65 -29 101t-75 36q-69 0 -133 -76v-899h-154z" />
<glyph unicode="i" horiz-adv-x="337" d="M92 0v1085h154v-1085h-154zM92 1229v205h154v-205h-154z" />
<glyph unicode="j" horiz-adv-x="337" d="M-76 -160q51 -14 74 -14q52 0 73 34.5t21 104.5v1120h154v-1112q0 -78 -19 -135t-52.5 -88t-72 -45t-84.5 -14q-40 0 -94 14v135zM92 1229v205h154v-205h-154z" />
<glyph unicode="k" horiz-adv-x="643" d="M92 0v1434l154 30v-811l217 432h166l-217 -430l223 -655h-164l-172 496l-53 -103v-393h-154z" />
<glyph unicode="l" horiz-adv-x="337" d="M92 0v1434l154 30v-1464h-154z" />
<glyph unicode="m" horiz-adv-x="1081" d="M92 0v1085h150v-71q69 96 180 96q53 0 101 -27.5t73 -78.5q75 106 195 106q87 0 145.5 -66t58.5 -190v-854h-153v834q0 68 -30.5 104.5t-74.5 36.5q-64 0 -116 -74v-901h-154v834q0 71 -26 106t-72 35q-61 0 -123 -74v-901h-154z" />
<glyph unicode="n" horiz-adv-x="727" d="M92 0v1085h150v-71q28 40 81 68t113 28q88 0 146.5 -65t58.5 -191v-854h-154v838q0 67 -29 102t-77 35q-71 0 -135 -76v-899h-154z" />
<glyph unicode="o" d="M78 264v557q0 77 23.5 134.5t63.5 90.5t87.5 48.5t101.5 15.5q53 0 100 -15.5t87.5 -48.5t64 -90.5t23.5 -134.5v-557q0 -77 -23.5 -134.5t-64 -90.5t-87.5 -48.5t-100 -15.5q-54 0 -101.5 15.5t-87.5 48.5t-63.5 90.5t-23.5 134.5zM233 258q0 -78 32.5 -115t88.5 -37 q55 0 88 37t33 115v569q0 78 -33 115t-88 37q-56 0 -88.5 -37t-32.5 -115v-569z" />
<glyph unicode="p" horiz-adv-x="716" d="M92 -326v1411h154v-63q32 37 78.5 62.5t99.5 25.5q213 0 213 -274v-586q0 -127 -66 -201t-157 -74q-46 0 -92 22.5t-76 61.5v-358zM246 182q25 -35 59 -56.5t66 -21.5q47 0 79.5 39.5t32.5 112.5v571q0 152 -108 152q-34 0 -69 -20.5t-60 -53.5v-723z" />
<glyph unicode="q" horiz-adv-x="716" d="M78 250v590q0 135 59.5 202.5t161.5 67.5q53 0 98.5 -26t73.5 -62v63h154v-1378l-154 -31v387q-31 -38 -80 -63t-94 -25q-89 0 -154 74.5t-65 200.5zM231 256q0 -73 34 -113.5t81 -40.5q31 0 65 22.5t60 57.5v719q-63 78 -137 78q-103 0 -103 -152v-571z" />
<glyph unicode="r" horiz-adv-x="454" d="M90 0v1085h152v-94q87 108 196 117v-190q-130 -7 -192 -91v-827h-156z" />
<glyph unicode="s" horiz-adv-x="649" d="M78 215v104l145 25v-123q0 -58 30 -87.5t79 -29.5q46 0 72 29t26 86v92q0 27 -17.5 51t-52.5 54l-170 141q-110 92 -110 199v116q0 111 72 174.5t174 63.5q114 0 180.5 -63t66.5 -177v-90l-145 -24v108q0 58 -27.5 87.5t-76.5 29.5q-93 0 -93 -115v-90q0 -28 16 -51.5 t52 -54.5l176 -148q107 -90 107 -190v-119q0 -110 -74.5 -174t-177.5 -64q-115 0 -183.5 63t-68.5 177z" />
<glyph unicode="t" horiz-adv-x="448" d="M18 952v133h88v222l150 34v-256h158v-133h-158v-731q0 -104 90 -104q35 0 84 22v-139q-66 -25 -113 -25q-98 0 -156.5 62t-58.5 186v729h-84z" />
<glyph unicode="u" horiz-adv-x="712" d="M86 264v821h154v-827q0 -152 116 -152q54 0 85.5 37t31.5 115v827h154v-821q0 -77 -22.5 -134.5t-62 -90.5t-86 -48.5t-100.5 -15.5t-100.5 15.5t-85.5 48.5t-61.5 90.5t-22.5 134.5z" />
<glyph unicode="v" horiz-adv-x="673" d="M16 1085h162l164 -886h4l160 886h149l-223 -1085h-184z" />
<glyph unicode="w" horiz-adv-x="1007" d="M27 1085h157l121 -819h4l115 819h166l121 -819h4l112 819h154l-182 -1085h-172l-119 840h-4l-121 -840h-170z" />
<glyph unicode="x" horiz-adv-x="667" d="M20 0l220 557l-217 528h167l152 -399l137 399h152l-207 -540l223 -545h-164l-159 399l-152 -399h-152z" />
<glyph unicode="y" horiz-adv-x="661" d="M-16 -162q52 -16 100 -16q73 0 112 54t62 185l-233 1024h159l158 -772l152 772h149l-235 -1040q-79 -356 -312 -356q-64 0 -112 18v131z" />
<glyph unicode="z" horiz-adv-x="647" d="M47 0v125l375 813h-352v147h522v-124l-375 -814h381v-147h-551z" />
<glyph unicode="{" horiz-adv-x="407" d="M8 549v110q49 0 81 50.5t32 128.5v419q0 164 43 229t133 68q33 3 78 -4v-112q-46 6 -69.5 -0.5t-33.5 -30.5q-26 -26 -26 -92v-488q0 -76 -32 -137t-83 -86q51 -25 83 -86t32 -137v-485q0 -69 26 -95q10 -23 34.5 -29.5t68.5 1.5v-121q-27 -6 -78 -6q-60 3 -96.5 29 t-58 92t-21.5 178v426q0 78 -31.5 128t-81.5 50z" />
<glyph unicode="|" horiz-adv-x="327" d="M102 -512v2048h123v-2048h-123z" />
<glyph unicode="}" horiz-adv-x="407" d="M33 -227q44 -8 68 -1.5t34 29.5q27 27 27 95v485q0 76 31.5 137t82.5 86q-51 25 -82.5 86t-31.5 137v488q0 65 -27 92q-10 24 -33 30.5t-69 0.5v112q45 7 78 4q90 -3 133 -68t43 -229v-419q0 -78 31.5 -128.5t80.5 -50.5v-110q-49 0 -80.5 -50t-31.5 -128v-426 q0 -112 -21.5 -178t-58 -92t-96.5 -29q-51 0 -78 6v121z" />
<glyph unicode="~" horiz-adv-x="663" d="M43 596q9 88 52 143.5t112 55.5q40 0 120.5 -38t110.5 -38q14 0 23 6.5t13.5 22t6 24.5t2 30.5t0.5 22.5l135 -20q-4 -221 -167 -221q-44 0 -119 35.5t-107 35.5q-61 0 -61 -92z" />
<glyph unicode="&#xa1;" horiz-adv-x="362" d="M102 -348l11 1128h135l12 -1128h-158zM106 899v186h150v-186h-150z" />
<glyph unicode="&#xa2;" horiz-adv-x="751" d="M66 389v655q0 167 70 250.5t188 96.5v145h106v-147q114 -15 183 -98.5t69 -246.5v-71l-164 -35v106q0 108 -38 152.5t-107 44.5q-68 0 -106 -44.5t-38 -152.5v-655q0 -109 38 -152.5t106 -43.5q70 0 107.5 43t37.5 153v107l164 34v-141q0 -164 -69 -247.5t-183 -98.5 v-223h-106v221q-118 13 -188 97t-70 251z" />
<glyph unicode="&#xa3;" horiz-adv-x="724" d="M51 0v125q52 32 75.5 83.5t23.5 147.5v299h-91v140h91v381q0 140 75.5 211t190.5 71t188.5 -71t73.5 -211v-93l-154 -30v116q0 85 -26.5 120.5t-83.5 35.5q-56 0 -83.5 -35.5t-27.5 -120.5v-374h270v-140h-270v-247q0 -186 -59 -258h411v-150h-604z" />
<glyph unicode="&#xa5;" horiz-adv-x="704" d="M16 1434h162l178 -590l176 590h156l-248 -715h207v-139h-221v-580h-147v580h-222v139h207z" />
<glyph unicode="&#xa6;" horiz-adv-x="327" d="M102 373h123v-885h-123v885zM102 733v803h123v-803h-123z" />
<glyph unicode="&#xa7;" horiz-adv-x="651" d="M80 537v102q0 80 47.5 136t120.5 89l-49 41q-58 51 -85 99.5t-26 115.5v101q0 110 72 173.5t174 63.5q114 0 181 -62.5t67 -176.5v-91l-146 -24v108q0 56 -29 86.5t-75 30.5q-92 0 -92 -115v-90q0 -51 67 -106q138 -109 180 -152q103 -103 103 -202v-103q0 -80 -48 -137 t-122 -88l51 -41q113 -90 113 -215v-100q0 -111 -72 -174.5t-174 -63.5q-116 0 -183 63t-67 177v90l148 24v-108q0 -117 102 -117q94 0 94 115v90q0 27 -16.5 50.5t-53.5 55.5q-11 9 -44 35.5t-43.5 35t-38.5 32.5t-38.5 34.5l-32 32t-30 35t-22 34t-19 37.5t-10 37.5 t-4.5 41.5zM231 563q0 -26 7 -47t25 -42.5t32.5 -34.5t46.5 -40q41 13 68.5 52.5t27.5 97.5v88q0 48 -51 102q-12 24 -59 62q-42 -14 -69.5 -54t-27.5 -96v-88z" />
<glyph unicode="&#xa8;" horiz-adv-x="1024" d="M344 1229v205h129v-205h-129zM549 1229v205h129v-205h-129z" />
<glyph unicode="&#xa9;" horiz-adv-x="1427" d="M72 717q0 124 27 235.5t81 203.5t130.5 159.5t180 105t224.5 37.5q151 0 273.5 -57.5t202 -158.5t122.5 -235.5t43 -289.5t-43 -289.5t-122.5 -235.5t-202 -159t-273.5 -58q-121 0 -224.5 37.5t-180 105t-130.5 160t-81 204t-27 235.5zM174 717q0 -136 35 -254 t101.5 -208t170.5 -142t234 -52q129 0 233 52t170.5 142t101.5 208t35 254q0 134 -35 252t-101.5 208t-170.5 142.5t-233 52.5q-130 0 -234 -52.5t-170.5 -142.5t-101.5 -208t-35 -252zM432 510v405q0 77 23.5 134.5t63.5 90.5t87 48.5t101 15.5t101 -15.5t87 -48.5 t63 -90.5t23 -134.5v-69l-154 -21v97q0 78 -32.5 114.5t-87.5 36.5t-88 -36.5t-33 -114.5v-418q0 -78 33 -115t88 -37t87.5 37t32.5 115v92l154 22v-108q0 -77 -23 -134.5t-63 -90.5t-87 -48.5t-101 -15.5t-101 15.5t-87 48.5t-63.5 90.5t-23.5 134.5z" />
<glyph unicode="&#xaa;" horiz-adv-x="471" d="M68 946v107q0 66 43 101.5t110 35.5h49v117q0 35 -11.5 47t-33.5 12q-47 0 -47 -59v-62l-102 12v46q0 71 42 113t107 42q152 0 152 -151v-373q0 -21 18 -24t41 10v-74q-36 -25 -76 -25q-54 0 -73 47q-44 -47 -99 -47q-47 0 -83.5 31t-36.5 94zM168 956q0 -22 11.5 -33.5 t29.5 -11.5q33 0 59 33v162h-45q-55 0 -55 -53v-97z" />
<glyph unicode="&#xab;" horiz-adv-x="770" d="M43 604l244 447h147l-246 -447l246 -444h-147zM342 604l244 447h147l-246 -447l246 -444h-147z" />
<glyph unicode="&#xac;" horiz-adv-x="677" d="M76 610v140h528v-482h-137v342h-391z" />
<glyph unicode="&#xad;" horiz-adv-x="430" d="M47 606v146h336v-146h-336z" />
<glyph unicode="&#xae;" horiz-adv-x="522" d="M57 1235q0 106 54.5 164.5t148.5 58.5t148.5 -58.5t54.5 -164.5t-54.5 -164.5t-148.5 -58.5t-148.5 58.5t-54.5 164.5zM111 1235q0 -86 39 -131t110 -45t110.5 45.5t39.5 130.5t-39.5 130.5t-110.5 45.5t-110 -45t-39 -131zM188 1104v260h76q38 0 56 -16t18 -62v-18 q0 -17 -11 -29.5t-26 -15.5q39 -12 39 -60v-59h-57v49q0 37 -23 37h-16v-86h-56zM244 1243h18q11 0 15 5t4 22v16q0 25 -19 25h-18v-68z" />
<glyph unicode="&#xaf;" horiz-adv-x="1024" d="M332 1247v125h360v-125h-360z" />
<glyph unicode="&#xb0;" horiz-adv-x="409" d="M51 1280q0 86 42.5 132t111.5 46t111 -46t42 -132t-42 -132t-111 -46t-111.5 46t-42.5 132zM123 1280q0 -106 82 -106t82 106t-82 106t-82 -106z" />
<glyph unicode="&#xb1;" horiz-adv-x="679" d="M55 0v139h570v-139h-570zM55 610v140h213v290h140v-290h217v-140h-217v-286h-140v286h-213z" />
<glyph unicode="&#xb2;" horiz-adv-x="489" d="M82 1210v86q0 72 47 117t115 45q69 0 116.5 -41.5t47.5 -118.5v-116q0 -39 -16.5 -76.5t-34.5 -59.5t-52 -57l-19.5 -19.5t-20 -21t-16 -19.5t-17 -23t-12.5 -23t-11.5 -28.5t-6 -31t-3.5 -37.5h213v-106h-326v100q0 21 2.5 41.5t5 36t10.5 33.5t11 28.5t15 27.5t15 22.5 t18.5 23t17.5 19.5l20 20l18 19q53 61 65 87q11 23 11 46v108q0 60 -53 60q-24 0 -39 -16t-15 -44v-102z" />
<glyph unicode="&#xb3;" horiz-adv-x="464" d="M68 1210v86q0 72 46.5 117t114.5 45q67 0 113.5 -41.5t46.5 -118.5v-98q0 -82 -59 -125q32 -16 45.5 -46.5t13.5 -94.5v-109q0 -80 -46.5 -120.5t-113.5 -40.5t-111 44.5t-44 116.5v80l102 23v-99q0 -59 51 -59q54 0 54 61v101q0 88 -68 88h-59v92h65q62 0 62 78v102 q0 29 -14.5 44.5t-39.5 15.5q-51 0 -51 -60v-102z" />
<glyph unicode="&#xb4;" horiz-adv-x="1024" d="M377 1184l108 250h160l-162 -250h-106z" />
<glyph unicode="&#xb6;" horiz-adv-x="827" d="M61 780v363q0 142 79 216.5t206 74.5h393v-1643h-131v1505h-84v-1505h-131v698h-47q-127 0 -206 74.5t-79 216.5zM205 776q0 -149 141 -149h47v669h-47q-141 0 -141 -149v-371z" />
<glyph unicode="&#xb7;" horiz-adv-x="307" d="M78 565v187h151v-187h-151z" />
<glyph unicode="&#xb8;" horiz-adv-x="1024" d="M387 -135q43 -21 78 -21q63 0 63 80q0 22 -16 76h98q27 -56 27 -98q0 -70 -44 -113t-120 -43q-44 0 -86 27v92z" />
<glyph unicode="&#xb9;" horiz-adv-x="337" d="M61 1325v98l191 27v-766h-111v651z" />
<glyph unicode="&#xba;" horiz-adv-x="452" d="M61 991v301q0 85 48.5 125.5t115.5 40.5q70 0 118 -40.5t48 -125.5v-301q0 -88 -48 -129t-118 -41q-67 0 -115.5 41t-48.5 129zM170 985q0 -70 55 -70q58 0 58 70v311q0 70 -58 70q-55 0 -55 -70v-311z" />
<glyph unicode="&#xbb;" horiz-adv-x="770" d="M43 160l246 444l-246 447h147l244 -447l-244 -444h-147zM340 160l246 444l-246 447h147l244 -447l-244 -444h-147z" />
<glyph unicode="&#xbc;" horiz-adv-x="833" d="M68 1325v98l190 27v-766h-111v651zM84 0l545 1434h114l-546 -1434h-113zM416 152v90l159 516h150v-502h49v-104h-49v-152h-113v152h-196zM500 256h112v393z" />
<glyph unicode="&#xbd;" horiz-adv-x="905" d="M66 1325v98l190 27v-766h-111v651zM82 0l545 1434h114l-546 -1434h-113zM514 530v86q0 72 47 117t115 45q69 0 116.5 -41.5t47.5 -118.5v-116q0 -39 -16.5 -76.5t-34.5 -59.5t-52 -57l-19.5 -19.5t-20 -21t-16 -19.5t-17 -23t-12.5 -23t-11.5 -28.5t-6 -31t-3.5 -37.5 h213v-106h-326v100q0 21 2.5 41.5t5 36t10.5 33.5t11 28.5t15 27.5t15 22.5t18.5 23t17.5 19.5l20 20l18 19q53 61 65 87q11 23 11 46v108q0 60 -53 60q-24 0 -38.5 -15.5t-14.5 -44.5v-102z" />
<glyph unicode="&#xbe;" horiz-adv-x="921" d="M68 1210v86q0 72 46.5 117t114.5 45q67 0 113.5 -41.5t46.5 -118.5v-98q0 -82 -59 -125q32 -16 45.5 -46.5t13.5 -94.5v-109q0 -80 -46.5 -120.5t-113.5 -40.5t-111 44.5t-44 116.5v80l102 23v-99q0 -59 51 -59q54 0 54 61v101q0 88 -68 88h-59v92h65q62 0 62 78v102 q0 29 -14.5 44.5t-39.5 15.5q-51 0 -51 -60v-102zM174 0l545 1434h115l-547 -1434h-113zM502 152v90l160 516h149v-502h49v-104h-49v-152h-113v152h-196zM586 256h112v393z" />
<glyph unicode="&#xbf;" horiz-adv-x="616" d="M31 86q0 55 23 110.5t55.5 101.5t65.5 92t56 100t23 108v184h149v-182q0 -71 -21.5 -134t-52 -109t-61 -88t-52 -89t-21.5 -94v-166q0 -67 29 -103t85 -36t80.5 34t24.5 103v168l157 -35v-141q0 -128 -74.5 -205.5t-187.5 -77.5q-115 0 -196.5 74t-81.5 207v178zM254 899 v186h149v-186h-149z" />
<glyph unicode="&#xc0;" horiz-adv-x="755" d="M16 0l250 1434h219l254 -1434h-170l-55 344h-285l-55 -344h-158zM158 1788h161l107 -250h-104zM248 481h246l-121 754h-6z" />
<glyph unicode="&#xc1;" horiz-adv-x="755" d="M16 0l250 1434h219l254 -1434h-170l-55 344h-285l-55 -344h-158zM248 481h246l-121 754h-6zM317 1538l109 250h160l-162 -250h-107z" />
<glyph unicode="&#xc2;" horiz-adv-x="755" d="M16 0l250 1434h219l254 -1434h-170l-55 344h-285l-55 -344h-158zM176 1538l129 250h139l129 -250h-118l-82 160l-80 -160h-117zM248 481h246l-121 754h-6z" />
<glyph unicode="&#xc3;" horiz-adv-x="755" d="M16 0l250 1434h219l254 -1434h-170l-55 344h-285l-55 -344h-158zM158 1585q8 75 41 120.5t88 45.5q31 0 91 -27.5t79 -27.5q41 0 41 73l102 -16q-8 -78 -41.5 -124t-87.5 -46q-34 0 -90 27.5t-76 27.5q-42 0 -47 -75zM248 481h246l-121 754h-6z" />
<glyph unicode="&#xc4;" horiz-adv-x="755" d="M16 0l250 1434h219l254 -1434h-170l-55 344h-285l-55 -344h-158zM207 1563v204h129v-204h-129zM248 481h246l-121 754h-6zM412 1563v204h129v-204h-129z" />
<glyph unicode="&#xc5;" horiz-adv-x="755" d="M16 0l250 1434h219l254 -1434h-170l-55 344h-285l-55 -344h-158zM236 1665q0 59 40.5 99t102.5 40q64 0 104.5 -40t40.5 -99q0 -61 -40.5 -101t-104.5 -40q-63 0 -103 40t-40 101zM248 481h246l-121 754h-6zM303 1665q0 -35 21.5 -59.5t54.5 -24.5q34 0 56 24.5t22 59.5 q0 33 -22 57.5t-56 24.5q-33 0 -54.5 -24.5t-21.5 -57.5z" />
<glyph unicode="&#xc6;" horiz-adv-x="1024" d="M-31 0l437 1434h544v-150h-272v-481h237v-152h-237v-501h291v-150h-455v385h-268l-115 -385h-162zM281 524h233v754h-4z" />
<glyph unicode="&#xc7;" horiz-adv-x="747" d="M72 326v782q0 95 24 164.5t67.5 109t97 58t120.5 18.5q64 0 117.5 -18.5t97 -58t68 -109t24.5 -164.5v-72l-164 -35v107q0 110 -37 153.5t-106 43.5t-107 -43.5t-38 -153.5v-784q0 -108 38 -152.5t107 -44.5t106 44t37 153v108l164 35v-141q0 -158 -64.5 -241.5 t-172.5 -102.5q18 -40 18 -80q0 -70 -44 -113t-120 -43q-44 0 -86 27v92q43 -21 78 -21q63 0 63 80q0 23 -10 53q-127 8 -202.5 91t-75.5 258z" />
<glyph unicode="&#xc8;" horiz-adv-x="614" d="M106 0v1434h435v-150h-271v-481h236v-152h-236v-501h289v-150h-453zM119 1788h162l106 -250h-104z" />
<glyph unicode="&#xc9;" horiz-adv-x="614" d="M106 0v1434h435v-150h-271v-481h236v-152h-236v-501h289v-150h-453zM254 1538l108 250h160l-162 -250h-106z" />
<glyph unicode="&#xca;" horiz-adv-x="614" d="M106 0v1434h435v-150h-271v-481h236v-152h-236v-501h289v-150h-453zM123 1538l129 250h139l129 -250h-119l-82 160l-79 -160h-117z" />
<glyph unicode="&#xcb;" horiz-adv-x="614" d="M106 0v1434h435v-150h-271v-481h236v-152h-236v-501h289v-150h-453zM156 1561v204h129v-204h-129zM360 1561v204h129v-204h-129z" />
<glyph unicode="&#xcc;" horiz-adv-x="374" d="M-29 1788h162l107 -250h-105zM106 0v1434h164v-1434h-164z" />
<glyph unicode="&#xcd;" horiz-adv-x="374" d="M106 0v1434h164v-1434h-164zM133 1538l109 250h159l-161 -250h-107z" />
<glyph unicode="&#xce;" horiz-adv-x="374" d="M-10 1538l129 250h139l129 -250h-119l-82 160l-80 -160h-116zM106 0v1434h164v-1434h-164z" />
<glyph unicode="&#xcf;" horiz-adv-x="374" d="M23 1561v204h129v-204h-129zM106 0v1434h164v-1434h-164zM227 1561v204h129v-204h-129z" />
<glyph unicode="&#xd0;" horiz-adv-x="755" d="M0 680v125h72v629h303q65 0 118.5 -18.5t97.5 -58t68.5 -109.5t24.5 -165v-733q0 -95 -24.5 -164.5t-68.5 -109t-97.5 -58t-118.5 -18.5h-303v680h-72zM238 154h137q69 0 107 44t38 152v733q0 108 -38 152.5t-107 44.5h-137v-475h178v-125h-178v-526z" />
<glyph unicode="&#xd1;" horiz-adv-x="864" d="M106 0v1434h197l293 -1121v1121h156v-1434h-197l-295 1112v-1112h-154zM211 1577q8 75 41 120.5t88 45.5q32 0 91 -27.5t79 -27.5q41 0 41 73l102 -16q-8 -78 -41.5 -124t-87.5 -46q-34 0 -90 27.5t-76 27.5q-42 0 -47 -76z" />
<glyph unicode="&#xd2;" horiz-adv-x="759" d="M72 326v782q0 95 24 164.5t67.5 109t97 58t120.5 18.5q64 0 117.5 -18.5t97 -58t68 -109t24.5 -164.5v-782q0 -95 -24.5 -165t-68 -109.5t-97 -58t-117.5 -18.5q-67 0 -120.5 18.5t-97 58t-67.5 109.5t-24 165zM168 1788h162l106 -250h-104zM236 326q0 -110 38 -153.5 t107 -43.5t106 43.5t37 153.5v782q0 110 -37 153.5t-106 43.5t-107 -43.5t-38 -153.5v-782z" />
<glyph unicode="&#xd3;" horiz-adv-x="759" d="M72 326v782q0 95 24 164.5t67.5 109t97 58t120.5 18.5q64 0 117.5 -18.5t97 -58t68 -109t24.5 -164.5v-782q0 -95 -24.5 -165t-68 -109.5t-97 -58t-117.5 -18.5q-67 0 -120.5 18.5t-97 58t-67.5 109.5t-24 165zM236 326q0 -110 38 -153.5t107 -43.5t106 43.5t37 153.5 v782q0 110 -37 153.5t-106 43.5t-107 -43.5t-38 -153.5v-782zM336 1538l108 250h160l-162 -250h-106z" />
<glyph unicode="&#xd4;" horiz-adv-x="759" d="M72 326v782q0 95 24 164.5t67.5 109t97 58t120.5 18.5q64 0 117.5 -18.5t97 -58t68 -109t24.5 -164.5v-782q0 -95 -24.5 -165t-68 -109.5t-97 -58t-117.5 -18.5q-67 0 -120.5 18.5t-97 58t-67.5 109.5t-24 165zM182 1538l129 250h140l129 -250h-119l-82 160l-80 -160 h-117zM236 326q0 -110 38 -153.5t107 -43.5t106 43.5t37 153.5v782q0 110 -37 153.5t-106 43.5t-107 -43.5t-38 -153.5v-782z" />
<glyph unicode="&#xd5;" horiz-adv-x="759" d="M72 326v782q0 95 24 164.5t67.5 109t97 58t120.5 18.5q64 0 117.5 -18.5t97 -58t68 -109t24.5 -164.5v-782q0 -95 -24.5 -165t-68 -109.5t-97 -58t-117.5 -18.5q-67 0 -120.5 18.5t-97 58t-67.5 109.5t-24 165zM160 1577q8 75 41 120.5t88 45.5q31 0 91 -27.5t79 -27.5 q41 0 41 73l102 -16q-8 -78 -41.5 -124t-87.5 -46q-34 0 -90 27.5t-76 27.5q-42 0 -47 -76zM236 326q0 -110 38 -153.5t107 -43.5t106 43.5t37 153.5v782q0 110 -37 153.5t-106 43.5t-107 -43.5t-38 -153.5v-782z" />
<glyph unicode="&#xd6;" horiz-adv-x="759" d="M72 326v782q0 95 24 164.5t67.5 109t97 58t120.5 18.5q64 0 117.5 -18.5t97 -58t68 -109t24.5 -164.5v-782q0 -95 -24.5 -165t-68 -109.5t-97 -58t-117.5 -18.5q-67 0 -120.5 18.5t-97 58t-67.5 109.5t-24 165zM215 1556v205h129v-205h-129zM236 326q0 -110 38 -153.5 t107 -43.5t106 43.5t37 153.5v782q0 110 -37 153.5t-106 43.5t-107 -43.5t-38 -153.5v-782zM420 1556v205h129v-205h-129z" />
<glyph unicode="&#xd7;" horiz-adv-x="667" d="M78 508l172 170l-172 172l94 94l172 -170l170 170l94 -94l-172 -172l172 -170l-94 -94l-172 172l-170 -172z" />
<glyph unicode="&#xd8;" horiz-adv-x="759" d="M72 326v782q0 95 24 164.5t67.5 109t97 58t120.5 18.5q96 0 160 -37l22 70h88l-41 -127q78 -91 78 -256v-782q0 -95 -24.5 -165t-68 -109.5t-97 -58t-117.5 -18.5q-93 0 -166 37l-25 -88h-88l43 146q-73 85 -73 256zM236 377l256 876q-33 52 -111 52q-69 0 -107 -43.5 t-38 -153.5v-731zM266 182q32 -53 115 -53q69 0 106 43.5t37 153.5v741z" />
<glyph unicode="&#xd9;" horiz-adv-x="798" d="M98 326v1108h164v-1108q0 -110 34.5 -154.5t100.5 -44.5t100.5 44.5t34.5 154.5v1108h166v-1108q0 -95 -23 -165t-65.5 -109.5t-95 -58t-117.5 -18.5q-137 0 -218 83t-81 268zM195 1788h161l107 -250h-105z" />
<glyph unicode="&#xda;" horiz-adv-x="798" d="M98 326v1108h164v-1108q0 -110 34.5 -154.5t100.5 -44.5t100.5 44.5t34.5 154.5v1108h166v-1108q0 -95 -23 -165t-65.5 -109.5t-95 -58t-117.5 -18.5q-137 0 -218 83t-81 268zM332 1538l108 250h160l-162 -250h-106z" />
<glyph unicode="&#xdb;" horiz-adv-x="798" d="M98 326v1108h164v-1108q0 -110 34.5 -154.5t100.5 -44.5t100.5 44.5t34.5 154.5v1108h166v-1108q0 -95 -23 -165t-65.5 -109.5t-95 -58t-117.5 -18.5q-137 0 -218 83t-81 268zM201 1538l129 250h139l129 -250h-119l-82 160l-80 -160h-116z" />
<glyph unicode="&#xdc;" horiz-adv-x="798" d="M98 326v1108h164v-1108q0 -110 34.5 -154.5t100.5 -44.5t100.5 44.5t34.5 154.5v1108h166v-1108q0 -95 -23 -165t-65.5 -109.5t-95 -58t-117.5 -18.5q-137 0 -218 83t-81 268zM233 1561v204h129v-204h-129zM438 1561v204h129v-204h-129z" />
<glyph unicode="&#xdd;" horiz-adv-x="722" d="M20 1434h177l176 -689l172 689h157l-258 -885v-549h-163v549zM309 1538l109 250h160l-162 -250h-107z" />
<glyph unicode="&#xde;" horiz-adv-x="737" d="M106 0v1434h164v-244h105q135 0 215 -69.5t80 -219.5v-330q0 -150 -84.5 -220t-223.5 -70h-92v-281h-164zM270 434h97q139 0 139 137v330q0 69 -36 105t-101 36h-99v-608z" />
<glyph unicode="&#xdf;" horiz-adv-x="880" d="M92 0v1137q0 82 26.5 145t71 100t97.5 55.5t112 18.5q60 0 114.5 -19t99 -56t70.5 -99.5t26 -142.5v-199q-46 -14 -66 -20.5t-52.5 -20.5t-46 -26t-25 -30.5t-11.5 -41.5v-56q0 -31 17.5 -55t58.5 -61l149 -129q109 -91 109 -203v-84q0 -110 -73.5 -174t-176.5 -64 q-116 0 -185 63t-69 177v98l147 25v-117q0 -58 29.5 -87.5t77.5 -29.5q98 0 98 115v70q0 27 -17.5 52t-54.5 58l-157 133q-51 43 -77 88t-26 103v80q0 76 52.5 122t138.5 79v135q0 84 -44 131t-108 47t-107.5 -45.5t-43.5 -132.5v-1139h-154z" />
<glyph unicode="&#xe0;" horiz-adv-x="675" d="M51 229v150q0 113 73 173t185 60h107v234q0 133 -101 133q-100 0 -100 -133v-96l-147 20v72q0 116 67 192t182 76q127 0 189.5 -72t62.5 -245v-619q0 -38 7 -54t28 -16q19 0 51 19v-111q-56 -37 -108 -37q-45 0 -77 25t-38 68q-67 -93 -178 -93q-203 0 -203 254z M115 1434h161l107 -250h-104zM199 211q0 -54 23.5 -81.5t64.5 -27.5q33 0 67 22.5t60 57.5v316h-99q-56 0 -86 -30.5t-30 -88.5v-168z" />
<glyph unicode="&#xe1;" horiz-adv-x="675" d="M51 229v150q0 113 73 173t185 60h107v234q0 133 -101 133q-100 0 -100 -133v-96l-147 20v72q0 116 67 192t182 76q127 0 189.5 -72t62.5 -245v-619q0 -38 7 -54t28 -16q19 0 51 19v-111q-56 -37 -108 -37q-45 0 -77 25t-38 68q-67 -93 -178 -93q-203 0 -203 254zM199 211 q0 -54 23.5 -81.5t64.5 -27.5q33 0 67 22.5t60 57.5v316h-99q-56 0 -86 -30.5t-30 -88.5v-168zM262 1184l109 250h159l-161 -250h-107z" />
<glyph unicode="&#xe2;" horiz-adv-x="675" d="M51 229v150q0 113 73 173t185 60h107v234q0 133 -101 133q-100 0 -100 -133v-96l-147 20v72q0 116 67 192t182 76q127 0 189.5 -72t62.5 -245v-619q0 -38 7 -54t28 -16q19 0 51 19v-111q-56 -37 -108 -37q-45 0 -77 25t-38 68q-67 -93 -178 -93q-203 0 -203 254z M131 1184l129 250h139l129 -250h-118l-82 159l-80 -159h-117zM199 211q0 -54 23.5 -81.5t64.5 -27.5q33 0 67 22.5t60 57.5v316h-99q-56 0 -86 -30.5t-30 -88.5v-168z" />
<glyph unicode="&#xe3;" horiz-adv-x="675" d="M51 229v150q0 113 73 173t185 60h107v234q0 133 -101 133q-100 0 -100 -133v-96l-147 20v72q0 116 67 192t182 76q127 0 189.5 -72t62.5 -245v-619q0 -38 7 -54t28 -16q19 0 51 19v-111q-56 -37 -108 -37q-45 0 -77 25t-38 68q-67 -93 -178 -93q-203 0 -203 254z M109 1229q8 75 41 120.5t88 45.5q32 0 91 -28t79 -28q41 0 41 74l102 -16q-8 -78 -41.5 -124t-87.5 -46q-34 0 -90 27.5t-76 27.5q-42 0 -47 -76zM199 211q0 -54 23.5 -81.5t64.5 -27.5q33 0 67 22.5t60 57.5v316h-99q-56 0 -86 -30.5t-30 -88.5v-168z" />
<glyph unicode="&#xe4;" horiz-adv-x="675" d="M51 229v150q0 113 73 173t185 60h107v234q0 133 -101 133q-100 0 -100 -133v-96l-147 20v72q0 116 67 192t182 76q127 0 189.5 -72t62.5 -245v-619q0 -38 7 -54t28 -16q19 0 51 19v-111q-56 -37 -108 -37q-45 0 -77 25t-38 68q-67 -93 -178 -93q-203 0 -203 254z M164 1229v205h129v-205h-129zM199 211q0 -54 23.5 -81.5t64.5 -27.5q33 0 67 22.5t60 57.5v316h-99q-56 0 -86 -30.5t-30 -88.5v-168zM369 1229v205h129v-205h-129z" />
<glyph unicode="&#xe5;" horiz-adv-x="675" d="M51 229v150q0 113 73 173t185 60h107v234q0 133 -101 133q-100 0 -100 -133v-96l-147 20v72q0 116 67 192t182 76q127 0 189.5 -72t62.5 -245v-619q0 -38 7 -54t28 -16q19 0 51 19v-111q-56 -37 -108 -37q-45 0 -77 25t-38 68q-67 -93 -178 -93q-203 0 -203 254z M193 1313q0 59 40.5 99t102.5 40q64 0 104.5 -40t40.5 -99q0 -61 -40.5 -101.5t-104.5 -40.5q-62 0 -102.5 40.5t-40.5 101.5zM199 211q0 -54 23.5 -81.5t64.5 -27.5q33 0 67 22.5t60 57.5v316h-99q-56 0 -86 -30.5t-30 -88.5v-168zM260 1313q0 -35 21.5 -59.5t54.5 -24.5 q34 0 56 24.5t22 59.5q0 33 -22 57.5t-56 24.5q-33 0 -54.5 -24.5t-21.5 -57.5z" />
<glyph unicode="&#xe6;" horiz-adv-x="1044" d="M51 184v197q0 113 73.5 172t186.5 59h105v234q0 133 -101 133q-98 0 -98 -133v-96l-147 20v74q0 116 70 191t177 75q59 0 107.5 -24.5t77.5 -65.5q73 90 188 90q54 0 101.5 -15.5t88 -48.5t64 -90.5t23.5 -134.5v-252h-398v-311q0 -152 121 -152q56 0 88.5 37t32.5 115 v92l156 23v-109q0 -77 -23.5 -134.5t-64 -90.5t-88 -48.5t-101.5 -15.5q-79 0 -134 25t-95 84q-50 -60 -99 -84.5t-108 -24.5q-37 0 -71 11t-64.5 34.5t-49 65.5t-18.5 98zM201 203q0 -49 24.5 -74t63.5 -25q69 0 127 86v308h-99q-56 0 -86 -30t-30 -87v-178zM569 680h242 v147q0 78 -32.5 115t-88.5 37q-53 0 -87 -38.5t-34 -115.5v-145z" />
<glyph unicode="&#xe7;" horiz-adv-x="694" d="M78 264v557q0 77 23.5 134.5t63.5 90.5t87.5 48.5t101.5 15.5q53 0 100 -15.5t87.5 -48.5t64 -90.5t23.5 -134.5v-69l-154 -21v96q0 78 -33 115t-88 37q-56 0 -88.5 -37t-32.5 -115v-569q0 -78 32.5 -115t88.5 -37q55 0 88 37t33 115v92l154 23v-109q0 -122 -55.5 -190.5 t-143.5 -89.5q19 -51 19 -82q0 -70 -44 -113t-120 -43q-44 0 -86 27v92q43 -21 77 -21q64 0 64 80q0 23 -10 53q-108 7 -180 77t-72 210z" />
<glyph unicode="&#xe8;" d="M78 264v557q0 77 23.5 134.5t63.5 90.5t87.5 48.5t101.5 15.5q53 0 100 -15.5t87.5 -48.5t64 -90.5t23.5 -134.5v-252h-396v-311q0 -78 32.5 -115t88.5 -37q55 0 88 37t33 115v92l154 23v-109q0 -77 -23.5 -134.5t-64 -90.5t-87.5 -48.5t-100 -15.5q-54 0 -101.5 15.5 t-87.5 48.5t-63.5 90.5t-23.5 134.5zM141 1434h162l107 -250h-105zM233 680h242v147q0 78 -33 115t-88 37q-56 0 -88.5 -37t-32.5 -115v-147z" />
<glyph unicode="&#xe9;" d="M78 264v557q0 77 23.5 134.5t63.5 90.5t87.5 48.5t101.5 15.5q53 0 100 -15.5t87.5 -48.5t64 -90.5t23.5 -134.5v-252h-396v-311q0 -78 32.5 -115t88.5 -37q55 0 88 37t33 115v92l154 23v-109q0 -77 -23.5 -134.5t-64 -90.5t-87.5 -48.5t-100 -15.5q-54 0 -101.5 15.5 t-87.5 48.5t-63.5 90.5t-23.5 134.5zM233 680h242v147q0 78 -33 115t-88 37q-56 0 -88.5 -37t-32.5 -115v-147zM289 1184l108 250h160l-162 -250h-106z" />
<glyph unicode="&#xea;" d="M78 264v557q0 77 23.5 134.5t63.5 90.5t87.5 48.5t101.5 15.5q53 0 100 -15.5t87.5 -48.5t64 -90.5t23.5 -134.5v-252h-396v-311q0 -78 32.5 -115t88.5 -37q55 0 88 37t33 115v92l154 23v-109q0 -77 -23.5 -134.5t-64 -90.5t-87.5 -48.5t-100 -15.5q-54 0 -101.5 15.5 t-87.5 48.5t-63.5 90.5t-23.5 134.5zM158 1184l129 250h139l129 -250h-119l-82 159l-80 -159h-116zM233 680h242v147q0 78 -33 115t-88 37q-56 0 -88.5 -37t-32.5 -115v-147z" />
<glyph unicode="&#xeb;" d="M78 264v557q0 77 23.5 134.5t63.5 90.5t87.5 48.5t101.5 15.5q53 0 100 -15.5t87.5 -48.5t64 -90.5t23.5 -134.5v-252h-396v-311q0 -78 32.5 -115t88.5 -37q55 0 88 37t33 115v92l154 23v-109q0 -77 -23.5 -134.5t-64 -90.5t-87.5 -48.5t-100 -15.5q-54 0 -101.5 15.5 t-87.5 48.5t-63.5 90.5t-23.5 134.5zM188 1229v205h129v-205h-129zM233 680h242v147q0 78 -33 115t-88 37q-56 0 -88.5 -37t-32.5 -115v-147zM393 1229v205h129v-205h-129z" />
<glyph unicode="&#xec;" horiz-adv-x="337" d="M-47 1434h162l106 -250h-104zM92 0v1085h154v-1085h-154z" />
<glyph unicode="&#xed;" horiz-adv-x="337" d="M92 0v1085h154v-1085h-154zM113 1184l108 250h160l-162 -250h-106z" />
<glyph unicode="&#xee;" horiz-adv-x="337" d="M-31 1184l129 250h140l129 -250h-119l-82 159l-80 -159h-117zM92 0v1085h154v-1085h-154z" />
<glyph unicode="&#xef;" horiz-adv-x="337" d="M2 1229v205h129v-205h-129zM92 0v1085h154v-1085h-154zM207 1229v205h129v-205h-129z" />
<glyph unicode="&#xf0;" d="M78 264v557q0 142 74 215.5t178 73.5q64 0 137 -45q-18 90 -74 190l-194 -47v95l151 34q-53 92 -139 199h158q61 -80 114 -168l129 33v-94l-86 -21q103 -208 103 -463v-559q0 -77 -23.5 -134.5t-64 -90.5t-87.5 -48.5t-100 -15.5q-54 0 -101.5 15.5t-87.5 48.5 t-63.5 90.5t-23.5 134.5zM233 258q0 -78 32.5 -115t88.5 -37q55 0 88 37t33 115v569q0 78 -33 115t-88 37q-56 0 -88.5 -37t-32.5 -115v-569z" />
<glyph unicode="&#xf1;" horiz-adv-x="727" d="M92 0v1085h150v-71q28 40 81 68t113 28q88 0 146.5 -65t58.5 -191v-854h-154v838q0 67 -29 102t-77 35q-71 0 -135 -76v-899h-154zM147 1229q8 75 41 120.5t88 45.5q32 0 91 -28t79 -28q41 0 41 74l103 -16q-8 -78 -41.5 -124t-87.5 -46q-34 0 -90 27.5t-76 27.5 q-42 0 -47 -76z" />
<glyph unicode="&#xf2;" d="M78 264v557q0 77 23.5 134.5t63.5 90.5t87.5 48.5t101.5 15.5q53 0 100 -15.5t87.5 -48.5t64 -90.5t23.5 -134.5v-557q0 -77 -23.5 -134.5t-64 -90.5t-87.5 -48.5t-100 -15.5q-54 0 -101.5 15.5t-87.5 48.5t-63.5 90.5t-23.5 134.5zM135 1434h162l106 -250h-104zM233 258 q0 -78 32.5 -115t88.5 -37q55 0 88 37t33 115v569q0 78 -33 115t-88 37q-56 0 -88.5 -37t-32.5 -115v-569z" />
<glyph unicode="&#xf3;" d="M78 264v557q0 77 23.5 134.5t63.5 90.5t87.5 48.5t101.5 15.5q53 0 100 -15.5t87.5 -48.5t64 -90.5t23.5 -134.5v-557q0 -77 -23.5 -134.5t-64 -90.5t-87.5 -48.5t-100 -15.5q-54 0 -101.5 15.5t-87.5 48.5t-63.5 90.5t-23.5 134.5zM233 258q0 -78 32.5 -115t88.5 -37 q55 0 88 37t33 115v569q0 78 -33 115t-88 37q-56 0 -88.5 -37t-32.5 -115v-569zM297 1184l109 250h159l-162 -250h-106z" />
<glyph unicode="&#xf4;" d="M78 264v557q0 77 23.5 134.5t63.5 90.5t87.5 48.5t101.5 15.5q53 0 100 -15.5t87.5 -48.5t64 -90.5t23.5 -134.5v-557q0 -77 -23.5 -134.5t-64 -90.5t-87.5 -48.5t-100 -15.5q-54 0 -101.5 15.5t-87.5 48.5t-63.5 90.5t-23.5 134.5zM156 1184l129 250h139l129 -250h-119 l-82 159l-80 -159h-116zM233 258q0 -78 32.5 -115t88.5 -37q55 0 88 37t33 115v569q0 78 -33 115t-88 37q-56 0 -88.5 -37t-32.5 -115v-569z" />
<glyph unicode="&#xf5;" d="M78 264v557q0 77 23.5 134.5t63.5 90.5t87.5 48.5t101.5 15.5q53 0 100 -15.5t87.5 -48.5t64 -90.5t23.5 -134.5v-557q0 -77 -23.5 -134.5t-64 -90.5t-87.5 -48.5t-100 -15.5q-54 0 -101.5 15.5t-87.5 48.5t-63.5 90.5t-23.5 134.5zM133 1229q8 75 41 120.5t88 45.5 q32 0 91 -28t79 -28q41 0 41 74l102 -16q-8 -78 -41.5 -124t-87.5 -46q-34 0 -89.5 27.5t-75.5 27.5q-43 0 -48 -76zM233 258q0 -78 32.5 -115t88.5 -37q55 0 88 37t33 115v569q0 78 -33 115t-88 37q-56 0 -88.5 -37t-32.5 -115v-569z" />
<glyph unicode="&#xf6;" d="M78 264v557q0 77 23.5 134.5t63.5 90.5t87.5 48.5t101.5 15.5q53 0 100 -15.5t87.5 -48.5t64 -90.5t23.5 -134.5v-557q0 -77 -23.5 -134.5t-64 -90.5t-87.5 -48.5t-100 -15.5q-54 0 -101.5 15.5t-87.5 48.5t-63.5 90.5t-23.5 134.5zM188 1229v205h129v-205h-129zM233 258 q0 -78 32.5 -115t88.5 -37q55 0 88 37t33 115v569q0 78 -33 115t-88 37q-56 0 -88.5 -37t-32.5 -115v-569zM393 1229v205h129v-205h-129z" />
<glyph unicode="&#xf7;" horiz-adv-x="657" d="M68 604v154h528v-154h-528zM254 258v188h158v-188h-158zM254 915v187h158v-187h-158z" />
<glyph unicode="&#xf8;" d="M78 264v557q0 77 23.5 134.5t63.5 90.5t87.5 48.5t101.5 15.5q78 0 140 -33l22 66h90l-41 -123q64 -74 64 -199v-557q0 -77 -23.5 -134.5t-64 -90.5t-87.5 -48.5t-100 -15.5q-66 0 -127 25l-24 -76h-88l41 123q-78 78 -78 217zM233 264l213 670q-33 45 -92 45 q-56 0 -88.5 -37t-32.5 -115v-563zM272 135q33 -29 82 -29q55 0 88 37t33 115v508z" />
<glyph unicode="&#xf9;" horiz-adv-x="712" d="M86 264v821h154v-827q0 -152 116 -152q54 0 85.5 37t31.5 115v827h154v-821q0 -77 -22.5 -134.5t-62 -90.5t-86 -48.5t-100.5 -15.5t-100.5 15.5t-85.5 48.5t-61.5 90.5t-22.5 134.5zM147 1434h162l107 -250h-105z" />
<glyph unicode="&#xfa;" horiz-adv-x="712" d="M86 264v821h154v-827q0 -152 116 -152q54 0 85.5 37t31.5 115v827h154v-821q0 -77 -22.5 -134.5t-62 -90.5t-86 -48.5t-100.5 -15.5t-100.5 15.5t-85.5 48.5t-61.5 90.5t-22.5 134.5zM291 1184l108 250h160l-162 -250h-106z" />
<glyph unicode="&#xfb;" horiz-adv-x="712" d="M86 264v821h154v-827q0 -152 116 -152q54 0 85.5 37t31.5 115v827h154v-821q0 -77 -22.5 -134.5t-62 -90.5t-86 -48.5t-100.5 -15.5t-100.5 15.5t-85.5 48.5t-61.5 90.5t-22.5 134.5zM158 1184l129 250h139l129 -250h-119l-82 159l-80 -159h-116z" />
<glyph unicode="&#xfc;" horiz-adv-x="712" d="M86 264v821h154v-827q0 -152 116 -152q54 0 85.5 37t31.5 115v827h154v-821q0 -77 -22.5 -134.5t-62 -90.5t-86 -48.5t-100.5 -15.5t-100.5 15.5t-85.5 48.5t-61.5 90.5t-22.5 134.5zM190 1229v205h129v-205h-129zM395 1229v205h129v-205h-129z" />
<glyph unicode="&#xfd;" horiz-adv-x="661" d="M-16 -162q52 -16 100 -16q73 0 112 54t62 185l-233 1024h159l158 -772l152 772h149l-235 -1040q-79 -356 -312 -356q-64 0 -112 18v131zM279 1184l108 250h160l-162 -250h-106z" />
<glyph unicode="&#xfe;" horiz-adv-x="698" d="M92 -326v1760l154 30v-442q32 37 78.5 62.5t99.5 25.5q213 0 213 -274v-586q0 -127 -66 -201t-157 -74q-46 0 -92 22.5t-76 61.5v-358zM246 182q25 -35 59 -56.5t66 -21.5q47 0 79.5 39.5t32.5 112.5v571q0 152 -108 152q-34 0 -69 -20.5t-60 -53.5v-723z" />
<glyph unicode="&#xff;" horiz-adv-x="661" d="M-16 -162q52 -16 100 -16q73 0 112 54t62 185l-233 1024h159l158 -772l152 772h149l-235 -1040q-79 -356 -312 -356q-64 0 -112 18v131zM174 1229v205h129v-205h-129zM379 1229v205h129v-205h-129z" />
<glyph unicode="&#x152;" horiz-adv-x="1034" d="M72 326v782q0 95 24 164.5t66.5 109t95.5 58t117 18.5q107 0 180 -57v33h406v-150h-273v-481h238v-152h-238v-501h291v-150h-424v35q-66 -60 -178 -60q-64 0 -117 18.5t-96.5 57.5t-67.5 109t-24 166zM236 326q0 -110 38 -153.5t107 -43.5q143 0 143 188v791 q0 197 -143 197q-73 0 -109 -51.5t-36 -176.5v-751z" />
<glyph unicode="&#x153;" horiz-adv-x="1073" d="M72 264v557q0 77 23.5 134.5t63.5 90.5t87 48.5t100 15.5q58 0 111 -24t88 -68q35 44 87 68t111 24q53 0 100 -15.5t87.5 -48.5t64 -90.5t23.5 -134.5v-252h-395v-311q0 -78 32 -115t88 -37q55 0 88 37t33 115v92l154 23v-109q0 -77 -23.5 -134.5t-64 -90.5t-87.5 -48.5 t-100 -15.5q-131 0 -198 88q-34 -44 -87.5 -66t-111.5 -22q-53 0 -100 15.5t-87 48.5t-63.5 90.5t-23.5 134.5zM225 258q0 -78 33 -115t88 -37q56 0 88.5 37t32.5 115v569q0 78 -32.5 115t-88.5 37q-55 0 -88 -37t-33 -115v-569zM623 680h241v147q0 78 -33 115t-88 37 q-56 0 -88 -37t-32 -115v-147z" />
<glyph unicode="&#x178;" horiz-adv-x="722" d="M20 1434h177l176 -689l172 689h157l-258 -885v-549h-163v549zM195 1561v204h129v-204h-129zM399 1561v204h129v-204h-129z" />
<glyph unicode="&#x2c6;" horiz-adv-x="1024" d="M313 1184l129 250h140l129 -250h-119l-82 159l-80 -159h-117z" />
<glyph unicode="&#x2dc;" horiz-adv-x="1024" d="M291 1229q8 75 41 120.5t88 45.5q32 0 91 -28t79 -28q41 0 41 74l102 -16q-8 -78 -41.5 -124t-87.5 -46q-34 0 -90 27.5t-76 27.5q-42 0 -47 -76z" />
<glyph unicode="&#x2000;" horiz-adv-x="902" />
<glyph unicode="&#x2001;" horiz-adv-x="1804" />
<glyph unicode="&#x2002;" horiz-adv-x="902" />
<glyph unicode="&#x2003;" horiz-adv-x="1804" />
<glyph unicode="&#x2004;" horiz-adv-x="601" />
<glyph unicode="&#x2005;" horiz-adv-x="451" />
<glyph unicode="&#x2006;" horiz-adv-x="300" />
<glyph unicode="&#x2007;" horiz-adv-x="300" />
<glyph unicode="&#x2008;" horiz-adv-x="225" />
<glyph unicode="&#x2009;" horiz-adv-x="360" />
<glyph unicode="&#x200a;" horiz-adv-x="100" />
<glyph unicode="&#x2010;" horiz-adv-x="430" d="M47 606v146h336v-146h-336z" />
<glyph unicode="&#x2011;" horiz-adv-x="430" d="M47 606v146h336v-146h-336z" />
<glyph unicode="&#x2012;" horiz-adv-x="430" d="M47 606v146h336v-146h-336z" />
<glyph unicode="&#x2013;" horiz-adv-x="643" d="M47 612v133h549v-133h-549z" />
<glyph unicode="&#x2014;" horiz-adv-x="1081" d="M47 612v133h987v-133h-987z" />
<glyph unicode="&#x2018;" horiz-adv-x="284" d="M25 999l112 435h123l-92 -435h-143z" />
<glyph unicode="&#x2019;" horiz-adv-x="284" d="M25 999l92 435h143l-113 -435h-122z" />
<glyph unicode="&#x201a;" horiz-adv-x="307" d="M35 -305l92 434h143l-112 -434h-123z" />
<glyph unicode="&#x201c;" horiz-adv-x="479" d="M25 999l112 435h123l-92 -435h-143zM219 999l113 435h123l-93 -435h-143z" />
<glyph unicode="&#x201d;" horiz-adv-x="479" d="M25 999l92 435h143l-113 -435h-122zM219 999l92 435h144l-113 -435h-123z" />
<glyph unicode="&#x201e;" horiz-adv-x="505" d="M25 -305l92 434h143l-113 -434h-122zM238 -305l92 434h143l-113 -434h-122z" />
<glyph unicode="&#x2022;" horiz-adv-x="405" d="M61 664q0 79 39 121t103 42t102.5 -42t38.5 -121t-38.5 -121.5t-102.5 -42.5t-103 42.5t-39 121.5z" />
<glyph unicode="&#x2026;" horiz-adv-x="792" d="M68 0v186h151v-186h-151zM322 0v186h149v-186h-149zM573 0v186h150v-186h-150z" />
<glyph unicode="&#x202f;" horiz-adv-x="360" />
<glyph unicode="&#x2039;" horiz-adv-x="473" d="M43 604l244 447h147l-246 -447l246 -444h-147z" />
<glyph unicode="&#x203a;" horiz-adv-x="473" d="M39 160l246 444l-246 447h147l244 -447l-244 -444h-147z" />
<glyph unicode="&#x205f;" horiz-adv-x="451" />
<glyph unicode="&#x20ac;" horiz-adv-x="759" d="M16 547v119h72v114h-72v119h72v209q0 95 24 164.5t68 109t97.5 58t119.5 18.5q65 0 119 -18.5t98 -58t68.5 -109t24.5 -164.5v-45l-164 -33v78q0 110 -38 153.5t-108 43.5q-69 0 -107 -43.5t-38 -153.5v-209h360l-14 -119h-346v-114h330l-13 -119h-317v-223 q0 -108 38 -152.5t107 -44.5t107.5 44.5t38.5 152.5v53l164 35v-86q0 -95 -24.5 -165t-68.5 -109.5t-98 -58t-119 -18.5q-138 0 -223.5 83.5t-85.5 267.5v221h-72z" />
<glyph unicode="&#x2122;" horiz-adv-x="696" d="M55 1348v86h232v-86h-74v-308h-84v308h-74zM297 1040l29 394h92l51 -250l53 250h94l27 -394h-82l-10 228l-45 -197h-76l-45 197l-8 -228h-80z" />
<glyph unicode="&#x25fc;" horiz-adv-x="1085" d="M0 0v1085h1085v-1085h-1085z" />
</font>
</defs>
</svg>
