<?xml version="1.0" standalone="no"?>
<!DOCTYPE svg PUBLIC "-//W3C//DTD SVG 1.1//EN" "http://www.w3.org/Graphics/SVG/1.1/DTD/svg11.dtd" >
<svg xmlns="http://www.w3.org/2000/svg">
<metadata></metadata>
<defs>
<font id="bnpp_sans_condensedlight" horiz-adv-x="684" >
<font-face units-per-em="2048" ascent="1536" descent="-512" />
<missing-glyph horiz-adv-x="344" />
<glyph unicode="&#xfb01;" horiz-adv-x="626" d="M-94 -199q53 -16 86 -16q121 0 121 164v1038h-101v92h101v181q0 99 46.5 136.5t121.5 37.5h92v-93h-88q-42 0 -58 -17t-16 -62v-183h156v-92h-156v-1038q0 -136 -58.5 -197t-146.5 -61q-53 0 -100 18v92zM426 0v1434l98 20v-1454h-98z" />
<glyph unicode="&#xfb02;" horiz-adv-x="626" d="M-94 -199q53 -16 86 -16q121 0 121 164v1038h-101v92h101v181q0 99 46.5 136.5t121.5 37.5h92v-93h-88q-42 0 -58 -17t-16 -62v-183h313v-1079h-98v987h-215v-1038q0 -136 -58.5 -197t-146.5 -61q-53 0 -100 18v92zM426 1239v195h98v-195h-98z" />
<glyph unicode="&#xfb03;" horiz-adv-x="940" d="M-94 -199q53 -16 86 -16q121 0 121 164v1038h-101v92h101v181q0 99 46.5 136.5t121.5 37.5h92v-93h-88q-42 0 -58 -17t-16 -62v-183h215v181q0 99 46.5 136.5t121.5 37.5h92v-93h-88q-42 0 -58 -17t-16 -62v-183h314v-1079h-99v987h-215v-1038q0 -136 -58.5 -197 t-146.5 -61q-53 0 -100 18v92q53 -16 86 -16q121 0 121 164v1038h-215v-1038q0 -136 -58.5 -197t-146.5 -61q-53 0 -100 18v92zM739 1239v195h99v-195h-99z" />
<glyph unicode="&#xfb04;" horiz-adv-x="940" d="M-94 -199q53 -16 86 -16q121 0 121 164v1038h-101v92h101v181q0 99 46.5 136.5t121.5 37.5h92v-93h-88q-42 0 -58 -17t-16 -62v-183h215v181q0 99 46.5 136.5t121.5 37.5h92v-93h-88q-42 0 -58 -17t-16 -62v-183h156v-92h-156v-1038q0 -136 -58.5 -197t-146.5 -61 q-53 0 -100 18v92q53 -16 86 -16q121 0 121 164v1038h-215v-1038q0 -136 -58.5 -197t-146.5 -61q-53 0 -100 18v92zM739 0v1434l99 20v-1454h-99z" />
<glyph horiz-adv-x="0" />
<glyph horiz-adv-x="682" />
<glyph unicode=" "  horiz-adv-x="344" />
<glyph unicode="&#x09;" horiz-adv-x="344" />
<glyph unicode="&#xa0;" horiz-adv-x="344" />
<glyph unicode="!" horiz-adv-x="348" d="M123 0v147h102v-147h-102zM123 1434h102l-6 -1164h-90z" />
<glyph unicode="&#x22;" horiz-adv-x="425" d="M82 948v486h98v-486h-98zM246 948v486h98v-486h-98z" />
<glyph unicode="#" horiz-adv-x="745" d="M-4 397l10 88h172l49 461h-172l11 88h172l41 400h90l-41 -400h161l41 400h91l-41 -400h170l-11 -88h-172l-47 -461h170l-10 -88h-170l-41 -397h-90l41 397h-162l-41 -397h-90l41 397h-172zM268 485h162l49 461h-164z" />
<glyph unicode="$" horiz-adv-x="661" d="M61 285v121l103 20v-141q0 -82 45.5 -124t124.5 -42q72 0 121 46.5t49 123.5v121q0 44 -16.5 84t-33.5 60t-44 46l-185 176q-70 66 -104.5 124.5t-34.5 137.5v95q0 116 60.5 179.5t154.5 73.5v150h66v-152q91 -11 153 -79t62 -172v-142l-103 -20v162q0 78 -40 120.5 t-109 42.5t-108.5 -44.5t-39.5 -123.5v-84q0 -58 24.5 -99t82.5 -97l182 -178q28 -27 44.5 -45t39.5 -50t34 -68t11 -77v-145q0 -114 -69 -180t-164 -76v-209h-66v209q-105 9 -172.5 76.5t-67.5 179.5z" />
<glyph unicode="%" horiz-adv-x="962" d="M82 860v410q0 104 39.5 146t114.5 42q74 0 113.5 -42t39.5 -146v-410q0 -104 -39.5 -146t-113.5 -42q-75 0 -114.5 42t-39.5 146zM164 860q0 -67 17.5 -89.5t54.5 -22.5q36 0 53.5 22.5t17.5 89.5v410q0 66 -17.5 89t-53.5 23q-37 0 -54.5 -23t-17.5 -89v-410zM170 0 l545 1434h84l-547 -1434h-82zM573 164v409q0 104 39.5 146.5t114.5 42.5q74 0 114 -42.5t40 -146.5v-409q0 -104 -40 -146.5t-114 -42.5q-75 0 -114.5 42.5t-39.5 146.5zM655 164q0 -67 17.5 -90t54.5 -23q36 0 54 23t18 90v409q0 66 -18 89.5t-54 23.5q-37 0 -54.5 -23.5 t-17.5 -89.5v-409z" />
<glyph unicode="&#x26;" horiz-adv-x="774" d="M61 262v230q0 51 14.5 94.5t42 78t53 58t62.5 49.5q-108 172 -108 299v127q0 123 53.5 191.5t167.5 68.5q219 0 219 -260v-127q0 -50 -16.5 -94.5t-51 -85t-65.5 -69t-82 -68.5l240 -428q6 46 6 98q0 137 -43 252h90q39 -101 39 -236q0 -121 -33 -219l125 -221h-104 l-68 119q-92 -144 -250 -144q-131 0 -211 73.5t-80 213.5zM156 256q0 -96 54.5 -144.5t139.5 -48.5q143 0 205 138l-279 497q-59 -44 -89.5 -91.5t-30.5 -117.5v-233zM219 1071q0 -62 24 -120t66 -128q44 35 68.5 58t49 53t34.5 62.5t10 72.5v129q0 94 -32.5 133t-94.5 39 q-61 0 -93 -38.5t-32 -133.5v-127z" />
<glyph unicode="'" horiz-adv-x="262" d="M82 948v486h98v-486h-98z" />
<glyph unicode="(" horiz-adv-x="419" d="M72 606q0 144 17 274t38 217t60 180.5t63.5 139.5t66.5 119h93q-30 -51 -46.5 -80.5t-47 -92t-49 -111.5t-42.5 -126t-37 -151t-22.5 -171t-9.5 -200t9.5 -200t22.5 -171t37 -151t42.5 -126t49 -111.5t47 -92t46.5 -80.5h-93q-43 75 -67 119.5t-63 138.5t-60 180.5 t-38 218t-17 277.5z" />
<glyph unicode=")" horiz-adv-x="419" d="M10 -328q30 51 46.5 80.5t47 92t49 111.5t42.5 126t37 151t22.5 171t9.5 200t-9.5 200t-22.5 171t-37 151t-42.5 126t-49 111.5t-47 92t-46.5 80.5h92q43 -74 67 -119.5t63 -139.5t60.5 -180.5t38.5 -216.5t17 -274q0 -146 -17 -277.5t-38 -218t-61 -181t-63 -138.5 t-67 -119h-92z" />
<glyph unicode="*" horiz-adv-x="436" d="M41 1208l125 47l-125 48l47 83l105 -86l-23 134h96l-22 -134l104 86l47 -83l-125 -48l125 -47l-47 -84l-104 86l22 -133h-96l23 133l-105 -86z" />
<glyph unicode="+" horiz-adv-x="651" d="M51 633v92h228v315h92v-315h229v-92h-229v-309h-92v309h-228z" />
<glyph unicode="," horiz-adv-x="210" d="M-31 -270l99 417h102l-117 -417h-84z" />
<glyph unicode="-" horiz-adv-x="407" d="M41 629v100h326v-100h-326z" />
<glyph unicode="." horiz-adv-x="266" d="M82 0v147h102v-147h-102z" />
<glyph unicode="/" horiz-adv-x="405" d="M-20 -162l372 1596h74l-373 -1596h-73z" />
<glyph unicode="0" horiz-adv-x="696" d="M82 311v811q0 185 68.5 260.5t197.5 75.5t197.5 -75.5t68.5 -260.5v-811q0 -185 -68.5 -260.5t-197.5 -75.5t-197.5 75.5t-68.5 260.5zM184 311q0 -75 11.5 -124t34.5 -74.5t50.5 -35t67.5 -9.5t67.5 9.5t50.5 35t34.5 74.5t11.5 124v811q0 75 -11.5 124.5t-34.5 75 t-50.5 35t-67.5 9.5t-67.5 -9.5t-50.5 -35t-34.5 -75t-11.5 -124.5v-811z" />
<glyph unicode="1" horiz-adv-x="413" d="M35 1296v97l256 41v-1434h-103v1321z" />
<glyph unicode="2" horiz-adv-x="663" d="M76 0v139q0 99 22 185t58 148.5t79 118t85.5 102.5t78.5 92t58 96.5t22 105.5v211q0 76 -39 122t-108 46t-108.5 -43t-39.5 -121v-182l-96 20v162q0 116 69.5 186t172.5 70t177.5 -65.5t74.5 -190.5v-217q0 -67 -22.5 -126.5t-58.5 -107t-79.5 -94.5t-87 -98.5 t-79.5 -109t-58.5 -136t-22.5 -168.5v-53h404v-92h-502z" />
<glyph unicode="3" horiz-adv-x="667" d="M82 231v162l96 21v-183q0 -78 39.5 -120.5t108.5 -42.5t108 44.5t39 123.5v210q0 131 -39 186.5t-129 55.5h-96v88h100q164 0 164 211v211q0 79 -39 123.5t-108 44.5t-108.5 -43t-39.5 -121v-182l-96 20v162q0 116 69.5 186t172.5 70t177 -65.5t74 -190.5v-217 q0 -89 -32.5 -147t-104.5 -103v-2q78 -29 107.5 -84.5t29.5 -187.5v-230q0 -125 -74 -190.5t-177 -65.5t-172.5 70t-69.5 186z" />
<glyph unicode="4" horiz-adv-x="643" d="M20 334v82l353 1018h147v-1008h92v-92h-92v-334h-102v334h-398zM117 426h301v881z" />
<glyph unicode="5" horiz-adv-x="657" d="M82 231v162l96 21v-183q0 -78 39.5 -120.5t108.5 -42.5t108 44.5t39 123.5v333q0 119 -53 172.5t-137 53.5q-64 0 -140 -27l-41 47v619h463v-93h-364v-464q47 12 98 12q55 0 102.5 -16.5t87.5 -50.5t63 -95t23 -143v-353q0 -125 -74 -190.5t-177 -65.5t-172.5 70 t-69.5 186z" />
<glyph unicode="6" horiz-adv-x="696" d="M82 311v811q0 185 68.5 260.5t197.5 75.5q113 0 181.5 -69t68.5 -187v-162l-102 -20v182q0 78 -39.5 121t-108.5 43q-40 0 -67.5 -9.5t-50.5 -35t-34.5 -75t-11.5 -124.5v-352q30 33 82.5 52.5t108.5 19.5q47 0 88.5 -14t76 -42.5t54.5 -78t20 -113.5v-283 q0 -185 -68.5 -260.5t-197.5 -75.5t-197.5 75.5t-68.5 260.5zM184 311q0 -75 11.5 -124.5t34.5 -75t50.5 -34.5t67.5 -9t67.5 9t50.5 34.5t34.5 75t11.5 124.5v273q0 84 -43 125t-109 41q-49 0 -97 -21t-79 -55v-363z" />
<glyph unicode="7" horiz-adv-x="585" d="M20 1341v93h555v-84l-401 -1350h-102l407 1341h-459z" />
<glyph unicode="8" horiz-adv-x="704" d="M82 231v230q0 117 28 179.5t89 94.5q-59 45 -88 100.5t-29 149.5v217q0 127 76 191.5t194 64.5t194.5 -64.5t76.5 -191.5v-217q0 -94 -29 -149.5t-88 -100.5q61 -32 89 -94.5t28 -179.5v-230q0 -85 -39.5 -144.5t-99 -85.5t-132.5 -26q-54 0 -101.5 15.5t-85.5 45.5 t-60.5 80.5t-22.5 114.5zM184 236q0 -80 43 -124t125 -44t125 44t43 124v210q0 131 -39 186.5t-129 55.5t-129 -55.5t-39 -186.5v-210zM184 987q0 -108 44.5 -159.5t123.5 -51.5t123.5 51.5t44.5 159.5v211q0 80 -43.5 124t-124.5 44t-124.5 -44t-43.5 -124v-211z" />
<glyph unicode="9" horiz-adv-x="696" d="M82 840v282q0 185 68.5 260.5t197.5 75.5t197.5 -75.5t68.5 -260.5v-811q0 -185 -68.5 -260.5t-197.5 -75.5q-113 0 -181.5 69t-68.5 187v162l103 21v-183q0 -78 39 -120.5t108 -42.5q40 0 67.5 9.5t50.5 35t34.5 74.5t11.5 124v353q-30 -33 -82 -52.5t-108 -19.5 q-64 0 -116.5 24t-88 81.5t-35.5 142.5zM184 850q0 -84 43 -125t109 -41q49 0 97 21t79 55v362q0 75 -11.5 125t-34.5 75t-50.5 34.5t-67.5 9.5t-67.5 -9.5t-50.5 -34.5t-34.5 -75t-11.5 -125v-272z" />
<glyph unicode=":" horiz-adv-x="286" d="M92 0v147h103v-147h-103zM92 932v147h103v-147h-103z" />
<glyph unicode=";" horiz-adv-x="286" d="M-8 -270l98 417h103l-117 -417h-84zM92 932v147h103v-147h-103z" />
<glyph unicode="&#x3c;" horiz-adv-x="651" d="M72 633v92l508 375v-115l-424 -307l424 -299v-115z" />
<glyph unicode="=" horiz-adv-x="651" d="M72 489v93h508v-93h-508zM72 776v92h508v-92h-508z" />
<glyph unicode="&#x3e;" horiz-adv-x="651" d="M72 264v115l424 299l-424 307v115l508 -375v-92z" />
<glyph unicode="?" horiz-adv-x="561" d="M31 1040v162q0 117 64 186.5t165 69.5q103 0 176.5 -65.5t73.5 -190.5v-196q0 -54 -22 -109t-53 -101.5t-62.5 -93t-53.5 -100t-22 -104.5v-228h-102v215q0 66 22 128.5t53.5 110.5t62.5 93t53 93.5t22 93.5v194q0 79 -38.5 123.5t-107.5 44.5q-129 0 -129 -164v-182z M195 0v147h102v-147h-102z" />
<glyph unicode="@" horiz-adv-x="1067" d="M102 125v645q0 118 33 204t93 135t135 72t169 23q195 0 314 -99t119 -302v-504q0 -111 -48.5 -168t-128.5 -57q-102 0 -141 88q-40 -57 -93 -81t-101 -13q-50 11 -80.5 53t-30.5 110v476q0 96 53 140t133 44q110 0 193 -64v-561q0 -59 15 -83.5t57 -24.5q40 0 56.5 34.5 t16.5 106.5v494q0 325 -338 325q-76 0 -132 -16t-102 -54t-69.5 -107.5t-23.5 -170.5v-633q0 -170 91 -239.5t265 -69.5q162 0 330 53v-92q-171 -47 -342 -47q-101 0 -178 19t-138.5 61.5t-94 118.5t-32.5 184zM440 244q0 -61 31.5 -80t71.5 6q41 21 80 76v522 q-38 27 -79.5 31t-72.5 -23.5t-31 -87.5v-444z" />
<glyph unicode="A" horiz-adv-x="714" d="M20 0l254 1434h156l264 -1434h-108l-70 403h-326l-67 -403h-103zM205 496h295l-148 845h-4z" />
<glyph unicode="B" horiz-adv-x="763" d="M123 0v1434h260q254 0 254 -246v-234q0 -156 -125 -217v-4q25 -10 30.5 -12t28 -13.5t30 -19.5t23 -25t21.5 -35.5t11.5 -46.5t5.5 -61v-291q0 -61 -22.5 -107t-62.5 -71.5t-88 -38t-104 -12.5h-262zM225 92h160q71 0 120.5 34.5t49.5 102.5v291q0 76 -52 121t-126 45 h-152v-594zM225 778h160q65 0 107.5 49.5t42.5 116.5v236q0 161 -160 161h-150v-563z" />
<glyph unicode="C" horiz-adv-x="706" d="M82 311v811q0 92 23.5 159t65 104.5t91 55t107.5 17.5t107 -17.5t90.5 -55t65 -104.5t23.5 -159v-47l-102 -20v67q0 136 -50 190t-134 54t-134.5 -54t-50.5 -190v-811q0 -71 14.5 -120.5t41.5 -75.5t58 -36.5t71 -10.5q84 0 134 53.5t50 189.5v88l102 21v-109 q0 -92 -23.5 -159t-65 -104.5t-90.5 -55t-107 -17.5t-107.5 17.5t-91 55t-65 104.5t-23.5 159z" />
<glyph unicode="D" horiz-adv-x="768" d="M123 0v1434h276q58 0 107.5 -17.5t91 -55t65 -104.5t23.5 -159v-762q0 -92 -23.5 -159t-65 -104.5t-91 -55t-107.5 -17.5h-276zM225 92h174q84 0 134.5 54t50.5 190v762q0 71 -14.5 120.5t-41.5 75.5t-58 36.5t-71 10.5h-174v-1249z" />
<glyph unicode="E" horiz-adv-x="602" d="M123 0v1434h397v-93h-295v-563h258v-92h-258v-594h320v-92h-422z" />
<glyph unicode="F" horiz-adv-x="561" d="M123 0v1434h391v-93h-289v-563h248v-92h-248v-686h-102z" />
<glyph unicode="G" horiz-adv-x="776" d="M82 311v811q0 92 23.5 159t65 104.5t91 55t107.5 17.5t107 -17.5t90.5 -55t65 -104.5t23.5 -159v-47l-102 -20v67q0 136 -50 190t-134 54t-134.5 -54t-50.5 -190v-811q0 -71 14.5 -120.5t41.5 -75.5t58 -36.5t71 -10.5q186 0 186 284v324h-217v92h319v-768h-100v80 q-31 -47 -82.5 -76t-116.5 -29q-120 0 -198 83t-78 253z" />
<glyph unicode="H" horiz-adv-x="845" d="M123 0v1434h102v-668h396v668h102v-1434h-102v674h-396v-674h-102z" />
<glyph unicode="I" horiz-adv-x="348" d="M123 0v1434h102v-1434h-102z" />
<glyph unicode="J" horiz-adv-x="389" d="M4 -4v94q49 -22 82 -22q48 0 63 30.5t15 94.5v1241h102v-1237q0 -109 -46.5 -165.5t-123.5 -56.5q-43 0 -92 21z" />
<glyph unicode="K" horiz-adv-x="677" d="M123 0v1434h102v-744l328 744h102l-276 -603l289 -831h-107l-242 709l-94 -205v-504h-102z" />
<glyph unicode="L" horiz-adv-x="542" d="M113 0v1434h102v-1342h281v-92h-383z" />
<glyph unicode="M" horiz-adv-x="1077" d="M102 0l60 1434h153l230 -1237l215 1237h155l60 -1434h-103l-38 1341l-226 -1226h-135l-231 1226l-37 -1341h-103z" />
<glyph unicode="N" horiz-adv-x="868" d="M123 0v1434h153l367 -1342v1342h92v-1434h-153l-367 1341v-1341h-92z" />
<glyph unicode="O" horiz-adv-x="737" d="M82 311v811q0 92 23.5 159t65 104.5t91 55t107.5 17.5t107 -17.5t90.5 -55t65 -104.5t23.5 -159v-811q0 -92 -23.5 -159t-65 -104.5t-90.5 -55t-107 -17.5t-107.5 17.5t-91 55t-65 104.5t-23.5 159zM184 311q0 -71 14.5 -120.5t41.5 -75.5t58 -36.5t71 -10.5 q84 0 134 53.5t50 189.5v811q0 136 -50 190t-134 54t-134.5 -54t-50.5 -190v-811z" />
<glyph unicode="P" horiz-adv-x="708" d="M123 0v1434h239q123 0 194 -59.5t71 -186.5v-397q0 -127 -77.5 -187.5t-205.5 -60.5h-119v-543h-102zM225 635h127q172 0 172 153v392q0 80 -45.5 120.5t-124.5 40.5h-129v-706z" />
<glyph unicode="Q" horiz-adv-x="737" d="M82 311v811q0 92 23.5 159t65 104.5t91 55t107.5 17.5t107 -17.5t90.5 -55t65 -104.5t23.5 -159v-811q0 -255 -176 -317l115 -240h-127l-90 221h-8q-58 0 -107.5 17.5t-91 55t-65 104.5t-23.5 159zM184 311q0 -71 14.5 -120.5t41.5 -75.5t58 -36.5t71 -10.5 q84 0 134 53.5t50 189.5v811q0 136 -50 190t-134 54t-134.5 -54t-50.5 -190v-811z" />
<glyph unicode="R" horiz-adv-x="708" d="M123 0v1434h239q123 0 194 -59.5t71 -186.5v-283q0 -151 -135 -209v-4q57 -23 93 -77.5t36 -143.5v-471h-107v473q0 78 -45 125t-117 47h-127v-645h-102zM225 737h127q71 0 121.5 45.5t50.5 120.5v277q0 80 -45.5 120.5t-124.5 40.5h-129v-604z" />
<glyph unicode="S" horiz-adv-x="724" d="M92 233v162l103 21v-183q0 -82 45.5 -123.5t124.5 -41.5q71 0 118 46t47 124v172q0 44 -17 83.5t-33 59t-44 47.5l-184 176q-69 66 -104 128t-35 151v147q0 125 73 190.5t176 65.5q104 0 177 -70.5t73 -185.5v-162l-102 -20v182q0 78 -40.5 121t-109.5 43t-107 -44 t-38 -124v-133q0 -38 7 -66.5t25.5 -55.5t33 -43t47.5 -48l182 -178q26 -26 43.5 -46.5t38 -52t31 -68t10.5 -77.5v-197q0 -64 -24.5 -115t-64.5 -81t-86.5 -46t-95.5 -16q-115 0 -192.5 69t-77.5 189z" />
<glyph unicode="T" horiz-adv-x="573" d="M20 1341v93h533v-93h-215v-1341h-102v1341h-216z" />
<glyph unicode="U" horiz-adv-x="778" d="M113 311v1123h102v-1123q0 -137 45.5 -190t128.5 -53t128.5 53t45.5 190v1123h103v-1123q0 -92 -22 -159t-61.5 -104.5t-87.5 -55t-106 -17.5t-105.5 17.5t-87 55t-61.5 104.5t-22 159z" />
<glyph unicode="V" horiz-adv-x="710" d="M20 1434h109l227 -1342h6l226 1342h102l-256 -1434h-158z" />
<glyph unicode="W" horiz-adv-x="1103" d="M20 1434h109l178 -1342l176 1342h154l172 -1342l166 1342h108l-204 -1434h-150l-170 1341l-178 -1341h-150z" />
<glyph unicode="X" horiz-adv-x="702" d="M20 0l279 737l-260 697h106l217 -582l203 582h103l-260 -703l274 -731h-107l-229 612l-223 -612h-103z" />
<glyph unicode="Y" horiz-adv-x="665" d="M20 1434h113l207 -721l203 721h102l-260 -863v-571h-104v571z" />
<glyph unicode="Z" horiz-adv-x="688" d="M41 0v78l500 1263h-473v93h579v-80l-500 -1262h496v-92h-602z" />
<glyph unicode="[" horiz-adv-x="366" d="M113 -328v1864h233v-72h-151v-1720h151v-72h-233z" />
<glyph unicode="\" horiz-adv-x="436" d="M10 1434h74l373 -1596h-74z" />
<glyph unicode="]" horiz-adv-x="366" d="M20 -256h152v1720h-152v72h234v-1864h-234v72z" />
<glyph unicode="^" horiz-adv-x="651" d="M51 719l217 715h113l217 -715h-94l-180 614l-179 -614h-94z" />
<glyph unicode="_" horiz-adv-x="655" d="M0 -25h655v-92h-655v92z" />
<glyph unicode="`" horiz-adv-x="1024" d="M401 1434h113l109 -250h-84z" />
<glyph unicode="a" horiz-adv-x="624" d="M51 164v209q0 107 65.5 165t174.5 58h123v270q0 150 -123 150q-55 0 -89 -37.5t-34 -114.5v-98l-98 14v80q0 106 56 175t165 69q221 0 221 -227v-740q0 -65 35 -65q22 0 61 26v-88q-47 -35 -92 -35q-39 0 -63 24.5t-29 63.5q-34 -40 -82 -64t-98 -24q-80 0 -136.5 49 t-56.5 140zM150 180q0 -59 29.5 -89t76.5 -30q38 0 81 27.5t77 69.5v354h-121q-69 0 -106 -36t-37 -103v-193z" />
<glyph unicode="b" horiz-adv-x="688" d="M102 0v1434l99 20v-436q82 86 180 86q106 0 160.5 -68t54.5 -200v-592q0 -121 -69 -195t-160 -74q-90 0 -166 86v-61h-99zM201 170q32 -47 75 -77t84 -30q58 0 98 49t40 132v592q0 180 -133 180q-44 0 -87 -28.5t-77 -74.5v-743z" />
<glyph unicode="c" horiz-adv-x="663" d="M92 244v592q0 71 22 125t59.5 84t80 44.5t88.5 14.5t88.5 -14.5t80 -44.5t59.5 -84t22 -125v-74l-98 -14v88q0 89 -43 134.5t-109 45.5t-109 -45.5t-43 -134.5v-592q0 -89 43 -135t109 -46t109 46t43 135v78l98 14v-92q0 -71 -22 -125.5t-59.5 -84.5t-80 -44.5 t-88.5 -14.5t-88.5 14.5t-80 44.5t-59.5 84.5t-22 125.5z" />
<glyph unicode="d" horiz-adv-x="688" d="M92 244v592q0 126 63 197t158 71q86 0 174 -60v390l99 20v-1454h-99v63q-95 -88 -180 -88q-91 0 -153 72t-62 197zM190 244q0 -90 37.5 -135.5t100.5 -45.5q43 0 85 29.5t74 77.5v782q-92 64 -170 64q-58 0 -92.5 -43.5t-34.5 -136.5v-592z" />
<glyph unicode="e" d="M92 244v592q0 71 22 125t59.5 84t80 44.5t88.5 14.5t88.5 -14.5t80 -44.5t59.5 -84t22 -125v-254h-402v-338q0 -89 43 -135t109 -46t109 46t43 135v78l98 14v-92q0 -71 -22 -125.5t-59.5 -84.5t-80 -44.5t-88.5 -14.5t-88.5 14.5t-80 44.5t-59.5 84.5t-22 125.5zM190 670 h304v166q0 89 -43 134.5t-109 45.5t-109 -45.5t-43 -134.5v-166z" />
<glyph unicode="f" horiz-adv-x="323" d="M-94 -199q53 -16 86 -16q121 0 121 164v1038h-101v92h101v166q0 136 58.5 197t145.5 61q45 0 101 -18v-92q-46 14 -88 14q-119 0 -119 -162v-166h178v-92h-178v-1038q0 -136 -58.5 -197t-146.5 -61q-53 0 -100 18v92z" />
<glyph unicode="g" horiz-adv-x="667" d="M92 236v600q0 131 58 199.5t165 68.5q99 0 172 -86v61h99v-1130q0 -67 -24 -118.5t-65 -81.5t-90.5 -45t-105.5 -15q-81 0 -168 37v96q87 -37 174 -37q85 0 132.5 44t47.5 120v108q-33 -38 -81.5 -60t-94.5 -22q-91 0 -155 70t-64 191zM190 236q0 -85 39.5 -129t98.5 -44 q43 0 85.5 26.5t73.5 72.5v745q-79 109 -176 109q-63 0 -92 -43t-29 -137v-600z" />
<glyph unicode="h" horiz-adv-x="688" d="M102 0v1434l99 20v-436q82 86 188 86q88 0 147.5 -61.5t59.5 -178.5v-864h-98v850q0 80 -35.5 123t-93.5 43q-89 0 -168 -103v-913h-99z" />
<glyph unicode="i" horiz-adv-x="303" d="M102 0v1079h99v-1079h-99zM102 1239v195h99v-195h-99z" />
<glyph unicode="j" horiz-adv-x="303" d="M-84 -203q53 -16 84 -16q56 0 79 41t23 123v1134h99v-1134q0 -137 -53 -197.5t-136 -60.5q-50 0 -96 18v92zM102 1239v195h99v-195h-99z" />
<glyph unicode="k" horiz-adv-x="593" d="M102 0v1434l99 20v-840l266 465h104l-243 -420l256 -659h-103l-217 551l-63 -111v-440h-99z" />
<glyph unicode="l" horiz-adv-x="303" d="M102 0v1434l99 20v-1454h-99z" />
<glyph unicode="m" horiz-adv-x="1042" d="M102 0v1079h99v-61q82 86 178 86q50 0 97 -27.5t71 -72.5q83 100 198 100q85 0 145 -63t60 -177v-864h-98v850q0 78 -36.5 122t-90.5 44q-41 0 -81.5 -26.5t-68.5 -76.5v-913h-98v850q0 82 -31 124t-88 42q-50 0 -84.5 -27t-72.5 -76v-913h-99z" />
<glyph unicode="n" horiz-adv-x="688" d="M102 0v1079h99v-61q82 86 188 86q88 0 147.5 -61.5t59.5 -178.5v-864h-98v850q0 80 -35.5 123t-93.5 43q-89 0 -168 -103v-913h-99z" />
<glyph unicode="o" d="M92 244v592q0 71 22 125t59.5 84t80 44.5t88.5 14.5t88.5 -14.5t80 -44.5t59.5 -84t22 -125v-592q0 -71 -22 -125.5t-59.5 -84.5t-80 -44.5t-88.5 -14.5t-88.5 14.5t-80 44.5t-59.5 84.5t-22 125.5zM190 244q0 -89 43 -135t109 -46t109 46t43 135v592q0 89 -43 134.5 t-109 45.5t-109 -45.5t-43 -134.5v-592z" />
<glyph unicode="p" horiz-adv-x="688" d="M102 -326v1405h99v-61q82 86 180 86q106 0 160.5 -68t54.5 -200v-592q0 -121 -69 -195t-160 -74q-94 0 -166 82v-362zM201 170q32 -47 75 -77t84 -30q58 0 98 49t40 132v592q0 180 -133 180q-44 0 -87 -28.5t-77 -74.5v-743z" />
<glyph unicode="q" horiz-adv-x="688" d="M92 244v592q0 131 58 199.5t165 68.5q99 0 172 -86v61h99v-1382l-99 -21v390q-35 -40 -83.5 -65.5t-92.5 -25.5q-90 0 -154.5 74t-64.5 195zM190 244q0 -83 40 -133t98 -50q41 0 84 30.5t75 78.5v737q-79 109 -176 109q-62 0 -91.5 -43.5t-29.5 -136.5v-592z" />
<glyph unicode="r" horiz-adv-x="413" d="M102 0v1079h99v-82q92 98 205 107v-109q-129 -15 -205 -106v-889h-99z" />
<glyph unicode="s" horiz-adv-x="630" d="M92 205v117l94 14v-131q0 -70 39.5 -106t100.5 -36q57 0 91 35.5t34 104.5v100q0 54 -76 121l-168 151q-109 95 -109 195v107q0 107 62.5 167t152.5 60q109 0 168.5 -58.5t59.5 -171.5v-94l-95 -14v108q0 71 -36.5 106.5t-96.5 35.5q-116 0 -116 -139v-101q0 -57 75 -123 l168 -151q109 -95 109 -193v-106q0 -107 -66 -167.5t-157 -60.5q-109 0 -171.5 59t-62.5 171z" />
<glyph unicode="t" horiz-adv-x="430" d="M25 987v92h90v228l96 20v-248h178v-92h-178v-797q0 -68 24.5 -97.5t79.5 -29.5q54 0 107 31v-92q-58 -27 -125 -27q-37 0 -68 10.5t-58 33.5t-42.5 67.5t-15.5 106.5v794h-88z" />
<glyph unicode="u" horiz-adv-x="671" d="M92 244v835h98v-835q0 -90 40.5 -135.5t105.5 -45.5t105 45.5t40 135.5v835h99v-835q0 -71 -21.5 -125t-57.5 -84.5t-77.5 -45t-87.5 -14.5t-87.5 14.5t-77.5 45t-57.5 84.5t-21.5 125z" />
<glyph unicode="v" horiz-adv-x="636" d="M20 1079h105l197 -979h4l192 979h98l-229 -1079h-129z" />
<glyph unicode="w" horiz-adv-x="962" d="M31 1079h98l147 -966h5l139 966h129l145 -966h4l142 966h92l-174 -1079h-129l-144 971h-4l-143 -971h-129z" />
<glyph unicode="x" horiz-adv-x="602" d="M20 0l228 553l-223 526h98l184 -434l164 434h96l-217 -536l232 -543h-99l-190 446l-178 -446h-95z" />
<glyph unicode="y" horiz-adv-x="610" d="M-20 -199q47 -20 86 -20q132 0 192 280l-233 1018h98l184 -848l189 848h94l-248 -1044q-13 -55 -27 -98t-37.5 -91.5t-50.5 -80.5t-68 -53t-89 -21q-52 0 -90 18v92z" />
<glyph unicode="z" horiz-adv-x="628" d="M51 0v84l420 903h-391v92h489v-84l-419 -903h428v-92h-527z" />
<glyph unicode="{" horiz-adv-x="380" d="M10 559v82q51 0 84 51.5t33 130.5v416q0 179 29 244t112 71q39 3 72 -2v-79q-59 8 -86.5 -3.5t-36.5 -46.5q-8 -33 -8 -100v-494q0 -82 -31 -144t-84 -85q53 -23 84 -85t31 -144v-494q0 -67 8 -100q9 -35 36.5 -46t86.5 -3v-80q-33 -5 -72 -2q-83 6 -112 71t-29 244v416 q0 79 -33 130.5t-84 51.5z" />
<glyph unicode="|" horiz-adv-x="307" d="M113 -512v2048h82v-2048h-82z" />
<glyph unicode="}" horiz-adv-x="380" d="M41 -272q59 -8 86.5 3t36.5 46q8 33 8 100v494q0 82 31 144t84 85q-53 23 -84 85t-31 144v494q0 67 -8 100q-9 35 -36.5 46.5t-86.5 3.5v79q33 5 72 2q83 -6 112 -71t29 -244v-416q0 -79 33 -130.5t84 -51.5v-82q-51 0 -84 -51.5t-33 -130.5v-416q0 -179 -29 -244 t-112 -71q-39 -3 -72 2v80z" />
<glyph unicode="~" horiz-adv-x="651" d="M55 612q6 70 47.5 116t102.5 46q41 0 123 -44t114 -44q31 0 45.5 28t14.5 66q0 23 -2 31l94 -16q2 -12 2 -33q0 -66 -44.5 -117t-111.5 -51q-46 0 -124 41t-109 41q-60 0 -66 -90z" />
<glyph unicode="&#xa1;" horiz-adv-x="348" d="M123 -354l6 1163h90l6 -1163h-102zM123 932v147h102v-147h-102z" />
<glyph unicode="&#xa2;" horiz-adv-x="706" d="M72 377v680q0 163 70 243.5t182 90.5v145h65v-145q53 -4 97.5 -24t81 -58t57 -102.5t20.5 -149.5v-47l-102 -21v68q0 71 -14.5 120.5t-41.5 75.5t-58 36.5t-71 10.5q-84 0 -134 -53.5t-50 -189.5v-680q0 -136 50 -190t134 -54t134.5 54t50.5 190v88l102 20v-108 q0 -166 -71.5 -246t-184.5 -90v-221h-65v221q-112 10 -182 91t-70 245z" />
<glyph unicode="&#xa3;" horiz-adv-x="706" d="M61 0v63q53 40 78 100.5t25 155.5v373h-98v92h98v379q0 152 68.5 223.5t177.5 71.5t177 -71.5t68 -223.5v-88l-102 -20v108q0 112 -35.5 157.5t-107.5 45.5t-108 -45.5t-36 -157.5v-379h289v-92h-289v-319q0 -104 -12.5 -172.5t-46.5 -108.5h432v-92h-578z" />
<glyph unicode="&#xa5;" horiz-adv-x="665" d="M20 1434h103l213 -627l211 627h98l-252 -709h223v-92h-233v-633h-100v633h-234v92h223z" />
<glyph unicode="&#xa6;" horiz-adv-x="307" d="M113 373h82v-885h-82v885zM113 733v803h82v-803h-82z" />
<glyph unicode="&#xa7;" horiz-adv-x="583" d="M61 561v107q0 141 164 219l-45 43q-56 54 -82.5 97t-25.5 97v107q0 107 62.5 167t152.5 60q109 0 168 -58t59 -171v-94l-94 -15v109q0 69 -37.5 105t-95.5 36q-117 0 -117 -139v-101q0 -58 76 -122q11 -10 45.5 -39t49.5 -42t45 -40.5t44.5 -44t35.5 -42.5t31 -45.5 t17.5 -44t7.5 -46.5v-107q0 -144 -166 -221l47 -41q109 -95 109 -195v-106q0 -107 -62.5 -167t-152.5 -60q-109 0 -168 58t-59 171v94l94 14v-108q0 -71 36 -106t97 -35q117 0 117 139v100q0 56 -76 123q-15 13 -53 45t-56.5 48.5t-50 45.5t-48 50.5t-35 48.5t-26.5 53.5 t-8 52.5zM160 567q0 -29 22.5 -62t42 -51t70.5 -63q52 18 90.5 60t38.5 106v100q0 54 -76 121q-10 9 -29.5 26.5t-29.5 26.5q-55 -20 -92 -60.5t-37 -102.5v-101z" />
<glyph unicode="&#xa8;" horiz-adv-x="1024" d="M371 1239v195h98v-195h-98zM553 1239v195h98v-195h-98z" />
<glyph unicode="&#xa9;" horiz-adv-x="1406" d="M82 717q0 156 40 290t116.5 235t196 158.5t270.5 57.5q121 0 222.5 -37.5t174 -104.5t123.5 -160t75.5 -203.5t24.5 -235.5t-24.5 -235.5t-75.5 -203.5t-123.5 -160.5t-174 -105t-222.5 -37.5q-151 0 -270.5 57.5t-196 159t-116.5 235.5t-40 290zM178 717 q0 -138 32.5 -256.5t95.5 -210t165.5 -143.5t233.5 -52q105 0 191.5 34t147.5 94.5t103 144t62 181.5t20 208q0 137 -32 255t-95 209.5t-165 144t-232 52.5q-131 0 -233.5 -52.5t-165.5 -144t-95.5 -209.5t-32.5 -255zM442 489v447q0 71 22 125t59.5 84t80 44.5t88.5 14.5 t88.5 -14.5t80 -44.5t59.5 -84t22 -125v-74l-98 -14v88q0 89 -43 134.5t-109 45.5t-108.5 -45.5t-42.5 -134.5v-447q0 -89 42.5 -134.5t108.5 -45.5t109 45.5t43 134.5v78l98 15v-93q0 -71 -22 -125t-59.5 -84t-80 -44.5t-88.5 -14.5t-88.5 14.5t-80 44.5t-59.5 84t-22 125z " />
<glyph unicode="&#xaa;" horiz-adv-x="450" d="M72 934v113q0 64 39 98.5t104 34.5h55v137q0 40 -14.5 54.5t-40.5 14.5q-59 0 -59 -71v-66l-74 11v55q0 65 37.5 104t95.5 39q131 0 131 -135v-412q0 -24 27 -24q19 0 37 12v-59q-33 -23 -62 -23q-50 0 -67 43q-43 -43 -95 -43q-46 0 -80 31t-34 86zM147 942 q0 -26 14.5 -40.5t35.5 -14.5q42 0 73 39v188h-55q-68 0 -68 -67v-105z" />
<glyph unicode="&#xab;" horiz-adv-x="759" d="M53 612l250 467h115l-252 -467l252 -467h-115zM342 612l250 467h115l-252 -467l252 -467h-115z" />
<glyph unicode="&#xac;" horiz-adv-x="671" d="M82 633v92h508v-442h-90v350h-418z" />
<glyph unicode="&#xad;" horiz-adv-x="407" d="M41 629v100h326v-100h-326z" />
<glyph unicode="&#xae;" horiz-adv-x="528" d="M61 1235q0 106 54.5 164.5t148.5 58.5t148.5 -58.5t54.5 -164.5t-54.5 -164.5t-148.5 -58.5t-148.5 58.5t-54.5 164.5zM115 1235q0 -86 39 -131t110 -45t110.5 45.5t39.5 130.5t-39.5 130.5t-110.5 45.5t-110 -45t-39 -131zM195 1104v260h75q37 0 54.5 -15.5t17.5 -62.5 v-18q0 -16 -11 -28t-26 -15q39 -17 39 -58v-63h-55v53q0 37 -25 37h-16v-90h-53zM248 1241h20q19 0 19 29v20q0 27 -19 27h-20v-76z" />
<glyph unicode="&#xaf;" horiz-adv-x="1024" d="M348 1257v103h328v-103h-328z" />
<glyph unicode="&#xb0;" horiz-adv-x="430" d="M61 1280q0 86 42.5 132t111.5 46t111.5 -46t42.5 -132t-42.5 -132t-111.5 -46t-111.5 46t-42.5 132zM129 1280q0 -57 23 -85t63 -28t63 28t23 85t-23 85t-63 28t-63 -28t-23 -85z" />
<glyph unicode="&#xb1;" horiz-adv-x="651" d="M51 0v92h549v-92h-549zM51 633v92h228v315h92v-315h229v-92h-229v-309h-92v309h-228z" />
<glyph unicode="&#xb2;" horiz-adv-x="454" d="M82 688v88q0 58 15.5 106.5t39 80t51 62.5t51 54t39 54t15.5 65v111q0 73 -64 73q-63 0 -63 -71v-111l-78 12v99q0 66 40.5 106.5t100.5 40.5t102 -37t42 -110v-113q0 -52 -22 -94t-53.5 -73t-62.5 -64t-53 -84t-22 -117h213v-78h-291z" />
<glyph unicode="&#xb3;" horiz-adv-x="450" d="M82 819v96l80 15v-111q0 -71 61 -71q64 0 64 73v101q0 61 -17.5 86.5t-56.5 25.5h-63v74h65q72 0 72 96v105q0 73 -64 73q-61 0 -61 -71v-111l-80 12v99q0 66 40.5 106.5t100.5 40.5t103 -37t43 -110v-107q0 -82 -56 -129q30 -15 43 -48t13 -99v-109q0 -73 -43 -110 t-103 -37t-100.5 40.5t-40.5 106.5z" />
<glyph unicode="&#xb4;" horiz-adv-x="1024" d="M401 1184l109 250h113l-138 -250h-84z" />
<glyph unicode="&#xb6;" horiz-adv-x="747" d="M61 752v419q0 125 74.5 194t196.5 69h323v-1643h-92v1550h-100v-1550h-92v698h-39q-122 0 -196.5 69t-74.5 194zM154 754q0 -172 178 -172h39v759h-39q-178 0 -178 -172v-415z" />
<glyph unicode="&#xb7;" horiz-adv-x="286" d="M92 588v147h103v-147h-103z" />
<glyph unicode="&#xb8;" horiz-adv-x="1024" d="M399 -147q43 -19 72 -19q31 0 49.5 20t18.5 54q0 37 -25 92h88q23 -51 23 -90q0 -58 -32 -99.5t-83 -52.5q-10 -2 -31 -2q-39 0 -80 21v76z" />
<glyph unicode="&#xb9;" horiz-adv-x="325" d="M72 1346v77l161 25v-760h-81v668z" />
<glyph unicode="&#xba;" horiz-adv-x="415" d="M61 977v323q0 81 43 119.5t101 38.5q62 0 105.5 -38.5t43.5 -119.5v-323q0 -82 -43.5 -121t-105.5 -39q-58 0 -101 39t-43 121zM137 977q0 -43 19 -65.5t49 -22.5q32 0 51.5 22t19.5 66v323q0 86 -71 86q-30 0 -49 -21.5t-19 -64.5v-323z" />
<glyph unicode="&#xbb;" horiz-adv-x="759" d="M53 145l252 467l-252 467h115l250 -467l-250 -467h-115zM342 145l252 467l-252 467h115l250 -467l-250 -467h-115z" />
<glyph unicode="&#xbc;" horiz-adv-x="772" d="M72 0l544 1434h84l-546 -1434h-82zM82 1346v77l162 25v-760h-82v668zM369 154v61l153 530h129v-518h47v-73h-47v-154h-82v154h-200zM440 227h129v465z" />
<glyph unicode="&#xbd;" horiz-adv-x="831" d="M72 0l544 1434h84l-546 -1434h-82zM78 1346v77l162 25v-760h-82v668zM469 0v88q0 58 15.5 106.5t39 80t51 62.5t51 54t39 54t15.5 65v111q0 73 -64 73q-63 0 -63 -71v-111l-78 12v99q0 66 40.5 106.5t100.5 40.5t102 -37t42 -110v-113q0 -44 -16 -81.5t-39.5 -62 t-51 -54.5t-51 -58.5t-39.5 -74t-16 -101.5h213v-78h-291z" />
<glyph unicode="&#xbe;" horiz-adv-x="851" d="M82 819v96l80 15v-111q0 -71 61 -71q64 0 64 73v101q0 61 -17.5 86.5t-56.5 25.5h-63v74h65q72 0 72 96v105q0 73 -64 73q-61 0 -61 -71v-111l-80 12v99q0 66 40.5 106.5t100.5 40.5t103 -37t43 -110v-107q0 -82 -56 -129q30 -15 43 -48t13 -99v-109q0 -73 -43 -110 t-103 -37t-100.5 40.5t-40.5 106.5zM152 0l544 1434h84l-547 -1434h-81zM446 154v61l154 530h129v-518h47v-73h-47v-154h-82v154h-201zM518 227h129v465z" />
<glyph unicode="&#xbf;" horiz-adv-x="561" d="M31 74q0 54 22 109t53.5 101.5t62.5 93t53 100t22 104.5v227h102v-215q0 -66 -22 -128t-53 -110.5t-62.5 -93t-53.5 -93t-22 -93.5v-195q0 -79 38.5 -123.5t107.5 -44.5q129 0 129 164v182l102 -20v-162q0 -117 -64 -186.5t-165 -69.5q-103 0 -176.5 65.5t-73.5 190.5 v197zM244 932v147h102v-147h-102z" />
<glyph unicode="&#xc0;" horiz-adv-x="714" d="M20 0l254 1434h156l264 -1434h-108l-70 403h-326l-67 -403h-103zM168 1788h113l108 -250h-84zM205 496h295l-148 845h-4z" />
<glyph unicode="&#xc1;" horiz-adv-x="714" d="M20 0l254 1434h156l264 -1434h-108l-70 403h-326l-67 -403h-103zM205 496h295l-148 845h-4zM311 1538l109 250h112l-137 -250h-84z" />
<glyph unicode="&#xc2;" horiz-adv-x="714" d="M20 0l254 1434h156l264 -1434h-108l-70 403h-326l-67 -403h-103zM170 1538l129 250h102l129 -250h-88l-92 174l-92 -174h-88zM205 496h295l-148 845h-4z" />
<glyph unicode="&#xc3;" horiz-adv-x="714" d="M20 0l254 1434h156l264 -1434h-108l-70 403h-326l-67 -403h-103zM152 1589q6 67 37.5 106.5t80.5 39.5q33 0 94 -31t80 -31q23 0 31 19.5t8 60.5l82 -12q-1 -71 -34.5 -112.5t-84.5 -41.5q-34 0 -90.5 32t-74.5 32q-25 0 -35.5 -22t-16.5 -58zM205 496h295l-148 845h-4z " />
<glyph unicode="&#xc4;" horiz-adv-x="714" d="M20 0l254 1434h156l264 -1434h-108l-70 403h-326l-67 -403h-103zM205 496h295l-148 845h-4zM211 1565v194h98v-194h-98zM393 1565v194h99v-194h-99z" />
<glyph unicode="&#xc5;" horiz-adv-x="714" d="M20 0l254 1434h156l264 -1434h-108l-70 403h-326l-67 -403h-103zM205 496h295l-148 845h-4zM221 1661q0 57 38.5 96t98.5 39q61 0 100.5 -38.5t39.5 -96.5t-39.5 -96.5t-100.5 -38.5q-60 0 -98.5 39t-38.5 96zM285 1661q0 -33 20.5 -56.5t52.5 -23.5q33 0 54.5 23.5 t21.5 56.5t-21.5 56.5t-54.5 23.5q-32 0 -52.5 -23.5t-20.5 -56.5z" />
<glyph unicode="&#xc6;" horiz-adv-x="1003" d="M-41 0l494 1434h469v-93h-295v-563h258v-92h-258v-594h319v-92h-422v403h-319l-137 -403h-109zM236 496h288v845h-4z" />
<glyph unicode="&#xc7;" horiz-adv-x="706" d="M82 311v811q0 92 23.5 159t65 104.5t91 55t107.5 17.5t107 -17.5t90.5 -55t65 -104.5t23.5 -159v-47l-102 -20v67q0 136 -50 190t-134 54t-134.5 -54t-50.5 -190v-811q0 -71 14.5 -120.5t41.5 -75.5t58 -36.5t71 -10.5q84 0 134 53.5t50 189.5v88l102 21v-109 q0 -158 -66 -238t-171 -93q14 -44 14 -70q0 -58 -32 -99.5t-83 -52.5q-10 -2 -30 -2q-40 0 -80 21v76q43 -19 72 -19q31 0 49 20t18 54q0 22 -14 69q-111 10 -180.5 90.5t-69.5 243.5z" />
<glyph unicode="&#xc8;" horiz-adv-x="602" d="M123 0v1434h397v-93h-295v-563h258v-92h-258v-594h320v-92h-422zM164 1788h112l109 -250h-84z" />
<glyph unicode="&#xc9;" horiz-adv-x="602" d="M123 0v1434h397v-93h-295v-563h258v-92h-258v-594h320v-92h-422zM246 1538l108 250h113l-137 -250h-84z" />
<glyph unicode="&#xca;" horiz-adv-x="602" d="M123 0v1434h397v-93h-295v-563h258v-92h-258v-594h320v-92h-422zM139 1538l129 250h103l129 -250h-88l-93 174l-92 -174h-88z" />
<glyph unicode="&#xcb;" horiz-adv-x="602" d="M123 0v1434h397v-93h-295v-563h258v-92h-258v-594h320v-92h-422zM180 1565v194h99v-194h-99zM362 1565v194h99v-194h-99z" />
<glyph unicode="&#xcc;" horiz-adv-x="348" d="M-4 1788h113l108 -250h-84zM123 0v1434h102v-1434h-102z" />
<glyph unicode="&#xcd;" horiz-adv-x="348" d="M123 0v1434h102v-1434h-102zM131 1538l109 250h112l-137 -250h-84z" />
<glyph unicode="&#xce;" horiz-adv-x="348" d="M-6 1538l129 250h102l129 -250h-88l-92 174l-92 -174h-88zM123 0v1434h102v-1434h-102z" />
<glyph unicode="&#xcf;" horiz-adv-x="348" d="M35 1565v194h98v-194h-98zM123 0v1434h102v-1434h-102zM217 1565v194h98v-194h-98z" />
<glyph unicode="&#xd0;" horiz-adv-x="768" d="M2 674v92h121v668h276q58 0 107.5 -17.5t91 -55t65 -104.5t23.5 -159v-762q0 -92 -23.5 -159t-65 -104.5t-91 -55t-107.5 -17.5h-276v674h-121zM225 92h174q84 0 134.5 54t50.5 190v762q0 71 -14.5 120.5t-41.5 75.5t-58 36.5t-71 10.5h-174v-575h197v-92h-197v-582z" />
<glyph unicode="&#xd1;" horiz-adv-x="868" d="M123 0v1434h153l367 -1342v1342h92v-1434h-153l-367 1341v-1341h-92zM227 1589q6 67 38 106.5t81 39.5q33 0 94 -31t80 -31q23 0 31 19.5t8 60.5l82 -12q-1 -71 -34.5 -112.5t-84.5 -41.5q-34 0 -91 32t-75 32q-17 0 -28.5 -14.5t-15 -28t-7.5 -37.5z" />
<glyph unicode="&#xd2;" horiz-adv-x="737" d="M82 311v811q0 92 23.5 159t65 104.5t91 55t107.5 17.5t107 -17.5t90.5 -55t65 -104.5t23.5 -159v-811q0 -92 -23.5 -159t-65 -104.5t-90.5 -55t-107 -17.5t-107.5 17.5t-91 55t-65 104.5t-23.5 159zM182 1788h113l108 -250h-84zM184 311q0 -71 14.5 -120.5t41.5 -75.5 t58 -36.5t71 -10.5q84 0 134 53.5t50 189.5v811q0 136 -50 190t-134 54t-134.5 -54t-50.5 -190v-811z" />
<glyph unicode="&#xd3;" horiz-adv-x="737" d="M82 311v811q0 92 23.5 159t65 104.5t91 55t107.5 17.5t107 -17.5t90.5 -55t65 -104.5t23.5 -159v-811q0 -92 -23.5 -159t-65 -104.5t-90.5 -55t-107 -17.5t-107.5 17.5t-91 55t-65 104.5t-23.5 159zM184 311q0 -71 14.5 -120.5t41.5 -75.5t58 -36.5t71 -10.5 q84 0 134 53.5t50 189.5v811q0 136 -50 190t-134 54t-134.5 -54t-50.5 -190v-811zM338 1538l108 250h113l-137 -250h-84z" />
<glyph unicode="&#xd4;" horiz-adv-x="737" d="M82 311v811q0 92 23.5 159t65 104.5t91 55t107.5 17.5t107 -17.5t90.5 -55t65 -104.5t23.5 -159v-811q0 -92 -23.5 -159t-65 -104.5t-90.5 -55t-107 -17.5t-107.5 17.5t-91 55t-65 104.5t-23.5 159zM184 311q0 -71 14.5 -120.5t41.5 -75.5t58 -36.5t71 -10.5 q84 0 134 53.5t50 189.5v811q0 136 -50 190t-134 54t-134.5 -54t-50.5 -190v-811zM188 1538l129 250h103l129 -250h-88l-92 174l-93 -174h-88z" />
<glyph unicode="&#xd5;" horiz-adv-x="737" d="M82 311v811q0 92 23.5 159t65 104.5t91 55t107.5 17.5t107 -17.5t90.5 -55t65 -104.5t23.5 -159v-811q0 -92 -23.5 -159t-65 -104.5t-90.5 -55t-107 -17.5t-107.5 17.5t-91 55t-65 104.5t-23.5 159zM162 1589q6 67 38 106.5t81 39.5q33 0 94 -31t80 -31q23 0 31 19.5 t8 60.5l81 -12q-1 -71 -34 -112.5t-84 -41.5q-34 0 -91 32t-75 32q-17 0 -28.5 -14.5t-15 -28t-7.5 -37.5zM184 311q0 -71 14.5 -120.5t41.5 -75.5t58 -36.5t71 -10.5q84 0 134 53.5t50 189.5v811q0 136 -50 190t-134 54t-134.5 -54t-50.5 -190v-811z" />
<glyph unicode="&#xd6;" horiz-adv-x="737" d="M82 311v811q0 92 23.5 159t65 104.5t91 55t107.5 17.5t107 -17.5t90.5 -55t65 -104.5t23.5 -159v-811q0 -92 -23.5 -159t-65 -104.5t-90.5 -55t-107 -17.5t-107.5 17.5t-91 55t-65 104.5t-23.5 159zM184 311q0 -71 14.5 -120.5t41.5 -75.5t58 -36.5t71 -10.5 q84 0 134 53.5t50 189.5v811q0 136 -50 190t-134 54t-134.5 -54t-50.5 -190v-811zM229 1565v194h99v-194h-99zM412 1565v194h98v-194h-98z" />
<glyph unicode="&#xd7;" horiz-adv-x="651" d="M86 506l174 172l-174 174l66 66l174 -175l172 175l65 -66l-174 -174l174 -172l-65 -66l-174 174l-172 -174z" />
<glyph unicode="&#xd8;" horiz-adv-x="737" d="M82 311v811q0 92 23.5 159t65 104.5t91 55t107.5 17.5q67 0 125 -24l14 57h82l-25 -105q90 -87 90 -264v-811q0 -92 -23.5 -159t-65 -104.5t-90.5 -55t-107 -17.5q-78 0 -140 29l-18 -80h-82l31 133q-78 85 -78 254zM184 311q0 -55 11 -108l276 1136q-42 27 -102 27 q-84 0 -134.5 -54t-50.5 -190v-811zM254 102q39 -34 115 -34q84 0 134 53.5t50 189.5v811q0 75 -21 133z" />
<glyph unicode="&#xd9;" horiz-adv-x="778" d="M113 311v1123h102v-1123q0 -137 45.5 -190t128.5 -53t128.5 53t45.5 190v1123h103v-1123q0 -92 -22 -159t-61.5 -104.5t-87.5 -55t-106 -17.5t-105.5 17.5t-87 55t-61.5 104.5t-22 159zM223 1788h113l108 -250h-84z" />
<glyph unicode="&#xda;" horiz-adv-x="778" d="M113 311v1123h102v-1123q0 -137 45.5 -190t128.5 -53t128.5 53t45.5 190v1123h103v-1123q0 -92 -22 -159t-61.5 -104.5t-87.5 -55t-106 -17.5t-105.5 17.5t-87 55t-61.5 104.5t-22 159zM332 1538l108 250h113l-137 -250h-84z" />
<glyph unicode="&#xdb;" horiz-adv-x="778" d="M113 311v1123h102v-1123q0 -137 45.5 -190t128.5 -53t128.5 53t45.5 190v1123h103v-1123q0 -92 -22 -159t-61.5 -104.5t-87.5 -55t-106 -17.5t-105.5 17.5t-87 55t-61.5 104.5t-22 159zM209 1538l129 250h102l129 -250h-88l-92 174l-92 -174h-88z" />
<glyph unicode="&#xdc;" horiz-adv-x="778" d="M113 311v1123h102v-1123q0 -137 45.5 -190t128.5 -53t128.5 53t45.5 190v1123h103v-1123q0 -92 -22 -159t-61.5 -104.5t-87.5 -55t-106 -17.5t-105.5 17.5t-87 55t-61.5 104.5t-22 159zM250 1565v194h98v-194h-98zM432 1565v194h98v-194h-98z" />
<glyph unicode="&#xdd;" horiz-adv-x="665" d="M20 1434h113l207 -721l203 721h102l-260 -863v-571h-104v571zM285 1538l108 250h113l-137 -250h-84z" />
<glyph unicode="&#xde;" horiz-adv-x="708" d="M123 0v1434h102v-252h137q123 0 194 -59.5t71 -186.5v-397q0 -127 -77.5 -187.5t-205.5 -60.5h-119v-291h-102zM225 383h127q172 0 172 154v391q0 80 -45.5 121t-124.5 41h-129v-707z" />
<glyph unicode="&#xdf;" horiz-adv-x="813" d="M102 0v1167q0 136 82.5 212.5t194.5 76.5t194 -76t82 -211v-213q-12 -4 -36.5 -12t-36.5 -12t-33.5 -12t-32.5 -13.5t-27 -14t-24.5 -17t-17 -19t-12 -23t-3.5 -26.5v-64q0 -52 76 -122l156 -144q54 -50 81 -95t27 -97v-82q0 -107 -66 -167.5t-157 -60.5 q-109 0 -171.5 59t-62.5 171v117l95 14v-131q0 -70 39 -106t100 -36q57 0 91 35.5t34 104.5v76q0 29 -18.5 55.5t-57.5 64.5l-156 144q-108 100 -108 194v70q0 44 19 78.5t55 59t68.5 39t80.5 30.5v155q0 93 -53.5 146t-124.5 53q-73 0 -125.5 -53t-52.5 -146v-1169h-99z " />
<glyph unicode="&#xe0;" horiz-adv-x="624" d="M51 164v209q0 107 65.5 165t174.5 58h123v270q0 150 -123 150q-55 0 -89 -37.5t-34 -114.5v-98l-98 14v80q0 106 56 175t165 69q221 0 221 -227v-740q0 -65 35 -65q22 0 61 26v-88q-47 -35 -92 -35q-39 0 -63 24.5t-29 63.5q-34 -40 -82 -64t-98 -24q-80 0 -136.5 49 t-56.5 140zM119 1434h112l109 -250h-84zM150 180q0 -59 29.5 -89t76.5 -30q38 0 81 27.5t77 69.5v354h-121q-69 0 -106 -36t-37 -103v-193z" />
<glyph unicode="&#xe1;" horiz-adv-x="624" d="M51 164v209q0 107 65.5 165t174.5 58h123v270q0 150 -123 150q-55 0 -89 -37.5t-34 -114.5v-98l-98 14v80q0 106 56 175t165 69q221 0 221 -227v-740q0 -65 35 -65q22 0 61 26v-88q-47 -35 -92 -35q-39 0 -63 24.5t-29 63.5q-34 -40 -82 -64t-98 -24q-80 0 -136.5 49 t-56.5 140zM150 180q0 -59 29.5 -89t76.5 -30q38 0 81 27.5t77 69.5v354h-121q-69 0 -106 -36t-37 -103v-193zM240 1184l108 250h113l-137 -250h-84z" />
<glyph unicode="&#xe2;" horiz-adv-x="624" d="M51 164v209q0 107 65.5 165t174.5 58h123v270q0 150 -123 150q-55 0 -89 -37.5t-34 -114.5v-98l-98 14v80q0 106 56 175t165 69q221 0 221 -227v-740q0 -65 35 -65q22 0 61 26v-88q-47 -35 -92 -35q-39 0 -63 24.5t-29 63.5q-34 -40 -82 -64t-98 -24q-80 0 -136.5 49 t-56.5 140zM119 1184l129 250h102l129 -250h-88l-92 174l-92 -174h-88zM150 180q0 -59 29.5 -89t76.5 -30q38 0 81 27.5t77 69.5v354h-121q-69 0 -106 -36t-37 -103v-193z" />
<glyph unicode="&#xe3;" horiz-adv-x="624" d="M51 164v209q0 107 65.5 165t174.5 58h123v270q0 150 -123 150q-55 0 -89 -37.5t-34 -114.5v-98l-98 14v80q0 106 56 175t165 69q221 0 221 -227v-740q0 -65 35 -65q22 0 61 26v-88q-47 -35 -92 -35q-39 0 -63 24.5t-29 63.5q-34 -40 -82 -64t-98 -24q-80 0 -136.5 49 t-56.5 140zM92 1235q6 66 38 105.5t81 39.5q33 0 94 -30.5t80 -30.5q23 0 31 19.5t8 60.5l82 -13q-1 -70 -34.5 -111.5t-84.5 -41.5q-34 0 -91 31.5t-75 31.5q-17 0 -28.5 -14t-15 -27.5t-7.5 -37.5zM150 180q0 -59 29.5 -89t76.5 -30q38 0 81 27.5t77 69.5v354h-121 q-69 0 -106 -36t-37 -103v-193z" />
<glyph unicode="&#xe4;" horiz-adv-x="624" d="M51 164v209q0 107 65.5 165t174.5 58h123v270q0 150 -123 150q-55 0 -89 -37.5t-34 -114.5v-98l-98 14v80q0 106 56 175t165 69q221 0 221 -227v-740q0 -65 35 -65q22 0 61 26v-88q-47 -35 -92 -35q-39 0 -63 24.5t-29 63.5q-34 -40 -82 -64t-98 -24q-80 0 -136.5 49 t-56.5 140zM150 180q0 -59 29.5 -89t76.5 -30q38 0 81 27.5t77 69.5v354h-121q-69 0 -106 -36t-37 -103v-193zM162 1239v195h98v-195h-98zM344 1239v195h98v-195h-98z" />
<glyph unicode="&#xe5;" horiz-adv-x="624" d="M51 164v209q0 107 65.5 165t174.5 58h123v270q0 150 -123 150q-55 0 -89 -37.5t-34 -114.5v-98l-98 14v80q0 106 56 175t165 69q221 0 221 -227v-740q0 -65 35 -65q22 0 61 26v-88q-47 -35 -92 -35q-39 0 -63 24.5t-29 63.5q-34 -40 -82 -64t-98 -24q-80 0 -136.5 49 t-56.5 140zM150 180q0 -59 29.5 -89t76.5 -30q38 0 81 27.5t77 69.5v354h-121q-69 0 -106 -36t-37 -103v-193zM172 1307q0 57 39 96t98 39q61 0 100.5 -38.5t39.5 -96.5t-39.5 -97t-100.5 -39q-59 0 -98 39t-39 97zM236 1307q0 -33 20.5 -56.5t52.5 -23.5q33 0 54.5 23.5 t21.5 56.5t-21.5 56t-54.5 23q-32 0 -52.5 -23t-20.5 -56z" />
<glyph unicode="&#xe6;" horiz-adv-x="1005" d="M51 164v209q0 107 65.5 165t174.5 58h123v270q0 150 -123 150q-55 0 -89 -37.5t-34 -114.5v-98l-98 14v86q0 104 58.5 171t162.5 67q59 0 108 -27.5t74 -72.5q31 47 81 73.5t110 26.5q46 0 88.5 -14.5t79.5 -44.5t59 -84t22 -125v-254h-401v-338q0 -93 40.5 -137 t111.5 -44q66 0 108.5 46t42.5 135v78l98 14v-92q0 -71 -22 -125.5t-59 -84.5t-79.5 -44.5t-88.5 -14.5q-147 0 -218 109q-52 -61 -100 -85t-102 -24q-80 0 -136.5 49t-56.5 140zM150 180q0 -59 29.5 -89t76.5 -30q85 0 158 105v346h-121q-69 0 -106 -36t-37 -103v-193z M512 670h303v166q0 89 -42.5 134.5t-108.5 45.5q-65 0 -108.5 -46.5t-43.5 -135.5v-164z" />
<glyph unicode="&#xe7;" horiz-adv-x="663" d="M92 244v592q0 71 22 125t59.5 84t80 44.5t88.5 14.5t88.5 -14.5t80 -44.5t59.5 -84t22 -125v-74l-98 -14v88q0 89 -43 134.5t-109 45.5t-109 -45.5t-43 -134.5v-592q0 -89 43 -135t109 -46t109 46t43 135v78l98 14v-92q0 -121 -58.5 -185.5t-146.5 -78.5q14 -44 14 -70 q0 -58 -31.5 -99.5t-82.5 -52.5q-10 -2 -31 -2q-40 0 -80 21v76q43 -19 72 -19q31 0 49 20t18 54t-14 72q-88 12 -148.5 77t-60.5 187z" />
<glyph unicode="&#xe8;" d="M92 244v592q0 71 22 125t59.5 84t80 44.5t88.5 14.5t88.5 -14.5t80 -44.5t59.5 -84t22 -125v-254h-402v-338q0 -89 43 -135t109 -46t109 46t43 135v78l98 14v-92q0 -71 -22 -125.5t-59.5 -84.5t-80 -44.5t-88.5 -14.5t-88.5 14.5t-80 44.5t-59.5 84.5t-22 125.5z M164 1434h112l109 -250h-84zM190 670h304v166q0 89 -43 134.5t-109 45.5t-109 -45.5t-43 -134.5v-166z" />
<glyph unicode="&#xe9;" d="M92 244v592q0 71 22 125t59.5 84t80 44.5t88.5 14.5t88.5 -14.5t80 -44.5t59.5 -84t22 -125v-254h-402v-338q0 -89 43 -135t109 -46t109 46t43 135v78l98 14v-92q0 -71 -22 -125.5t-59.5 -84.5t-80 -44.5t-88.5 -14.5t-88.5 14.5t-80 44.5t-59.5 84.5t-22 125.5zM190 670 h304v166q0 89 -43 134.5t-109 45.5t-109 -45.5t-43 -134.5v-166zM287 1184l108 250h113l-137 -250h-84z" />
<glyph unicode="&#xea;" d="M92 244v592q0 71 22 125t59.5 84t80 44.5t88.5 14.5t88.5 -14.5t80 -44.5t59.5 -84t22 -125v-254h-402v-338q0 -89 43 -135t109 -46t109 46t43 135v78l98 14v-92q0 -71 -22 -125.5t-59.5 -84.5t-80 -44.5t-88.5 -14.5t-88.5 14.5t-80 44.5t-59.5 84.5t-22 125.5z M164 1184l129 250h102l129 -250h-88l-92 174l-92 -174h-88zM190 670h304v166q0 89 -43 134.5t-109 45.5t-109 -45.5t-43 -134.5v-166z" />
<glyph unicode="&#xeb;" d="M92 244v592q0 71 22 125t59.5 84t80 44.5t88.5 14.5t88.5 -14.5t80 -44.5t59.5 -84t22 -125v-254h-402v-338q0 -89 43 -135t109 -46t109 46t43 135v78l98 14v-92q0 -71 -22 -125.5t-59.5 -84.5t-80 -44.5t-88.5 -14.5t-88.5 14.5t-80 44.5t-59.5 84.5t-22 125.5zM190 670 h304v166q0 89 -43 134.5t-109 45.5t-109 -45.5t-43 -134.5v-166zM203 1239v195h98v-195h-98zM385 1239v195h98v-195h-98z" />
<glyph unicode="&#xec;" horiz-adv-x="303" d="M-37 1434h113l108 -250h-84zM102 0v1079h99v-1079h-99z" />
<glyph unicode="&#xed;" horiz-adv-x="303" d="M102 0v1079h99v-1079h-99zM113 1184l108 250h113l-137 -250h-84z" />
<glyph unicode="&#xee;" horiz-adv-x="303" d="M-31 1184l129 250h103l129 -250h-88l-92 174l-93 -174h-88zM102 0v1079h99v-1079h-99z" />
<glyph unicode="&#xef;" horiz-adv-x="303" d="M12 1239v195h99v-195h-99zM102 0v1079h99v-1079h-99zM195 1239v195h98v-195h-98z" />
<glyph unicode="&#xf0;" d="M92 244v592q0 71 22 125t59.5 84t80 44.5t88.5 14.5q66 0 137 -49q-14 88 -76 202l-188 -47v80l150 37q-60 101 -152 209h115q90 -118 129 -186l114 30v-80l-77 -20q98 -198 98 -442v-594q0 -71 -22 -125.5t-59.5 -84.5t-80 -44.5t-88.5 -14.5t-88.5 14.5t-80 44.5 t-59.5 84.5t-22 125.5zM190 244q0 -89 43 -135t109 -46t109 46t43 135v592q0 89 -43 134.5t-109 45.5t-109 -45.5t-43 -134.5v-592z" />
<glyph unicode="&#xf1;" horiz-adv-x="688" d="M102 0v1079h99v-61q82 86 188 86q88 0 147.5 -61.5t59.5 -178.5v-864h-98v850q0 80 -35.5 123t-93.5 43q-89 0 -168 -103v-913h-99zM143 1235q6 66 38 105.5t81 39.5q33 0 94 -30.5t80 -30.5q23 0 31 19.5t8 60.5l82 -13q-1 -70 -34.5 -111.5t-84.5 -41.5q-34 0 -91 31.5 t-75 31.5q-17 0 -28.5 -14t-15 -27.5t-7.5 -37.5z" />
<glyph unicode="&#xf2;" d="M92 244v592q0 71 22 125t59.5 84t80 44.5t88.5 14.5t88.5 -14.5t80 -44.5t59.5 -84t22 -125v-592q0 -71 -22 -125.5t-59.5 -84.5t-80 -44.5t-88.5 -14.5t-88.5 14.5t-80 44.5t-59.5 84.5t-22 125.5zM158 1434h112l109 -250h-84zM190 244q0 -89 43 -135t109 -46t109 46 t43 135v592q0 89 -43 134.5t-109 45.5t-109 -45.5t-43 -134.5v-592z" />
<glyph unicode="&#xf3;" d="M92 244v592q0 71 22 125t59.5 84t80 44.5t88.5 14.5t88.5 -14.5t80 -44.5t59.5 -84t22 -125v-592q0 -71 -22 -125.5t-59.5 -84.5t-80 -44.5t-88.5 -14.5t-88.5 14.5t-80 44.5t-59.5 84.5t-22 125.5zM190 244q0 -89 43 -135t109 -46t109 46t43 135v592q0 89 -43 134.5 t-109 45.5t-109 -45.5t-43 -134.5v-592zM295 1184l108 250h113l-137 -250h-84z" />
<glyph unicode="&#xf4;" d="M92 244v592q0 71 22 125t59.5 84t80 44.5t88.5 14.5t88.5 -14.5t80 -44.5t59.5 -84t22 -125v-592q0 -71 -22 -125.5t-59.5 -84.5t-80 -44.5t-88.5 -14.5t-88.5 14.5t-80 44.5t-59.5 84.5t-22 125.5zM162 1184l129 250h102l129 -250h-88l-92 174l-92 -174h-88zM190 244 q0 -89 43 -135t109 -46t109 46t43 135v592q0 89 -43 134.5t-109 45.5t-109 -45.5t-43 -134.5v-592z" />
<glyph unicode="&#xf5;" d="M92 244v592q0 71 22 125t59.5 84t80 44.5t88.5 14.5t88.5 -14.5t80 -44.5t59.5 -84t22 -125v-592q0 -71 -22 -125.5t-59.5 -84.5t-80 -44.5t-88.5 -14.5t-88.5 14.5t-80 44.5t-59.5 84.5t-22 125.5zM135 1235q6 66 38 105.5t81 39.5q33 0 94 -30.5t80 -30.5q23 0 31 19.5 t8 60.5l82 -13q-1 -70 -34.5 -111.5t-84.5 -41.5q-34 0 -91 31.5t-75 31.5q-17 0 -28.5 -14t-15 -27.5t-7.5 -37.5zM190 244q0 -89 43 -135t109 -46t109 46t43 135v592q0 89 -43 134.5t-109 45.5t-109 -45.5t-43 -134.5v-592z" />
<glyph unicode="&#xf6;" d="M92 244v592q0 71 22 125t59.5 84t80 44.5t88.5 14.5t88.5 -14.5t80 -44.5t59.5 -84t22 -125v-592q0 -71 -22 -125.5t-59.5 -84.5t-80 -44.5t-88.5 -14.5t-88.5 14.5t-80 44.5t-59.5 84.5t-22 125.5zM190 244q0 -89 43 -135t109 -46t109 46t43 135v592q0 89 -43 134.5 t-109 45.5t-109 -45.5t-43 -134.5v-592zM203 1239v195h98v-195h-98zM385 1239v195h98v-195h-98z" />
<glyph unicode="&#xf7;" horiz-adv-x="651" d="M72 625v112h508v-112h-508zM268 281v147h115v-147h-115zM268 932v147h115v-147h-115z" />
<glyph unicode="&#xf8;" d="M92 244v592q0 71 22 125t59.5 84t80 44.5t88.5 14.5q57 0 115 -25l16 64h82l-31 -113q68 -71 68 -194v-592q0 -71 -22 -125.5t-59.5 -84.5t-80 -44.5t-88.5 -14.5q-41 0 -94 17l-17 -68h-81l28 107q-86 69 -86 213zM190 244q0 -57 19 -97l223 840q-44 29 -90 29 q-66 0 -109 -45.5t-43 -134.5v-592zM272 80q28 -17 70 -17q66 0 109 46t43 135v592q0 27 -7 55z" />
<glyph unicode="&#xf9;" horiz-adv-x="671" d="M92 244v835h98v-835q0 -90 40.5 -135.5t105.5 -45.5t105 45.5t40 135.5v835h99v-835q0 -71 -21.5 -125t-57.5 -84.5t-77.5 -45t-87.5 -14.5t-87.5 14.5t-77.5 45t-57.5 84.5t-21.5 125zM156 1434h112l109 -250h-84z" />
<glyph unicode="&#xfa;" horiz-adv-x="671" d="M92 244v835h98v-835q0 -90 40.5 -135.5t105.5 -45.5t105 45.5t40 135.5v835h99v-835q0 -71 -21.5 -125t-57.5 -84.5t-77.5 -45t-87.5 -14.5t-87.5 14.5t-77.5 45t-57.5 84.5t-21.5 125zM285 1184l108 250h113l-137 -250h-84z" />
<glyph unicode="&#xfb;" horiz-adv-x="671" d="M92 244v835h98v-835q0 -90 40.5 -135.5t105.5 -45.5t105 45.5t40 135.5v835h99v-835q0 -71 -21.5 -125t-57.5 -84.5t-77.5 -45t-87.5 -14.5t-87.5 14.5t-77.5 45t-57.5 84.5t-21.5 125zM156 1184l129 250h102l129 -250h-88l-92 174l-92 -174h-88z" />
<glyph unicode="&#xfc;" horiz-adv-x="671" d="M92 244v835h98v-835q0 -90 40.5 -135.5t105.5 -45.5t105 45.5t40 135.5v835h99v-835q0 -71 -21.5 -125t-57.5 -84.5t-77.5 -45t-87.5 -14.5t-87.5 14.5t-77.5 45t-57.5 84.5t-21.5 125zM197 1239v195h98v-195h-98zM379 1239v195h98v-195h-98z" />
<glyph unicode="&#xfd;" horiz-adv-x="610" d="M-20 -199q47 -20 86 -20q132 0 192 280l-233 1018h98l184 -848l189 848h94l-248 -1044q-13 -55 -27 -98t-37.5 -91.5t-50.5 -80.5t-68 -53t-89 -21q-52 0 -90 18v92zM264 1184l109 250h112l-137 -250h-84z" />
<glyph unicode="&#xfe;" horiz-adv-x="688" d="M102 -326v1760l99 20v-436q82 86 180 86q106 0 160.5 -68t54.5 -200v-592q0 -121 -69 -195t-160 -74q-94 0 -166 82v-362zM201 170q32 -47 75 -77t84 -30q58 0 98 49t40 132v592q0 180 -133 180q-44 0 -87 -28.5t-77 -74.5v-743z" />
<glyph unicode="&#xff;" horiz-adv-x="610" d="M-20 -199q47 -20 86 -20q132 0 192 280l-233 1018h98l184 -848l189 848h94l-248 -1044q-13 -55 -27 -98t-37.5 -91.5t-50.5 -80.5t-68 -53t-89 -21q-52 0 -90 18v92zM166 1239v195h98v-195h-98zM348 1239v195h98v-195h-98z" />
<glyph unicode="&#x152;" horiz-adv-x="1032" d="M82 311v811q0 91 23.5 159t64 105t88 54.5t102.5 17.5q119 0 193 -74v50h397v-93h-295v-563h258v-92h-258v-594h320v-92h-422v53q-62 -78 -191 -78q-44 0 -83 10.5t-75.5 35t-63 62t-42.5 96t-16 132.5zM184 311q0 -71 14.5 -120.5t41.5 -75.5t58 -36.5t71 -10.5 q184 0 184 243v811q0 131 -51 187.5t-133 56.5q-84 0 -134.5 -54t-50.5 -190v-811z" />
<glyph unicode="&#x153;" horiz-adv-x="1050" d="M92 244v592q0 71 22 125t59.5 84t80 44.5t88.5 14.5q58 0 112 -24t89 -72q69 96 200 96q46 0 88.5 -14.5t80 -44.5t59.5 -84t22 -125v-254h-401v-338q0 -89 42.5 -135t108.5 -46t109 46t43 135v78l98 14v-92q0 -71 -22 -125.5t-59.5 -84.5t-80 -44.5t-88.5 -14.5 q-132 0 -200 95q-35 -48 -89 -71.5t-112 -23.5q-46 0 -88.5 14.5t-80 44.5t-59.5 84.5t-22 125.5zM190 244q0 -89 43 -135t109 -46t109 46t43 135v592q0 89 -43 134.5t-109 45.5t-109 -45.5t-43 -134.5v-592zM592 670h303v166q0 89 -43 134.5t-109 45.5t-108.5 -45.5 t-42.5 -134.5v-166z" />
<glyph unicode="&#x178;" horiz-adv-x="665" d="M20 1434h113l207 -721l203 721h102l-260 -863v-571h-104v571zM193 1565v194h98v-194h-98zM375 1565v194h98v-194h-98z" />
<glyph unicode="&#x2c6;" horiz-adv-x="1024" d="M332 1184l129 250h102l129 -250h-88l-92 174l-92 -174h-88z" />
<glyph unicode="&#x2dc;" horiz-adv-x="1024" d="M305 1235q6 66 38 105.5t81 39.5q33 0 94 -30.5t80 -30.5q23 0 31 19.5t8 60.5l82 -13q-1 -70 -34.5 -111.5t-84.5 -41.5q-34 0 -91 31.5t-75 31.5q-17 0 -28.5 -14t-15 -27.5t-7.5 -37.5z" />
<glyph unicode="&#x2000;" horiz-adv-x="898" />
<glyph unicode="&#x2001;" horiz-adv-x="1796" />
<glyph unicode="&#x2002;" horiz-adv-x="898" />
<glyph unicode="&#x2003;" horiz-adv-x="1796" />
<glyph unicode="&#x2004;" horiz-adv-x="598" />
<glyph unicode="&#x2005;" horiz-adv-x="449" />
<glyph unicode="&#x2006;" horiz-adv-x="299" />
<glyph unicode="&#x2007;" horiz-adv-x="299" />
<glyph unicode="&#x2008;" horiz-adv-x="224" />
<glyph unicode="&#x2009;" horiz-adv-x="359" />
<glyph unicode="&#x200a;" horiz-adv-x="99" />
<glyph unicode="&#x2010;" horiz-adv-x="407" d="M41 629v100h326v-100h-326z" />
<glyph unicode="&#x2011;" horiz-adv-x="407" d="M41 629v100h326v-100h-326z" />
<glyph unicode="&#x2012;" horiz-adv-x="407" d="M41 629v100h326v-100h-326z" />
<glyph unicode="&#x2013;" horiz-adv-x="620" d="M41 633v92h539v-92h-539z" />
<glyph unicode="&#x2014;" horiz-adv-x="1046" d="M41 633v92h965v-92h-965z" />
<glyph unicode="&#x2018;" horiz-adv-x="260" d="M31 999l110 435h88l-102 -435h-96z" />
<glyph unicode="&#x2019;" horiz-adv-x="260" d="M31 999l102 435h96l-110 -435h-88z" />
<glyph unicode="&#x201a;" horiz-adv-x="260" d="M31 -319l102 434h96l-110 -434h-88z" />
<glyph unicode="&#x201c;" horiz-adv-x="417" d="M31 999l110 435h88l-102 -435h-96zM188 999l111 435h88l-102 -435h-97z" />
<glyph unicode="&#x201d;" horiz-adv-x="415" d="M31 999l102 435h96l-110 -435h-88zM186 999l103 435h96l-111 -435h-88z" />
<glyph unicode="&#x201e;" horiz-adv-x="436" d="M31 -319l102 434h96l-110 -434h-88zM207 -319l102 434h97l-111 -434h-88z" />
<glyph unicode="&#x2022;" horiz-adv-x="372" d="M61 664q0 70 34.5 107.5t90.5 37.5t90.5 -37.5t34.5 -107.5t-34.5 -108t-90.5 -38t-90.5 38t-34.5 108z" />
<glyph unicode="&#x2026;" horiz-adv-x="675" d="M82 0v147h102v-147h-102zM287 0v147h102v-147h-102zM492 0v147h102v-147h-102z" />
<glyph unicode="&#x202f;" horiz-adv-x="359" />
<glyph unicode="&#x2039;" horiz-adv-x="471" d="M53 612l250 467h115l-252 -467l252 -467h-115z" />
<glyph unicode="&#x203a;" horiz-adv-x="471" d="M53 145l252 467l-252 467h115l250 -467l-250 -467h-115z" />
<glyph unicode="&#x205f;" horiz-adv-x="449" />
<glyph unicode="&#x20ac;" horiz-adv-x="720" d="M20 573v93h76v135h-76v92h76v229q0 92 23.5 159t65 104.5t91 55t107.5 17.5t107.5 -17.5t91 -55t65 -104.5t23.5 -159v-47l-103 -20v67q0 136 -50 190t-134 54t-134 -54t-50 -190v-229h385l-13 -92h-372v-135h354l-12 -93h-342v-262q0 -136 50 -189.5t134 -53.5t134 53.5 t50 189.5v58l103 20v-78q0 -92 -23.5 -159t-65 -104.5t-91 -55t-107.5 -17.5t-107.5 17.5t-91 55t-65 104.5t-23.5 159v262h-76z" />
<glyph unicode="&#x2122;" horiz-adv-x="710" d="M61 1358v76h232v-76h-78v-318h-74v318h-80zM303 1040l29 394h82l61 -267l66 267h82l26 -394h-71l-13 242l-53 -211h-74l-55 211l-8 -242h-72z" />
<glyph unicode="&#x25fc;" horiz-adv-x="1075" d="M0 0v1075h1075v-1075h-1075z" />
</font>
</defs>
</svg>
